<?xml version="1.0" standalone="no"?>
<!DOCTYPE svg PUBLIC "-//W3C//DTD SVG 1.1//EN" "http://www.w3.org/Graphics/SVG/1.1/DTD/svg11.dtd" >
<svg>
<metadata>
Created by FontForge 20090914 at Thu Nov 13 19:11:06 2014
 By www-data
(c) Copyright The Font Bureau, Inc. 2014. All rights reserved.
</metadata>
<defs>
<font id="InputMono-Regular" horiz-adv-x="700" >
  <font-face 
    font-family="InputMono"
    font-weight="400"
    font-stretch="normal"
    units-per-em="1100"
    panose-1="2 0 5 9 2 0 0 9 0 4"
    ascent="850"
    descent="-250"
    x-height="600"
    cap-height="800"
    bbox="-232 -450 1300 1400"
    underline-thickness="0"
    underline-position="0"
    unicode-range="U+000D-U+1F41B"
  />
<missing-glyph 
d="M50 -250v1100h600v-1100h-600zM150 -150h400v900h-400v-900z" />
    <glyph glyph-name=".notdef" 
d="M50 -250v1100h600v-1100h-600zM150 -150h400v900h-400v-900z" />
    <glyph glyph-name="NULL" horiz-adv-x="0" 
 />
    <glyph glyph-name="nonmarkingreturn" unicode="&#xd;" horiz-adv-x="0" 
 />
    <glyph glyph-name="space" unicode="&#xa0;" 
 />
    <glyph glyph-name="space" unicode=" " 
 />
    <glyph glyph-name="exclam" unicode="!" 
d="M310 300l-30 500h140l-30 -500h-80zM351 -10c-33.333 0 -57.8311 6.83301 -73.498 20.5s-23.5 34.834 -23.5 63.501v28c0 29.333 7.83301 51 23.5 65s40.167 21 73.5 21s57.666 -7 72.999 -21s23 -35.667 23 -65v-28c0 -28.667 -7.83301 -49.834 -23.5 -63.501
s-39.834 -20.5 -72.501 -20.5z" />
    <glyph glyph-name="quotedbl" unicode="&#x22;" 
d="M450 400l-30 400h160l-30 -400h-100zM150 400l-30 400h160l-30 -400h-100z" />
    <glyph glyph-name="numbersign" unicode="#" 
d="M415 290l11 220h-140l-11 -220h140zM400 0l10 200h-140l-10 -200h-90l10 200h-130v90h135l11 220h-146v90h150l10 200h90l-10 -200h140l10 200h90l-10 -200h130v-90h-134l-11 -220h145v-90h-150l-10 -200h-90z" />
    <glyph glyph-name="dollar" unicode="$" 
d="M189 565c0 -24.667 9.66699 -45.333 29 -62s53.333 -32.334 102 -47.001v211c-39.333 -1.33301 -71 -9.16602 -95 -23.499s-36 -40.5 -36 -78.5zM515 235.001c0 26 -10 47.332 -30 63.999s-55 32.334 -105 47.001v-220c40 1.33301 72.5 10.833 97.5 28.5
s37.5 44.5 37.5 80.5zM390 -50h-79.998v97c-39.333 3.33301 -78.333 11 -117 23s-71.334 27.333 -98.001 46l30 81c28.667 -18.667 60.334 -33.667 95.001 -45s68 -19 100 -23v233c-81.333 20.667 -138.333 46.667 -171 78s-49 73 -49 125c0 58 17.167 103 51.5 135
s87.166 49.667 158.499 53v97h80v-98c36 -3.33301 70.667 -10 104 -20s61.666 -22.333 84.999 -37l-30 -83c-25.333 14 -52.666 25.5 -81.999 34.5s-58.333 14.833 -87 17.5v-225c83.333 -22.667 141.666 -49.167 174.999 -79.5s50 -70.833 50 -121.5
c0 -59.333 -18.5 -105.333 -55.5 -138s-90.167 -51 -159.5 -55v-95z" />
    <glyph glyph-name="percent" unicode="%" 
d="M195 448c-46 0 -83.333 12.667 -112 38s-43 64.333 -43 117v60c0 53.333 14.333 92.833 43 118.5s66 38.5 112 38.5s83.167 -12.833 111.5 -38.5s42.5 -65.167 42.5 -118.5v-60c0 -52.667 -14.167 -91.667 -42.5 -117s-65.5 -38 -111.5 -38zM195 529
c20 0 35.667 5.66699 47 17s17 29.666 17 54.999v64c0 25.333 -5.66699 44 -17 56s-27 18 -47 18s-35.833 -6 -47.5 -18s-17.5 -30.667 -17.5 -56v-64c0 -25.333 5.83301 -43.666 17.5 -54.999s27.5 -17 47.5 -17zM45 168l560 529l55 -58l-561 -529zM506 -22
c-46 0 -83.333 12.667 -112 38s-43 64.333 -43 117v60c0 53.333 14.333 92.833 43 118.5s66 38.5 112 38.5s83.167 -12.833 111.5 -38.5s42.5 -65.167 42.5 -118.5v-60c0 -52.667 -14.167 -91.667 -42.5 -117s-65.5 -38 -111.5 -38zM506 59c20 0 35.667 5.66699 47 17
s17 29.666 17 54.999v64c0 25.333 -5.66699 44 -17 56s-27 18 -47 18s-35.833 -6 -47.5 -18s-17.5 -30.667 -17.5 -56v-64c0 -25.333 5.83301 -43.666 17.5 -54.999s27.5 -17 47.5 -17z" />
    <glyph glyph-name="ampersand" unicode="&#x26;" 
d="M665 -6c-40 12 -78.165 27.498 -114.498 46.498s-70.833 40.167 -103.5 63.5c-30.667 -35.333 -62.334 -63.166 -95.001 -83.499s-71.667 -30.5 -117 -30.5c-56.667 0 -103.334 18 -140.001 54s-55 88.333 -55 157c0 54.667 13.833 101.667 41.5 141
s59.834 69.333 96.501 90c-15.333 33.333 -27.166 64.833 -35.499 94.5s-12.5 55.5 -12.5 77.5c0 63.333 15.667 113.5 47 150.5s75.666 55.5 132.999 55.5c48.667 0 89.5 -17 122.5 -51s49.5 -74 49.5 -120c0 -56 -15.833 -100.667 -47.5 -134
s-84.167 -63.666 -157.5 -90.999c5.33301 -11.333 11.5 -22.5 18.5 -33.5l20.5 -32.5c16.667 -24.667 34.667 -48.5 54 -71.5s40 -44.5 62 -64.5c18.667 28.667 36.667 61 54 97s33.666 75 48.999 117l85 -39c-20 -46.667 -43.167 -87.5 -69.5 -122.5l-75.5 -100.5l205 -79z
M225.002 598.998c0 -20.667 2.50098 -42.5 7.50098 -65.5s12.167 -45.833 21.5 -68.5c49.333 22 85.166 46 107.499 72s33.5 56.333 33.5 91c0 28 -8.16699 50.833 -24.5 68.5s-35.5 26.5 -57.5 26.5c-32.667 0 -55.5 -11.333 -68.5 -34s-19.5 -52.667 -19.5 -90z
M243.003 76.998c25.333 0 50.001 6.66504 74.001 19.998s47.333 32.333 70 57c-24.667 21.333 -47.5 43.833 -68.5 67.5s-40.5 47.834 -58.5 72.501l-27.5 40.5c-9 13.667 -17.167 26.834 -24.5 39.501c-21.333 -20 -38.833 -44.5 -52.5 -73.5s-20.5 -58.833 -20.5 -89.5
c0 -40 9.16699 -72.333 27.5 -97s45.166 -37 80.499 -37z" />
    <glyph glyph-name="quotesingle" unicode="'" 
d="M300 400l-30 400h160l-30 -400h-100z" />
    <glyph glyph-name="parenleft" unicode="(" 
d="M550 -210c-104.667 24.667 -189.167 81.667 -253.5 171s-96.5 202.333 -96.5 339s32.167 249.667 96.5 339s148.833 146.333 253.5 171l10 -78c-89.333 -24.667 -155 -76.167 -197 -154.5s-63 -170.833 -63 -277.5s21 -199.167 63 -277.5s107.667 -129.833 197 -154.5z
" />
    <glyph glyph-name="parenright" unicode=")" 
d="M150 -210l-10 78.002c89.333 24.667 155 76.5 197 155.5s63 171.167 63 276.5s-21 197.5 -63 276.5s-107.667 130.833 -197 155.5l10 78c104.667 -24.667 189.167 -81.834 253.5 -171.501s96.5 -202.5 96.5 -338.5s-32.167 -248.833 -96.5 -338.5
s-148.833 -146.834 -253.5 -171.501z" />
    <glyph glyph-name="asterisk" unicode="*" 
d="M579 279l-198 164l28 -243h-120l28 242l-197 -163l-60 104l234 118l-234 118l60 104l197 -164l-28 241h120l-28 -242l198 165l60 -104l-234 -118l234 -118z" />
    <glyph glyph-name="plus" unicode="+" 
d="M300 40v260h-230v100h230v260h100v-260h230v-100h-230v-260h-100z" />
    <glyph glyph-name="comma" unicode="," 
d="M200 -200l90 400h199l-205 -400h-84z" />
    <glyph glyph-name="hyphen" unicode="&#x2011;" 
d="M70 300v100h560v-100h-560z" />
    <glyph glyph-name="hyphen" unicode="&#x2010;" 
d="M70 300v100h560v-100h-560z" />
    <glyph glyph-name="hyphen" unicode="&#xad;" 
d="M70 300v100h560v-100h-560z" />
    <glyph glyph-name="hyphen" unicode="-" 
d="M70 300v100h560v-100h-560z" />
    <glyph glyph-name="period" unicode="." 
d="M351 -10c-33.333 0 -60.3311 7.5 -80.998 22.5s-31 38.833 -31 71.5v28c0 32.667 10.333 56.834 31 72.501s47.667 23.5 81 23.5s60.166 -7.83301 80.499 -23.5s30.5 -39.834 30.5 -72.501v-28c0 -32.667 -10.333 -56.5 -31 -71.5s-47.334 -22.5 -80.001 -22.5z" />
    <glyph glyph-name="slash" unicode="/" 
d="M100 -200l400 1000h100l-400 -1000h-100z" />
    <glyph glyph-name="zero" unicode="0" 
d="M350 -10c-88 0 -155 29.5 -201 88.5s-69 145.167 -69 258.5v122c0 114.667 23 201.834 69 261.501s113.333 89.5 202 89.5c88 0 154.833 -29.833 200.5 -89.5s68.5 -146.834 68.5 -261.501v-122c0 -113.333 -23 -199.5 -69 -258.5s-113 -88.5 -201 -88.5zM350 80
c60.667 0 104.167 20 130.5 60s39.5 105.667 39.5 197v122c0 93.333 -13.167 160.166 -39.5 200.499s-69.833 60.5 -130.5 60.5s-104.167 -20.167 -130.5 -60.5s-39.5 -107.166 -39.5 -200.499v-122c0 -91.333 13.167 -157 39.5 -197s69.833 -60 130.5 -60zM350 322
c-21.333 0 -38.666 3.66699 -51.999 11s-20 21.333 -20 42v49c0 20 6.66699 33.833 20 41.5s30.666 11.5 51.999 11.5s38.5 -3.83301 51.5 -11.5s19.5 -21.5 19.5 -41.5v-49c0 -20.667 -6.66699 -34.667 -20 -42s-30.333 -11 -51 -11z" />
    <glyph glyph-name="one" unicode="1" 
d="M130 0l0.00195312 90.001h220v590h-29c-22.667 -40 -51.834 -68.333 -87.501 -85s-76.834 -21 -123.501 -13l-10 98c51.333 -6 98.333 1.16699 141 21.5s80 53.166 112 98.499h97v-710h200v-90h-520z" />
    <glyph glyph-name="two" unicode="2" 
d="M80 0l0.00195312 170c0 60.667 14.667 108.667 44 144s77.666 63 144.999 83l136 40c38 10.667 65 24.334 81 41.001s24 41.667 24 75v41c0 46 -11.167 78.5 -33.5 97.5s-64.5 28.5 -126.5 28.5c-56.667 0 -96.167 -11.833 -118.5 -35.5
s-36.166 -68.834 -41.499 -135.501l-100 10c5.33301 91.333 27.5 156 66.5 194s103.167 57 192.5 57c87.333 0 152.666 -17 195.999 -51s65 -85.667 65 -155v-66c0 -50 -14.333 -90 -43 -120s-76 -54.667 -142 -74l-137 -40c-32.667 -9.33301 -58.834 -22.833 -78.501 -40.5
s-29.5 -48.167 -29.5 -91.5v-82h440v-90h-540z" />
    <glyph glyph-name="three" unicode="3" 
d="M340 -10c-102.667 0 -172.167 18.999 -208.5 56.999s-56.833 94.667 -61.5 170l100 10c6.66699 -60 21 -99.833 43 -119.5s64.333 -29.5 127 -29.5c66.667 0 113.334 10.333 140.001 31s40 56.667 40 108v27c0 50 -12.667 85.167 -38 105.5s-69.333 30.5 -132 30.5h-100
v90h100c55.333 0 94.166 7.83301 116.499 23.5s33.5 43.167 33.5 82.5v32c0 42 -11.833 71.5 -35.5 88.5s-65.167 25.5 -124.5 25.5c-52 0 -88.667 -9.33301 -110 -28s-34.666 -54 -39.999 -106l-100 10c4.66699 75.333 27.5 129.5 68.5 162.5s101.5 49.5 181.5 49.5
c80.667 0 144.167 -15.667 190.5 -47s69.5 -83 69.5 -155v-32c0 -40 -13.833 -71.667 -41.5 -95s-66.167 -36.666 -115.5 -39.999v-29c59.333 -4.66699 103.666 -23 132.999 -55s44 -69.667 44 -113v-27c0 -72 -20.833 -127.833 -62.5 -167.5s-114.167 -59.5 -217.5 -59.5z
" />
    <glyph glyph-name="four" unicode="4" 
d="M180 300h270v396zM670 210h-120v-210h-100v210h-380v90l335 500h145v-500h120v-90z" />
    <glyph glyph-name="five" unicode="5" 
d="M349 -10c-103.333 0 -174.501 16.1689 -213.501 48.502s-60.833 93.166 -65.5 182.499l100 10c4.66699 -63.333 18.167 -104.333 40.5 -123s68.833 -28 139.5 -28c60.667 0 104.167 11.333 130.5 34s39.5 56.667 39.5 102v48c0 48 -10.667 82.667 -32 104
s-55.666 32 -102.999 32h-285v400h480v-90h-380v-215h185c79.333 0 138.333 -18.333 177 -55s58 -92.334 58 -167.001v-67c0 -66 -23.333 -118.5 -70 -157.5s-113.667 -58.5 -201 -58.5z" />
    <glyph glyph-name="six" unicode="6" 
d="M350 -10c-94 0 -162.499 25.833 -205.499 77.5s-64.5 121.167 -64.5 208.5v243c0 93.333 23.5 165.166 70.5 215.499s114.167 75.5 201.5 75.5c79.333 0 139 -14.5 179 -43.5s66.667 -75.833 80 -140.5l-109 -23c-8.66699 40.667 -22.667 70.334 -42 89.001
s-56 28 -110 28c-61.333 0 -105 -15.5 -131 -46.5s-39 -82.5 -39 -154.5v-96h20c18 24 40.833 42.667 68.5 56s64.5 20 110.5 20c80 0 140.167 -22 180.5 -66s60.5 -101 60.5 -171v-22c0 -80.667 -23.333 -142.5 -70 -185.5s-113.334 -64.5 -200.001 -64.5zM349.001 80
c58 0 100.667 12.833 128 38.5s41 65.5 41 119.5v13c0 54 -13.667 93.833 -41 119.5s-70 38.5 -128 38.5s-100.667 -12.833 -128 -38.5s-41 -65.5 -41 -119.5v-13c0 -54 13.667 -93.833 41 -119.5s70 -38.5 128 -38.5z" />
    <glyph glyph-name="seven" unicode="7" 
d="M250 0c36 164.667 70.5 293.831 103.5 387.498s88.5 197.834 166.5 312.501h-440v100h540v-100c-76 -124.667 -132.333 -237.167 -169 -337.5s-67 -221.166 -91 -362.499h-110z" />
    <glyph glyph-name="eight" unicode="8" 
d="M350 -10c-94.667 0 -163.332 17.166 -205.999 51.499s-64 89.5 -64 165.5v22c0 50 13.833 91 41.5 123s66.167 50.333 115.5 55v29c-38.667 3.33301 -71.167 18.333 -97.5 45s-39.5 61.667 -39.5 105v32c0 67.333 19.833 116.166 59.5 146.499s103.167 45.5 190.5 45.5
s150.833 -15.167 190.5 -45.5s59.5 -79.166 59.5 -146.499v-32c0 -43.333 -13.167 -78.333 -39.5 -105s-58.833 -41.667 -97.5 -45v-29c49.333 -4.66699 87.833 -23.167 115.5 -55.5s41.5 -73.166 41.5 -122.499v-22c0 -76 -21.333 -131.167 -64 -165.5
s-111.334 -51.5 -206.001 -51.5zM350.002 464.999c56 0 95 8.5 117 25.5s33 47.167 33 90.5v27c0 42 -11 71.5 -33 88.5s-61 25.5 -117 25.5s-95 -8.5 -117 -25.5s-33 -46.5 -33 -88.5v-27c0 -43.333 11 -73.5 33 -90.5s61 -25.5 117 -25.5zM350.002 77.999
c63.333 0 107.5 10.167 132.5 30.5s37.5 56.5 37.5 108.5v17c0 52.667 -12.5 89.334 -37.5 110.001s-69.167 31 -132.5 31s-107.5 -10.333 -132.5 -31s-37.5 -57.334 -37.5 -110.001v-17c0 -52 12.5 -88.167 37.5 -108.5s69.167 -30.5 132.5 -30.5z" />
    <glyph glyph-name="nine" unicode="9" 
d="M351 391c56.667 0 99 13 127 39s42 65.667 42 119v13c0 53.333 -14 93 -42 119s-70.333 39 -127 39s-99 -13 -127 -39s-42 -65.667 -42 -119v-13c0 -53.333 14 -93 42 -119s70.333 -39 127 -39zM348 -10c-79.333 0 -139.001 14.502 -179.001 43.502
s-66.667 75.833 -80 140.5l109 23c10 -44.667 25.667 -75.334 47 -92.001s56.333 -25 105 -25c60 0 103.333 15.667 130 47s40 82.666 40 153.999v96h-20c-18.667 -26 -43 -45.167 -73 -57.5s-66.667 -18.5 -110 -18.5c-78 0 -137 22 -177 66s-60 101 -60 171v22
c0 80.667 23.333 142.5 70 185.5s113.334 64.5 200.001 64.5c94 0 162.5 -25.833 205.5 -77.5s64.5 -121.167 64.5 -208.5v-243c0 -88 -21.667 -158.5 -65 -211.5s-112.333 -79.5 -207 -79.5z" />
    <glyph glyph-name="colon" unicode=":" 
d="M351 390c-33.333 0 -60.3311 6.83301 -80.998 20.5s-31 34.834 -31 63.501v48c0 29.333 10.333 51 31 65s47.667 21 81 21s60.166 -7 80.499 -21s30.5 -35.667 30.5 -65v-48c0 -28.667 -10.333 -49.834 -31 -63.501s-47.334 -20.5 -80.001 -20.5zM351.002 -10
c-33.333 0 -60.3311 6.83301 -80.998 20.5s-31 34.834 -31 63.501v48c0 29.333 10.333 51 31 65s47.667 21 81 21s60.166 -7 80.499 -21s30.5 -35.667 30.5 -65v-48c0 -28.667 -10.333 -49.834 -31 -63.501s-47.334 -20.5 -80.001 -20.5z" />
    <glyph glyph-name="semicolon" unicode=";" 
d="M351 390c-33.333 0 -60.3311 6.83301 -80.998 20.5s-31 34.834 -31 63.501v48c0 29.333 10.333 51 31 65s47.667 21 81 21s60.166 -7 80.499 -21s30.5 -35.667 30.5 -65v-48c0 -28.667 -10.333 -49.834 -31 -63.501s-47.334 -20.5 -80.001 -20.5zM200.002 -200l90 400
h199l-205 -400h-84z" />
    <glyph glyph-name="less" unicode="&#x3c;" 
d="M600 20l-500 280v100l500 280v-95l-420 -235l420 -235v-95z" />
    <glyph glyph-name="equal" unicode="=" 
d="M70 440v100h560v-100h-560zM70 160v100h560v-100h-560z" />
    <glyph glyph-name="greater" unicode="&#x3e;" 
d="M100 20v95l420 235l-420 235v95l500 -280v-100z" />
    <glyph glyph-name="question" unicode="?" 
d="M270 313l-20 81.001c116 18.667 193.333 39.667 232 63s58 55 58 95v30c0 39.333 -11.833 72.166 -35.5 98.499s-75.167 39.5 -154.5 39.5c-84.667 0 -138 -12.667 -160 -38s-35.333 -69.666 -40 -132.999l-100 10c4.66699 93.333 28.334 158.5 71.001 195.5
s118.667 55.5 228 55.5s185.166 -20.833 227.499 -62.5s63.5 -92.834 63.5 -153.501v-46c0 -73.333 -30 -125.833 -90 -157.5s-153.333 -57.5 -280 -77.5zM305 -9.99902c-33.333 0 -57.666 6.83301 -72.999 20.5s-23 34.834 -23 63.501v28c0 29.333 7.66699 51 23 65
s39.666 21 72.999 21s57.833 -7 73.5 -21s23.5 -35.667 23.5 -65v-28c0 -28.667 -8 -49.834 -24 -63.501s-40.333 -20.5 -73 -20.5z" />
    <glyph glyph-name="at" unicode="@" 
d="M408 -110c-106.667 0 -186.332 29.001 -238.999 87.001s-79 135.333 -79 232v298c0 91.333 22.333 164.666 67 219.999s112 83 202 83c80.667 0 142.667 -26.667 186 -80s65 -124.333 65 -213v-244c-4 -56 -20 -97.167 -48 -123.5s-68.667 -39.5 -122 -39.5
c-58 0 -100.833 15.167 -128.5 45.5s-41.5 72.5 -41.5 126.5v122c0 53.333 13.5 96 40.5 128s60.5 48 100.5 48c22.667 0 41 -5.5 55 -16.5s24.667 -23.833 32 -38.5h30c-1.33301 67.333 -15.666 119.5 -42.999 156.5s-69.666 55.5 -126.999 55.5
c-67.333 0 -115.5 -20.167 -144.5 -60.5s-43.5 -96.833 -43.5 -169.5v-298c0 -77.333 18.333 -137.333 55 -180s97.667 -64 183 -64c35.333 0 68.166 2.16699 98.499 6.5s58.166 10.5 83.499 18.5v-75c-24.667 -6.66699 -53.334 -12.5 -86.001 -17.5s-64.667 -7.5 -96 -7.5z
M440.002 190.001c26.667 0 47.3359 6.16797 62.0029 18.501s22 37.5 22 75.5v112c0 36.667 -7.83301 63.167 -23.5 79.5s-35.834 24.5 -60.501 24.5c-26.667 0 -47.334 -8.16699 -62.001 -24.5s-22 -43.5 -22 -81.5v-102c0 -36.667 7.16699 -62.834 21.5 -78.501
s35.166 -23.5 62.499 -23.5z" />
    <glyph glyph-name="A" unicode="A" 
d="M459 320l-110 367l-111 -367h221zM555 0l-69 230h-275l-69 -230h-102l258 800h105l258 -800h-106z" />
    <glyph glyph-name="B" unicode="B" 
d="M100 0l0.000976562 799.999h248c83.333 0 144.833 -15.333 184.5 -46s59.5 -78 59.5 -142v-45c0 -34 -9.66699 -62.5 -29 -85.5s-46 -37.5 -80 -43.5v-29c43.333 -4 77.666 -20.333 102.999 -49s38 -65.667 38 -111v-45c0 -69.333 -22 -120.666 -66 -153.999
s-111.667 -50 -203 -50h-255zM200.001 459.999l158 -0.00195312c47.333 0 81.833 8.83301 103.5 26.5s32.5 45.834 32.5 84.501v28c0 38.667 -10.833 66.834 -32.5 84.501s-56.167 26.5 -103.5 26.5h-158v-250zM200.001 89.9971h178c50.667 0 87.667 9.83301 111 29.5
s35 51.5 35 95.5v32c0 44 -11.667 75.833 -35 95.5s-60.333 29.5 -111 29.5h-178v-282z" />
    <glyph glyph-name="C" unicode="C" 
d="M360 -10c-93.333 0 -163.333 23.832 -210 71.499s-70 119.5 -70 215.5v242c0 97.333 23.333 170.166 70 218.499s117 72.5 211 72.5c92 0 160.167 -21.5 204.5 -64.5s69.166 -111.833 74.499 -206.5l-100 -10c-6.66699 72 -22.834 121.833 -48.501 149.5
s-69.5 41.5 -131.5 41.5c-66 0 -112.5 -15.167 -139.5 -45.5s-40.5 -82.166 -40.5 -155.499v-242c0 -72 13.5 -122.833 40.5 -152.5s73.5 -44.5 139.5 -44.5c62 0 105.833 13.5 131.5 40.5s41.834 75.833 48.501 146.5l100 -10
c-5.33301 -93.333 -30.166 -161.166 -74.499 -203.499s-112.833 -63.5 -205.5 -63.5z" />
    <glyph glyph-name="D" unicode="D" 
d="M100 0l-0.000976562 800h221c93.333 0 166.5 -26.5 219.5 -79.5s79.5 -123.5 79.5 -211.5v-222c0 -87.333 -26.667 -157 -80 -209s-126.666 -78 -219.999 -78h-220zM199.999 90h120c67.333 0 117.5 18.167 150.5 54.5s49.5 83.833 49.5 142.5v222
c0 58 -16.5 106 -49.5 144s-83.167 57 -150.5 57h-120v-620z" />
    <glyph glyph-name="E" unicode="E" 
d="M100 0v800h520v-90h-420v-230h370v-90h-370v-300h420v-90h-520z" />
    <glyph glyph-name="F" unicode="F" 
d="M100 0v800h520v-90h-420v-310h350v-90h-350v-310h-100z" />
    <glyph glyph-name="G" unicode="G" 
d="M370 -10c-93.333 0 -164.998 24.834 -214.998 74.501s-75 120.5 -75 212.5v242c0 93.333 24.333 165.166 73 215.499s118 75.5 208 75.5c82 0 144.5 -20.667 187.5 -62s66.833 -104.333 71.5 -189l-100 -10c-5.33301 62 -20.333 106 -45 132s-63 39 -115 39
c-64.667 0 -110.834 -15.5 -138.501 -46.5s-41.5 -82.5 -41.5 -154.5v-242c0 -71.333 14.667 -122 44 -152s78 -45 146 -45c61.333 0 105 17.167 131 51.5s39 92.166 39 173.499h-190v90h290v-108c0 -95.333 -23.333 -168.666 -70 -219.999s-113.334 -77 -200.001 -77z" />
    <glyph glyph-name="H" unicode="H" 
d="M100 0v800h100v-320h300v320h100v-800h-100v390h-300v-390h-100z" />
    <glyph glyph-name="I" unicode="I" 
d="M100 0v90h200v620h-200v90h500v-90h-200v-620h200v-90h-500z" />
    <glyph glyph-name="J" unicode="J" 
d="M329 -10c-87.333 0 -152.832 21.667 -196.499 65s-67.834 110.666 -72.501 201.999l100 11c4.66699 -74.667 18.667 -124.667 42 -150s66 -38 128 -38c57.333 0 100 14.833 128 44.5s42 74.5 42 134.5v451h-200v90h300v-540c0 -87.333 -23.167 -154.166 -69.5 -200.499
s-113.5 -69.5 -201.5 -69.5z" />
    <glyph glyph-name="K" unicode="K" 
d="M200 380v-380h-100v800h100v-330h34l309 330h116l-343 -368l340 -432h-120l-299 380h-37z" />
    <glyph glyph-name="L" unicode="L" 
d="M150 0v800h100v-710h350v-90h-450z" />
    <glyph glyph-name="M" unicode="M" 
d="M302 200l-142 439v-639h-90v800h135l148 -481l147 481h130v-800h-90v640l-142 -440h-96z" />
    <glyph glyph-name="N" unicode="N" 
d="M457 0l-267 674v-674h-90v800h137l273 -689v689h90v-800h-143z" />
    <glyph glyph-name="O" unicode="O" 
d="M350 -10c-88 0 -155 24.5 -201 73.5s-69 120.167 -69 213.5v242c0 94.667 23.167 166.834 69.5 216.501s113.5 74.5 201.5 74.5c87.333 0 154 -24.833 200 -74.5s69 -121.834 69 -216.501v-242c0 -93.333 -23 -164.5 -69 -213.5s-113 -73.5 -201 -73.5zM350 80
c61.333 0 105 15 131 45s39 80.667 39 152v242c0 72.667 -13 124.334 -39 155.001s-69.667 46 -131 46s-105 -15.333 -131 -46s-39 -82.334 -39 -155.001v-242c0 -71.333 13 -122 39 -152s69.667 -45 131 -45z" />
    <glyph glyph-name="P" unicode="P" 
d="M100 0l0.000976562 800h281c83.333 0 145.666 -17.5 186.999 -52.5s62 -87.833 62 -158.5v-98c0 -70.667 -20.833 -123.5 -62.5 -158.5s-104.167 -52.5 -187.5 -52.5h-180v-280h-100zM200.001 368h180c54 0 92.5 9.5 115.5 28.5s34.5 51.167 34.5 96.5v92
c0 45.333 -11.5 77.5 -34.5 96.5s-61.5 28.5 -115.5 28.5h-180v-342z" />
    <glyph glyph-name="Q" unicode="Q" 
d="M650 -191c-98.667 -21.333 -174.5 -16.5 -227.5 14.5s-80.5 86.5 -82.5 166.5c-85.333 2 -150 27.333 -194 76s-66 119 -66 211v242c0 95.333 22.833 167.666 68.5 216.999s113.167 74 202.5 74c88.667 0 155.667 -24.667 201 -74s68 -121.666 68 -216.999v-242
c0 -76.667 -15.167 -138.334 -45.5 -185.001s-75.166 -77.334 -134.499 -92.001c1.33301 -47.333 17.666 -79.166 48.999 -95.499s80 -18.166 146 -5.49902zM350 90c61.333 0 105 14.333 131 43s39 76.667 39 144v242c0 68.667 -13 117.667 -39 147s-69.667 44 -131 44
s-105 -14.667 -131 -44s-39 -78.333 -39 -147v-242c0 -67.333 13 -115.333 39 -144s69.667 -43 131 -43z" />
    <glyph glyph-name="R" unicode="R" 
d="M200 398l200 -0.000976562c54 0 92.5 9.83301 115.5 29.5s34.5 52.834 34.5 99.501v62c0 44 -11.5 75.167 -34.5 93.5s-61.5 27.5 -115.5 27.5h-200v-312zM200 -0.000976562h-99.999v800h301c83.333 0 145.666 -17.5 186.999 -52.5s62 -87.833 62 -158.5v-62
c0 -64 -16.167 -114 -48.5 -150s-81.5 -57.333 -147.5 -64l205 -313h-114l-203 310h-142v-310z" />
    <glyph glyph-name="S" unicode="S" 
d="M363 -6c-60 0 -116 9.66797 -168 29.001s-98.667 54.666 -140 105.999l72 68c28 -38 61.5 -66.333 100.5 -85s85.167 -28 138.5 -28c49.333 0 89.166 11.5 119.499 34.5s45.5 54.167 45.5 93.5c0 38 -13 67.167 -39 87.5s-77.333 41.833 -154 64.5
c-97.333 28 -163.666 58.333 -198.999 91s-53 79 -53 139c0 69.333 23.167 121.666 69.5 156.999s102.5 53 168.5 53c56 0 109.167 -9.83301 159.5 -29.5s94.833 -54.5 133.5 -104.5l-69 -69c-26.667 38 -60 66.333 -100 85s-80.667 28 -122 28
c-42 0 -75.667 -8.5 -101 -25.5s-38 -45.5 -38 -85.5c0 -35.333 13.833 -63.166 41.5 -83.499s82.167 -42.166 163.5 -65.499c92 -26.667 154.833 -55.834 188.5 -87.501s50.5 -77.5 50.5 -137.5c0 -76.667 -27.333 -135 -82 -175s-116.667 -60 -186 -60z" />
    <glyph glyph-name="T" unicode="T" 
d="M300 0v710h-250v90h600v-90h-250v-710h-100z" />
    <glyph glyph-name="U" unicode="U" 
d="M350 -10c-83.333 0 -145.833 23.833 -187.5 71.5s-62.5 119.5 -62.5 215.5v523h100v-523c0 -71.333 11.5 -122 34.5 -152s61.5 -45 115.5 -45s92.5 15 115.5 45s34.5 80.667 34.5 152v523h100v-523c0 -96 -20.833 -167.833 -62.5 -215.5s-104.167 -71.5 -187.5 -71.5z
" />
    <glyph glyph-name="V" unicode="V" 
d="M403 0h-105l-258 800h108l204 -673l204 673h105z" />
    <glyph glyph-name="W" unicode="W" 
d="M468 0l-118 477l-118 -477h-100l-108 800h99l72 -653l105 453h105l105 -453l72 653h94l-108 -800h-100z" />
    <glyph glyph-name="X" unicode="X" 
d="M564 0l-213 328l-214 -328h-117l279 408l-254 392h115l202 -312l204 312h116l-268 -391l265 -409h-115z" />
    <glyph glyph-name="Y" unicode="Y" 
d="M400 0h-100v300l-286 500h112l230 -410l219 410h110l-285 -500v-300z" />
    <glyph glyph-name="Z" unicode="Z" 
d="M620 0h-540v90l420 620h-420v90h540v-90l-421 -620h421v-90z" />
    <glyph glyph-name="bracketleft" unicode="[" 
d="M200 -200v1000h350v-90h-250v-832h250v-78h-350z" />
    <glyph glyph-name="backslash" unicode="\" 
d="M500 -200l-400 1000h100l400 -1000h-100z" />
    <glyph glyph-name="bracketright" unicode="]" 
d="M150 -200v78h250v832h-250v90h350v-1000h-350z" />
    <glyph glyph-name="asciicircum" unicode="^" 
d="M565 200l-214 494l-206 -494h-95l250 600h100l260 -600h-95z" />
    <glyph glyph-name="underscore" unicode="_" 
d="M70 -200v100h560v-100h-560z" />
    <glyph glyph-name="grave" unicode="`" 
d="M395 400l-225 400h199l110 -400h-84z" />
    <glyph glyph-name="a" unicode="a" 
d="M278 76c34.667 0 66.6689 6.16699 96.002 18.5s54.666 33.833 75.999 64.5v96h-180c-28.667 0 -52.5 -6.5 -71.5 -19.5s-28.5 -35.833 -28.5 -68.5c0 -28.667 8.16699 -51 24.5 -67s44.166 -24 83.499 -24zM265.002 -10c-50.667 0 -95.8359 13.5 -135.503 40.5
s-59.5 70.5 -59.5 130.5c0 52.667 17.167 94 51.5 124s74.5 45 120.5 45h208v86c0 32 -10.667 57.333 -32 76s-53.666 28 -96.999 28c-44 0 -76.833 -6.5 -98.5 -19.5s-38.834 -41.833 -51.501 -86.5l-88 24c11.333 56.667 36.833 99.5 76.5 128.5s92.834 43.5 159.501 43.5
c66 0 121 -14.833 165 -44.5s66 -75.5 66 -137.5v-268c0 -36 10 -58.5 30 -67.5s50 -10.167 90 -3.5v-92c-41.333 -6 -80.166 -3.16699 -116.499 8.5s-56.166 43.167 -59.499 94.5h-20c-18.667 -30.667 -46.667 -56.667 -84 -78s-79 -32 -125 -32z" />
    <glyph glyph-name="b" unicode="b" 
d="M342 -10c-40 0 -81.334 6 -124.001 18s-82 29.333 -118 52v740h100v-300h30c17.333 34.667 41.333 61.667 72 81s65 29 103 29c62 0 110 -20 144 -60s51 -96 51 -168v-163c0 -72.667 -22.667 -129 -68 -169s-108.666 -60 -189.999 -60zM340.999 78
c54 0 94 11.832 120 35.499s39 59.5 39 107.5v160c0 45.333 -10 79 -30 101s-50 33 -90 33c-32.667 0 -63.667 -8.66699 -93 -26s-58.333 -43.666 -87 -78.999v-294c21.333 -12.667 43.5 -22.167 66.5 -28.5s47.833 -9.5 74.5 -9.5z" />
    <glyph glyph-name="c" unicode="c" 
d="M364 -10c-87.333 0 -153.166 19.166 -197.499 57.499s-66.5 94.833 -66.5 169.5v162c0 76 22.167 133.5 66.5 172.5s109.833 58.5 196.5 58.5c77.333 0 136.833 -17.5 178.5 -52.5s64.834 -86.167 69.501 -153.5l-98 -6c-2.66699 41.333 -16.334 72 -41.001 92
s-61.334 30 -110.001 30c-54.667 0 -95.334 -11.5 -122.001 -34.5s-40 -58.5 -40 -106.5v-162c0 -46 13.5 -80.333 40.5 -103s68.167 -34 123.5 -34c48 0 84.333 8.5 109 25.5s38 42.5 40 76.5l98 -6c-4.66699 -61.333 -27.667 -107.666 -69 -138.999
s-100.666 -47 -177.999 -47z" />
    <glyph glyph-name="d" unicode="d" 
d="M320 85c32.667 0 63.667 8.66797 93 26.001s58.333 43.666 87 78.999v294c-20.667 12.667 -42.667 22.167 -66 28.5s-48.333 9.5 -75 9.5c-54 0 -94 -11.833 -120 -35.5s-39 -59.5 -39 -107.5v-161c0 -44.667 10 -78 30 -100s50 -33 90 -33zM470 100.001
c-17.333 -34.667 -41.332 -61.667 -71.999 -81s-65 -29 -103 -29c-62 0 -110 20 -144 60s-51 96 -51 168v163c0 72.667 22.667 129 68 169s108.666 60 189.999 60c23.333 0 47.333 -2.5 72 -7.5s48 -11.833 70 -20.5v218h100v-800h-100v100h-30z" />
    <glyph glyph-name="e" unicode="e" 
d="M602 132c-18 -50 -45.332 -86.165 -81.999 -108.498s-93 -33.5 -169 -33.5c-79.333 0 -141 19.167 -185 57.5s-66 95.166 -66 170.499v161c0 77.333 23.167 135.166 69.5 173.499s106.833 57.5 181.5 57.5c75.333 0 135.666 -19.5 180.999 -58.5s68 -98.833 68 -179.5
v-92h-400v-63c0 -50 12.5 -86.167 37.5 -108.5s62.5 -33.5 112.5 -33.5c48 0 83 6.66699 105 20s38.667 35 50 65zM200.001 379.002v-24h300v15c0 54 -12.5 93.333 -37.5 118s-62.5 37 -112.5 37s-87.5 -11.833 -112.5 -35.5s-37.5 -60.5 -37.5 -110.5z" />
    <glyph glyph-name="f" unicode="f" 
d="M250 0l0.000976562 510h-170v90h170v40c0 54 21.167 95.833 63.5 125.5s94.833 44.5 157.5 44.5c30.667 0 58.167 -2.66699 82.5 -8s46.166 -11.333 65.499 -18l-20 -84c-14.667 4.66699 -32.5 9.16699 -53.5 13.5s-45.833 6.5 -74.5 6.5
c-36.667 0 -66 -6.16699 -88 -18.5s-33 -32.5 -33 -60.5v-41h250v-90h-250v-510h-100z" />
    <glyph glyph-name="g" unicode="g" 
d="M650 -48c0 -54 -19.834 -94.5 -59.501 -121.5s-88.167 -40.5 -145.5 -40.5h-188c-60 0 -109.5 12 -148.5 36s-58.5 61 -58.5 111c0 32 8.5 57.5 25.5 76.5s41.833 29.833 74.5 32.5v21c-23.333 4 -42.5 13.667 -57.5 29s-22.5 39 -22.5 71c0 28.667 9 54.5 27 77.5
s48.333 36.167 91 39.5v19c-32.667 10.667 -54.667 26.834 -66 48.501s-17 42.5 -17 62.5v27c0 46 19.667 84 59 114s94.666 45 165.999 45h295v-90l-155 23v-18c26.667 -7.33301 46.834 -21.333 60.501 -42s20.5 -41.334 20.5 -62.001v-26
c0 -46 -17.667 -83.167 -53 -111.5s-92.666 -42.5 -171.999 -42.5h-121c-18 0 -31.667 -4.5 -41 -13.5s-14 -24.167 -14 -45.5c0 -20.667 6.5 -36.167 19.5 -46.5s32.5 -15.5 58.5 -15.5h227c56 0 102.5 -12.333 139.5 -37s55.5 -65 55.5 -121zM329.999 307
c40.667 0 71.667 7.33301 93 22s32 37.667 32 69v32c0 31.333 -10.667 54.166 -32 68.499s-52.333 21.5 -93 21.5s-71.667 -7.16699 -93 -21.5s-32 -37.166 -32 -68.499v-32c0 -31.333 10.667 -54.333 32 -69s52.333 -22 93 -22zM254.999 -130h203
c30 0 54.333 5.66699 73 17s28 31 28 59c0 26.667 -8.5 45.667 -25.5 57s-38.833 17 -65.5 17h-318v-68c0 -27.333 9 -47.833 27 -61.5s44 -20.5 78 -20.5z" />
    <glyph glyph-name="h" unicode="h" 
d="M100 0v800.001h100v-300h30c14.667 34 37.667 60.833 69 80.5s67 29.5 107 29.5c60 0 107.333 -18.333 142 -55s52 -86.334 52 -149.001v-406h-100v385c0 42 -10.167 74.167 -30.5 96.5s-49.5 33.5 -87.5 33.5c-30 0 -60.5 -9 -91.5 -27s-61.167 -44 -90.5 -78v-410h-100
z" />
    <glyph glyph-name="i" unicode="i" 
d="M100 0v90h200v420h-200v90h300v-510h200v-90h-500zM350 710c-25.333 0 -45.833 4 -61.5 12s-23.5 23 -23.5 45v7c0 22.667 7.83301 38.167 23.5 46.5s36.167 12.5 61.5 12.5s45.833 -4.16699 61.5 -12.5s23.5 -23.833 23.5 -46.5v-7c0 -22 -8 -37 -24 -45
s-36.333 -12 -61 -12z" />
    <glyph glyph-name="j" unicode="j" 
d="M258 -208c-25.333 0 -50.668 1.5 -76.001 4.5s-52.333 8.83301 -81 17.5l20 96c24.667 -8.66699 47.834 -14.5 69.501 -17.5s43.167 -4.5 64.5 -4.5c43.333 0 78.333 9.16699 105 27.5s40 48.833 40 91.5v503h-280v90h380v-606c0 -68.667 -23.167 -119.5 -69.5 -152.5
s-103.833 -49.5 -172.5 -49.5zM446.998 710c-25.333 0 -45.833 4 -61.5 12s-23.5 23 -23.5 45v7c0 22.667 7.83301 38.167 23.5 46.5s36.167 12.5 61.5 12.5s45.833 -4.16699 61.5 -12.5s23.5 -23.833 23.5 -46.5v-7c0 -22 -8 -37 -24 -45s-36.333 -12 -61 -12z" />
    <glyph glyph-name="k" unicode="k" 
d="M250 273v-273h-100v800h100v-443h51l192 243h122l-235 -279l232 -321h-114l-197 273h-51z" />
    <glyph glyph-name="l" unicode="l" 
d="M100 0v90h200v620h-200v90h300v-710h200v-90h-500z" />
    <glyph glyph-name="m" unicode="m" 
d="M152 430l-0.00390625 -429.998h-92v600h92v-80h20c12.667 28 29.334 50 50.001 66s42.334 24 65.001 24c26 0 47.833 -7.83301 65.5 -23.5s29.834 -37.834 36.501 -66.501h22c12.667 28 29.834 50 51.501 66s44.834 24 69.501 24c33.333 0 59.666 -13.5 78.999 -40.5
s29 -63.5 29 -109.5v-460h-92v444c0 30 -4 52.667 -12 68s-19.667 23 -35 23c-12.667 0 -28.5 -9.33301 -47.5 -28s-38.167 -44.334 -57.5 -77.001v-430h-92v444c0 30 -4.16699 52.667 -12.5 68s-20.166 23 -35.499 23c-13.333 0 -28.833 -9 -46.5 -27
s-36.834 -44 -57.501 -78z" />
    <glyph glyph-name="n" unicode="n" 
d="M100 0v600h100v-100h30c14.667 34 37.667 60.833 69 80.5s67 29.5 107 29.5c60 0 107.333 -18.333 142 -55s52 -86.667 52 -150v-405h-100v385c0 42 -10.167 74.167 -30.5 96.5s-49.5 33.5 -87.5 33.5c-30 0 -60.5 -9 -91.5 -27s-61.167 -44 -90.5 -78v-410h-100z" />
    <glyph glyph-name="o" unicode="o" 
d="M350 -10c-80.667 0 -142.5 19.5 -185.5 58.5s-64.5 95.167 -64.5 168.5v162c0 74 21.667 131 65 171s105.333 60 186 60c80 0 141.5 -20 184.5 -60s64.5 -97 64.5 -171v-162c0 -73.333 -21.5 -129.5 -64.5 -168.5s-104.833 -58.5 -185.5 -58.5zM350 80
c50.667 0 88.334 11.333 113.001 34s37 57 37 103v162c0 48 -12.333 83.5 -37 106.5s-62.334 34.5 -113.001 34.5s-88.334 -11.5 -113.001 -34.5s-37 -58.5 -37 -106.5v-162c0 -46 12.333 -80.333 37 -103s62.334 -34 113.001 -34z" />
    <glyph glyph-name="p" unicode="p" 
d="M341 78c56 0 96.5 11.334 121.5 34.001s37.5 59 37.5 109v162c0 46 -9.5 79.5 -28.5 100.5s-49.5 31.5 -91.5 31.5c-33.333 0 -64.333 -8.33301 -93 -25s-57.667 -43.334 -87 -80.001v-294c20.667 -12.667 42.167 -22.167 64.5 -28.5s47.833 -9.5 76.5 -9.5z
M342 -9.99902c-22.667 0 -46.5029 2.5 -71.5029 7.5s-48.5 11.833 -70.5 20.5v-218h-100v800h100v-100h30c16.667 34 40.834 60.833 72.501 80.5s65.834 29.5 102.501 29.5c60 0 107.5 -20.5 142.5 -61.5s52.5 -96.5 52.5 -166.5v-163
c0 -70.667 -23.167 -126.5 -69.5 -167.5s-109.166 -61.5 -188.499 -61.5z" />
    <glyph glyph-name="q" unicode="q" 
d="M500 -200v300.001h-30c-18 -36 -42 -63.333 -72 -82s-64.333 -28 -103 -28c-63.333 0 -111.666 19.667 -144.999 59s-50 95.666 -50 168.999v163c0 74 24.667 130.667 74 170s110.666 59 183.999 59c44 0 86.667 -5.33301 128 -16s79.333 -26 114 -46v-748h-100z
M320 85.001c32.667 0 63.666 8.5 92.999 25.5s58.333 43.5 87 79.5v294c-22.667 12.667 -45.5 22.167 -68.5 28.5s-47.167 9.5 -72.5 9.5c-44 0 -81.5 -11.667 -112.5 -35s-46.5 -59.333 -46.5 -108v-151c0 -48.667 9.83301 -84.667 29.5 -108s49.834 -35 90.501 -35z" />
    <glyph glyph-name="r" unicode="r" 
d="M150 0l-0.000976562 600h100v-100h30c14 38 35.333 65.833 64 83.5s63.334 26.5 104.001 26.5c44.667 0 82 -14.833 112 -44.5s45 -71.5 45 -125.5v-90h-95v54c0 38 -8.5 66 -25.5 84s-42.833 27 -77.5 27c-31.333 0 -59.833 -7.66699 -85.5 -23s-49.5 -39.333 -71.5 -72
v-420h-100z" />
    <glyph glyph-name="s" unicode="s" 
d="M358 -10c-50.667 0 -99.666 7.49707 -146.999 22.4971s-91 38.167 -131 69.5l45 79c32.667 -26.667 69.167 -46.834 109.5 -60.501s81.5 -20.5 123.5 -20.5c34.667 0 67.834 5.33301 99.501 16s47.5 33.334 47.5 68.001c0 28.667 -13 49 -39 61s-73.667 22.333 -143 31
c-73.333 8.66699 -128.833 25.834 -166.5 51.501s-56.5 66.167 -56.5 121.5c0 60 22.667 105.167 68 135.5s98 45.5 158 45.5c47.333 0 92.833 -8 136.5 -24s84.167 -38.667 121.5 -68l-45 -79c-30.667 24.667 -64 44.334 -100 59.001s-73.667 22 -113 22
c-32 0 -61.167 -6 -87.5 -18s-39.5 -34 -39.5 -66c0 -27.333 12.167 -47.166 36.5 -59.499s71.166 -22.833 140.499 -31.5c76 -8.66699 133 -27.167 171 -55.5s57 -67.833 57 -118.5c0 -62.667 -25.333 -108.5 -76 -137.5s-107.334 -43.5 -170.001 -43.5z" />
    <glyph glyph-name="t" unicode="t" 
d="M449 -9c-66 0 -117.331 16.334 -153.998 49.001s-55 82.667 -55 150v320h-170v90h170v200h100v-200h260v-90h-260v-311c0 -38.667 9.66699 -67.334 29 -86.001s48 -28 86 -28c25.333 0 49 1.83301 71 5.5s43 8.5 63 14.5l20 -91
c-22.667 -6.66699 -46.834 -12.167 -72.501 -16.5s-54.834 -6.5 -87.501 -6.5z" />
    <glyph glyph-name="u" unicode="u" 
d="M294 -10c-58 0 -104.834 18.833 -140.501 56.5s-53.5 87.167 -53.5 148.5v405h100v-385c0 -44 9.66699 -76.667 29 -98s49 -32 89 -32c31.333 0 61.833 8.5 91.5 25.5s59.834 43.5 90.501 79.5v410h100v-600h-100v100h-30c-14 -32.667 -37.167 -59.167 -69.5 -79.5
s-67.833 -30.5 -106.5 -30.5z" />
    <glyph glyph-name="v" unicode="v" 
d="M412 0h-125l-213 600h109l168 -519l168 519h106z" />
    <glyph glyph-name="w" unicode="w" 
d="M438 0l-88 391l-84 -391h-114l-113 600h96l76 -527l78 427h118l85 -411l73 511h96l-113 -600h-110z" />
    <glyph glyph-name="x" unicode="x" 
d="M499 0l-155 229l-148 -229h-111l210 301l-203 299h112l149 -220l151 220h111l-212 -294l208 -306h-112z" />
    <glyph glyph-name="y" unicode="y" 
d="M172 -206c-16 0 -31.6689 1.00098 -47.002 3.00098s-31 4.66699 -47 8l17 89c17.333 -4 33.5 -7 48.5 -9s28.833 -3 41.5 -3c30.667 0 57.834 8.66699 81.501 26s41.834 45 54.501 83l3 9h-37l-213 600h109l169 -516l168 516h105l-220 -620
c-22.667 -64.667 -53.5 -111.834 -92.5 -141.501s-85.833 -44.5 -140.5 -44.5z" />
    <glyph glyph-name="z" unicode="z" 
d="M580 0h-460v90l337 420h-337v90h460v-90l-337 -420h337v-90z" />
    <glyph glyph-name="braceleft" unicode="{" 
d="M550 -210c-140 -2.66699 -241.668 9.82617 -305.001 37.4932s-95 70.5 -95 128.5c0 33.333 6.83301 61.333 20.5 84s28.5 42.334 44.5 59.001c16.667 16.667 31.667 32.334 45 47.001s20 30.334 20 47.001c0 31.333 -16.667 53.5 -50 66.5s-93.333 20.5 -180 22.5v60
c86.667 2 146.667 9.33301 180 22s50 34.334 50 65.001c0 16.667 -6.66699 30.834 -20 42.501l-45 39.5c-16 14.667 -30.833 32.334 -44.5 53.001s-20.5 48 -20.5 82c0 56.667 31.667 98.834 95 126.501s165 40.167 305 37.5v-90c-112.667 2 -190.834 -4 -234.501 -18
s-65.5 -36.667 -65.5 -68c0 -13.333 4.83301 -27 14.5 -41s26.834 -32.333 51.501 -55c24 -22 40.667 -40.833 50 -56.5s14 -32.834 14 -51.501c0 -37.333 -16.5 -65.5 -49.5 -84.5s-80.5 -29.833 -142.5 -32.5v-5c62 -6.66699 109.5 -20.667 142.5 -42
s49.5 -51.333 49.5 -90c0 -16.667 -5 -32.667 -15 -48s-27.667 -34.666 -53 -57.999c-23.333 -20 -39.5 -37.167 -48.5 -51.5s-13.5 -30.833 -13.5 -49.5c0 -33.333 21.833 -57.333 65.5 -72s121.834 -21 234.501 -19v-88z" />
    <glyph glyph-name="bar" unicode="|" 
d="M305 -200v1000h90v-1000h-90z" />
    <glyph glyph-name="braceright" unicode="}" 
d="M550 -44c0 -58 -31.668 -100.826 -95.001 -128.493s-165 -40.167 -305 -37.5v88c112.667 -2 190.834 4.33301 234.501 19s65.5 38.667 65.5 72c0 18.667 -4.5 35.167 -13.5 49.5s-25.167 31.5 -48.5 51.5c-25.333 23.333 -43 42.666 -53 57.999s-15 31.333 -15 48
c0 38.667 16.5 68.667 49.5 90s80.5 35.333 142.5 42v5c-62 2.66699 -109.5 13.5 -142.5 32.5s-49.5 47.167 -49.5 84.5c0 18.667 4.66699 35.834 14 51.501s26 34.5 50 56.5c24.667 22.667 41.834 41 51.501 55s14.5 27.667 14.5 41c0 31.333 -21.833 54 -65.5 68
s-121.834 20 -234.501 18v90c140 2.66699 241.667 -9.83301 305 -37.5s95 -69.834 95 -126.501c0 -34 -6.83301 -61.333 -20.5 -82s-28.5 -38.334 -44.5 -53.001l-45 -39.5c-13.333 -11.667 -20 -25.834 -20 -42.501c0 -30.667 16.667 -52.334 50 -65.001
s93.333 -20 180 -22v-60c-86.667 -2 -146.667 -9.5 -180 -22.5s-50 -35.167 -50 -66.5c0 -16.667 6.66699 -32.334 20 -47.001s28.333 -30.334 45 -47.001c16 -16.667 30.833 -36.334 44.5 -59.001s20.5 -50.667 20.5 -84z" />
    <glyph glyph-name="asciitilde" unicode="~" 
d="M481 210c-38 0 -69.167 11.167 -93.5 33.5s-49.5 63.833 -75.5 124.5c-20.667 48 -37.5 80.5 -50.5 97.5s-28.833 25.5 -47.5 25.5c-18 0 -33.167 -8.83301 -45.5 -26.5s-18.5 -48.167 -18.5 -91.5v-153h-90v159c0 68 15.167 120.167 45.5 156.5s67.5 54.5 111.5 54.5
c39.333 0 71.166 -11.333 95.499 -34s49.833 -65 76.5 -127c19.333 -46 35.5 -77.5 48.5 -94.5s29.167 -25.5 48.5 -25.5c18 0 33.167 8.83301 45.5 26.5s18.5 48.5 18.5 92.5v152h90v-159c0 -68 -15.167 -120.167 -45.5 -156.5s-68.166 -54.5 -113.499 -54.5z" />
    <glyph glyph-name="exclamdown" unicode="&#xa1;" 
d="M350 810c33.333 0 57.8311 -6.83301 73.498 -20.5s23.5 -34.834 23.5 -63.501v-28c0 -29.333 -7.83301 -51 -23.5 -65s-40.167 -21 -73.5 -21s-57.666 7 -72.999 21s-23 35.667 -23 65v28c0 28.667 7.83301 49.834 23.5 63.501s39.834 20.5 72.501 20.5zM390.998 500
l30 -500h-140l30 500h80z" />
    <glyph glyph-name="cent" unicode="&#xa2;" 
d="M200 317c0 -44 10.5 -76.667 31.5 -98s53.833 -34 98.5 -38v438c-44.667 -3.33301 -77.5 -15.833 -98.5 -37.5s-31.5 -54.5 -31.5 -98.5v-166zM320 -50v142.001c-78 6 -134.167 29 -168.5 69s-51.5 95.333 -51.5 166v150c0 69.333 17.333 123.833 52 163.5
s90.667 62.167 168 67.5v142h80v-141c69.333 -4.66699 120.666 -24.834 153.999 -60.501s52.333 -87.167 57 -154.5l-93 -6c-2.66699 48 -13.834 81.333 -33.501 100s-51.167 29 -94.5 31v-438c43.333 1.33301 74.833 10.5 94.5 27.5s30.834 48.167 33.501 93.5l93 -6
c-4.66699 -66 -23.667 -115.5 -57 -148.5s-84.666 -51.833 -153.999 -56.5v-141h-80z" />
    <glyph glyph-name="sterling" unicode="&#xa3;" 
d="M640 217c-4.66699 -74 -25.1709 -130.336 -61.5039 -169.003s-85.833 -58 -148.5 -58c-24.667 0 -48.334 6.16699 -71.001 18.5s-45 23.5 -67 33.5c-21.333 8.66699 -40.666 15.334 -57.999 20.001s-35.333 1 -54 -11l-92 -60l-57 74l82 50
c24 14.667 44.667 38.834 62 72.501s26 66.834 26 99.501c0 20.667 -2 38.834 -6 54.501s-9.33301 30.167 -16 43.5h-139v90h88c-8.66699 16 -15.667 33.667 -21 53s-8 42.333 -8 69c0 64 20.833 115.5 62.5 154.5s101.834 58.5 180.501 58.5
c84.667 0 147.667 -17.5 189 -52.5s64.333 -91.167 69 -168.5l-100 -10c-4.66699 53.333 -18.5 90.166 -41.5 110.499s-61.833 30.5 -116.5 30.5c-50 0 -86.167 -10 -108.5 -30s-33.5 -51.667 -33.5 -95c0 -24.667 3.83301 -46.5 11.5 -65.5s16.834 -37.167 27.501 -54.5
h201v-90h-153c4.66699 -12.667 8.5 -26.5 11.5 -41.5s4.5 -31.167 4.5 -48.5c0 -22.667 -5.5 -48 -16.5 -76s-35.5 -55.333 -73.5 -82l12 -17c18.667 12 36.334 17.333 53.001 16s34 -5 52 -11c18.667 -6 36.5 -13.667 53.5 -23s35.167 -14 54.5 -14
c34 0 58.333 9.83301 73 29.5s24.334 56.167 29.001 109.5z" />
    <glyph glyph-name="currency" unicode="&#xa4;" 
d="M350 180c40 0 70 10.667 90 32s30 56.333 30 105v162c0 48 -10 83.5 -30 106.5s-50 34.5 -90 34.5s-70 -11.5 -90 -34.5s-30 -58.5 -30 -106.5v-162c0 -48.667 10 -83.667 30 -105s50 -32 90 -32zM350 90c-32.667 0 -62.6689 4.5 -90.002 13.5s-50.333 22.833 -69 41.5
l-87 -89l-63 63l102 104c-4 13.333 -7.16699 27.833 -9.5 43.5s-3.5 32.5 -3.5 50.5v162c0 18.667 1.16699 36 3.5 52s5.83301 31 10.5 45l-103 105l63 63l88 -90c19.333 18.667 42.5 32.667 69.5 42s56.833 14 89.5 14s62.667 -4.83301 90 -14.5s50.333 -23.834 69 -42.501
l86 86l63 -63l-102 -102c4 -13.333 7.16699 -28 9.5 -44s3.5 -33 3.5 -51v-162c0 -17.333 -1 -33.666 -3 -48.999s-5.33301 -29.333 -10 -42l102 -102l-63 -63l-85 85c-19.333 -18.667 -42.666 -32.667 -69.999 -42s-57.666 -14 -90.999 -14z" />
    <glyph glyph-name="yen" unicode="&#xa5;" 
d="M600 100h-200v-100h-100v100h-200v90h200v110h-200v90h149l-235 410h109l227 -427l227 427h108l-234 -410h149v-90h-200v-110h200v-90z" />
    <glyph glyph-name="brokenbar" unicode="&#xa6;" 
d="M305 400v400h90v-400h-90zM305 -200v400h90v-400h-90z" />
    <glyph glyph-name="section" unicode="&#xa7;" 
d="M340 202l18 -4l18 -4c33.333 0.666992 63.166 8.5 89.499 23.5s39.5 40.5 39.5 76.5c0 34 -13.833 57.333 -41.5 70s-60.5 23 -98.5 31l-18 4l-18 4c-33.333 -0.666992 -63.166 -8.5 -89.499 -23.5s-39.5 -40.5 -39.5 -76.5c0 -34 13.833 -57.333 41.5 -70
s60.5 -23 98.5 -31zM368 -207c-46.667 0 -91.5 8.16602 -134.5 24.499s-80.5 39.5 -112.5 69.5l50 81c34 -28.667 66.5 -50 97.5 -64s65.833 -21 104.5 -21c36.667 0 68.834 7 96.501 21s41.5 38 41.5 72c0 42.667 -18.5 72.5 -55.5 89.5s-79.5 30.5 -127.5 40.5
c-72.667 14.667 -128.834 35.334 -168.501 62.001s-59.5 68.334 -59.5 125.001c0 38 11.667 68.833 35 92.5s53 40.834 89 51.501c-40 18 -70.667 40.833 -92 68.5s-32 62.5 -32 104.5c0 69.333 24.5 119 73.5 149s103.5 45 163.5 45c46.667 0 91.5 -8.16699 134.5 -24.5
s80.5 -39.5 112.5 -69.5l-50 -81c-34 28.667 -66.5 50 -97.5 64s-65.833 21 -104.5 21s-71.334 -8.16699 -98.001 -24.5s-40 -39.166 -40 -68.499c0 -42.667 18.5 -72.5 55.5 -89.5s79.5 -30.5 127.5 -40.5c72.667 -14.667 128.834 -35.334 168.501 -62.001
s59.5 -68.334 59.5 -125.001c0 -38 -11.667 -68.833 -35 -92.5s-53 -40.834 -89 -51.501c40 -18 70.667 -40.833 92 -68.5s32 -62.5 32 -104.5c0 -66 -23 -114.833 -69 -146.5s-102 -47.5 -168 -47.5z" />
    <glyph glyph-name="dieresis" unicode="&#xa8;" 
d="M235 710c-19.333 0 -35 4 -47 12s-18 23 -18 45v7c0 22.667 6 38.167 18 46.5s27.667 12.5 47 12.5s35 -4.16699 47 -12.5s18 -23.833 18 -46.5v-7c0 -22 -6.16699 -37 -18.5 -45s-27.833 -12 -46.5 -12zM465 710c-19.333 0 -35 4 -47 12s-18 23 -18 45v7
c0 22.667 6 38.167 18 46.5s27.667 12.5 47 12.5s35 -4.16699 47 -12.5s18 -23.833 18 -46.5v-7c0 -22 -6.16699 -37 -18.5 -45s-27.833 -12 -46.5 -12z" />
    <glyph glyph-name="copyright" unicode="&#xa9;" 
d="M350 -110c-114.667 0 -198.332 31.833 -250.999 95.5s-79 154.167 -79 271.5v222c0 118.667 26.5 210.167 79.5 274.5s136.833 96.5 251.5 96.5s198.167 -32.167 250.5 -96.5s78.5 -155.833 78.5 -274.5v-222c0 -117.333 -26.333 -207.833 -79 -271.5
s-136.334 -95.5 -251.001 -95.5zM350.002 -44c91.333 0 157.5 23.833 198.5 71.5s61.5 123.834 61.5 228.501v223c0 106.667 -20.5 184.167 -61.5 232.5s-107.167 72.5 -198.5 72.5s-157.5 -24.333 -198.5 -73s-61.5 -126.334 -61.5 -233.001v-221
c0 -105.333 20.5 -181.833 61.5 -229.5s107.167 -71.5 198.5 -71.5zM359.002 100c-56 0 -96 16.002 -120 48.002s-36 78 -36 138v171c0 59.333 12.167 104.666 36.5 135.999s63.833 47 118.5 47c47.333 0 81.833 -14.333 103.5 -43s34.5 -73 38.5 -133l-83 -6
c-2.66699 40 -8.16699 66.833 -16.5 80.5s-22.833 20.5 -43.5 20.5c-22.667 0 -39 -7.33301 -49 -22s-15 -39.334 -15 -74.001v-186c0 -34 5.33301 -58.5 16 -73.5s27.334 -22.5 50.001 -22.5c20 0 34 5.83301 42 17.5s13.333 36.5 16 74.5l83 -6
c-4 -58 -16.833 -100.333 -38.5 -127s-55.834 -40 -102.501 -40z" />
    <glyph glyph-name="ordfeminine" unicode="&#xaa;" 
d="M290 395c26 0 49.833 5.5 71.5 16.5s41.167 29.167 58.5 54.5v55h-137c-24.667 0 -45.167 -4.5 -61.5 -13.5s-24.5 -25.167 -24.5 -48.5c0 -20.667 7 -36.5 21 -47.5s38 -16.5 72 -16.5zM270 321c-41.333 0 -78.167 10.501 -110.5 31.501s-48.5 54.833 -48.5 101.5
c0 41.333 14.5 73.833 43.5 97.5s63.5 35.5 103.5 35.5h162v56c0 27.333 -8.5 49.666 -25.5 66.999s-42.5 26 -76.5 26c-34.667 0 -60.834 -5 -78.501 -15s-31.834 -32.667 -42.501 -68l-75 21c8.66699 44 28.334 77.667 59.001 101s75.667 35 135 35
c54 0 99 -12.833 135 -38.5s54 -65.167 54 -118.5v-186c0 -32 7 -51.333 21 -58s38.667 -8 74 -4v-79c-38 -2.66699 -70.5 0.5 -97.5 9.5s-41.833 35.5 -44.5 79.5h-17c-15.333 -26.667 -38.166 -49 -68.499 -67s-64.5 -27 -102.5 -27z" />
    <glyph glyph-name="guillemotleft" unicode="&#xab;" 
d="M631 99l-260 200v100l260 200v-95l-201 -155l201 -155v-95zM331 99l-260 200v100l260 200v-95l-201 -155l201 -155v-95z" />
    <glyph glyph-name="logicalnot" unicode="&#xac;" 
d="M530 0v300h-460v100h560v-400h-100z" />
    <glyph glyph-name="registered" unicode="&#xae;" 
d="M350 138c-97.333 0 -168.332 24.833 -212.999 74.5s-67 115.834 -67 198.501v173c0 83.333 22.333 150.166 67 200.499s116 75.5 214 75.5c97.333 0 168.166 -25.167 212.499 -75.5s66.5 -117.166 66.5 -200.499v-173c0 -82.667 -22.333 -148.834 -67 -198.501
s-115.667 -74.5 -213 -74.5zM350.001 195c75.333 0 130.666 18.333 165.999 55s53 93.667 53 171v153c0 79.333 -17.667 137.5 -53 174.5s-90.666 55.5 -165.999 55.5s-130.666 -18.5 -165.999 -55.5s-53 -95.167 -53 -174.5v-153c0 -77.333 17.667 -134.333 53 -171
s90.666 -55 165.999 -55zM297.001 501l63 -0.000976562c16.667 0 28.667 3.33301 36 10s11 17.334 11 32.001v28c0 18.667 -3.66699 32 -11 40s-19.333 12 -36 12h-63v-122zM297.001 322.999l-65 0.00195312v358h128c36.667 0 64.667 -9.33301 84 -28s29 -46 29 -82v-28
c0 -24.667 -5.5 -44.834 -16.5 -60.501s-27.167 -26.834 -48.5 -33.501l71 -126h-74l-67 120h-41v-120z" />
    <glyph glyph-name="macron" unicode="&#x2c9;" 
d="M150 755v90h400v-90h-400z" />
    <glyph glyph-name="macron" unicode="&#xaf;" 
d="M150 755v90h400v-90h-400z" />
    <glyph glyph-name="degree" unicode="&#xb0;" 
d="M350 346c-60 0 -108.333 14.833 -145 44.5s-55 75.5 -55 137.5v93c0 62 18.333 108.333 55 139s85 46 145 46c60.667 0 109.167 -15.333 145.5 -46s54.5 -77 54.5 -139v-93c0 -62 -18.333 -107.833 -55 -137.5s-85 -44.5 -145 -44.5zM350 433c34 0 60 7.33301 78 22
s27 39 27 73v93c0 33.333 -9 58 -27 74s-44 24 -78 24c-35.333 0 -61.666 -8 -78.999 -24s-26 -40.667 -26 -74v-93c0 -34 8.66699 -58.333 26 -73s43.666 -22 78.999 -22z" />
    <glyph glyph-name="plusminus" unicode="&#xb1;" 
d="M300 140v260h-230v100h230v260h100v-260h230v-100h-230v-260h-100zM70 0v100h560v-100h-560z" />
    <glyph glyph-name="two.sups" unicode="&#xb2;" 
d="M150 304l-0.000976562 104.002c0 36 9 67.167 27 93.5s48 43.833 90 52.5l122 25c23.333 4.66699 40 12.167 50 22.5s15 25.833 15 46.5v19c0 21.333 -7 38.166 -21 50.499s-41.667 18.5 -83 18.5s-68.166 -6.83301 -80.499 -20.5s-19.833 -37.5 -22.5 -71.5l-91 7
c2.66699 51.333 18 90 46 116s77.333 39 148 39s120.667 -12.167 150 -36.5s44 -57.5 44 -99.5v-34c0 -38 -10.5 -66.833 -31.5 -86.5s-48.5 -32.834 -82.5 -39.501l-122 -25c-20.667 -4 -37 -11 -49 -21s-18 -28.333 -18 -55v-32h310v-73h-401z" />
    <glyph glyph-name="three.sups" unicode="&#xb3;" 
d="M348 298c-73.333 0 -124.997 12.167 -154.997 36.5s-46.333 60.5 -49 108.5l90 6c3.33301 -29.333 11.666 -50 24.999 -62s43 -18 89 -18c45.333 0 75.333 6.33301 90 19s22 30.334 22 53.001v16c0 24.667 -7.33301 42.834 -22 54.501s-44 17.5 -88 17.5h-82v72h82
c36 0 61.333 3.66699 76 11s22 21.666 22 42.999v20c0 22.667 -9.33301 38.334 -28 47.001s-44 13 -76 13c-32.667 0 -56.334 -5.33301 -71.001 -16s-23.334 -28.334 -26.001 -53.001l-91 6c3.33301 48 20 82.333 50 103s76 31 138 31c56 0 102.333 -8.66699 139 -26
s55 -50.333 55 -99v-16c0 -26.667 -8.66699 -47.5 -26 -62.5s-40 -23.833 -68 -26.5v-18c31.333 -2.66699 57 -13.5 77 -32.5s30 -43.167 30 -72.5v-14c0 -48.667 -16.5 -84.334 -49.5 -107.001s-84.167 -34 -153.5 -34z" />
    <glyph glyph-name="acute" unicode="&#xb4;" 
d="M236 700l136 200h150l-195 -200h-91z" />
    <glyph glyph-name="mu1" unicode="&#xb5;" 
d="M190 20l9.99902 -219.998h-120l10 220v580h100v-404c0 -40 11.5 -68.5 34.5 -85.5s50.833 -25.5 83.5 -25.5c30 0 56.167 6.66699 78.5 20s43.5 31.666 63.5 54.999v440h100v-440c0 -36 8.33301 -58.333 25 -67s41.667 -10 75 -4v-92
c-48.667 -7.33301 -86.167 -2.33301 -112.5 15s-40.833 46.666 -43.5 87.999h-20c-16.667 -28.667 -39.5 -54.167 -68.5 -76.5s-65.5 -33.5 -109.5 -33.5c-20.667 0 -40.167 4 -58.5 12s-34.166 20.333 -47.499 37v-19z" />
    <glyph glyph-name="paragraph" unicode="&#xb6;" 
d="M500 340h-100v-540h-100v540c-60 0 -113.333 14.833 -160 44.5s-70 80.5 -70 152.5v52c0 73.333 23.167 126.833 69.5 160.5s99.5 50.5 159.5 50.5h301v-1000h-100v540z" />
    <glyph glyph-name="periodcentered" unicode="&#x2219;" 
d="M351 290c-33.333 0 -60.3311 7.5 -80.998 22.5s-31 38.833 -31 71.5v28c0 32.667 10.333 56.834 31 72.501s47.667 23.5 81 23.5s60.166 -7.83301 80.499 -23.5s30.5 -39.834 30.5 -72.501v-28c0 -32.667 -10.333 -56.5 -31 -71.5s-47.334 -22.5 -80.001 -22.5z" />
    <glyph glyph-name="periodcentered" unicode="&#xb7;" 
d="M351 290c-33.333 0 -60.3311 7.5 -80.998 22.5s-31 38.833 -31 71.5v28c0 32.667 10.333 56.834 31 72.501s47.667 23.5 81 23.5s60.166 -7.83301 80.499 -23.5s30.5 -39.834 30.5 -72.501v-28c0 -32.667 -10.333 -56.5 -31 -71.5s-47.334 -22.5 -80.001 -22.5z" />
    <glyph glyph-name="cedilla" unicode="&#xb8;" 
d="M320 0l20 42c29.333 -5.33301 57.333 -17.833 84 -37.5s40 -51.5 40 -95.5c0 -43.333 -15 -75 -45 -95s-63.667 -30 -101 -30c-44 0 -79.833 8.16699 -107.5 24.5s-42.834 43.5 -45.501 81.5l88 10c1.33301 -12.667 6.5 -21.5 15.5 -26.5s23.833 -7.5 44.5 -7.5
c20 0 35.167 4.16699 45.5 12.5s15.5 23.833 15.5 46.5s-4.16699 39.5 -12.5 50.5s-22.166 19.167 -41.499 24.5z" />
    <glyph glyph-name="one.sups" unicode="&#xb9;" 
d="M200 304l0.000976562 73h136v318h-15c-8 -26.667 -23.833 -48 -47.5 -64s-50.5 -24.333 -80.5 -25l-6 75c31.333 1.33301 62.166 11.5 92.499 30.5s49.833 48.5 58.5 88.5h89v-423h124v-73h-351z" />
    <glyph glyph-name="ordmasculine" unicode="&#xba;" 
d="M350 321c-64 0 -115.833 15.167 -155.5 45.5s-59.5 76.833 -59.5 139.5v114c0 64 19.833 111.667 59.5 143s91.5 47 155.5 47s115.667 -15.667 155 -47s59 -79 59 -143v-114c0 -62.667 -19.667 -109.167 -59 -139.5s-91 -45.5 -155 -45.5zM350 398
c42.667 0 74.667 8.5 96 25.5s32 44.5 32 82.5v114c0 38 -10.667 66.167 -32 84.5s-53.333 27.5 -96 27.5s-74.834 -9.16699 -96.501 -27.5s-32.5 -46.5 -32.5 -84.5v-114c0 -38 10.833 -65.5 32.5 -82.5s53.834 -25.5 96.501 -25.5z" />
    <glyph glyph-name="guillemotright" unicode="&#xbb;" 
d="M70 100v95l202 155l-202 155v95l260 -200v-100zM370 100v95l202 155l-202 155v95l260 -200v-100z" />
    <glyph glyph-name="onequarter" unicode="&#xbc;" 
d="M180 410l0.000976562 73h136v218h-15c-4 -13.333 -10 -25.333 -18 -36s-17.667 -20 -29 -28c-12 -8 -24.833 -14.167 -38.5 -18.5s-27.834 -6.5 -42.501 -6.5l-6 75c16.667 0.666992 33 3.5 49 8.5s31 12.5 45 22.5c14 9.33301 26 21.5 36 36.5s17 32.167 21 51.5h89
v-323h124v-73h-351zM0.000976562 250v100l318 -20v-60zM396.001 270v60l304 20v-100zM582.001 -114h-93v-96h-91v96h-254v70l226 260h119v-260h93v-70zM223.001 -44h175v198z" />
    <glyph glyph-name="onehalf" unicode="&#xbd;" 
d="M180 410l0.000976562 73h136v218h-15c-4 -13.333 -10 -25.333 -18 -36s-17.667 -20 -29 -28c-12 -8 -24.833 -14.167 -38.5 -18.5s-27.834 -6.5 -42.501 -6.5l-6 75c16.667 0.666992 33 3.5 49 8.5s31 12.5 45 22.5c14 9.33301 26 21.5 36 36.5s17 32.167 21 51.5h89
v-323h124v-73h-351zM0.000976562 250v100l318 -20v-60zM396.001 270v60l304 20v-100zM150.001 -210l0.00292969 83.998c0 16 2.16699 30.667 6.5 44s11.166 25.666 20.499 36.999c9.33301 10.667 21.5 19.834 36.5 27.501s32.833 13.5 53.5 17.5l122 25
c12.667 2.66699 23 5.33398 31 8.00098s14.333 5.66699 19 9c5.33301 4 9.16602 8.5 11.499 13.5s3.5 11.167 3.5 18.5v19c0 8 -1.66699 15 -5 21s-8.66602 11 -15.999 15c-8 4.66699 -18.667 8 -32 10s-30.333 3 -51 3s-37.5 -1.33301 -50.5 -4s-23.167 -6.66699 -30.5 -12
s-12.5 -12.5 -15.5 -21.5s-5.16699 -20.5 -6.5 -34.5l-91 7c1.33301 23.333 5.66602 43.333 12.999 60s18.333 30.667 33 42c14.667 10.667 34.167 18.834 58.5 24.501s54.166 8.5 89.499 8.5c34.667 0 64.5 -2.66699 89.5 -8s45.167 -13 60.5 -23s26.5 -22 33.5 -36
s10.5 -30.333 10.5 -49v-34c0 -15.333 -2.66699 -29 -8 -41s-13 -22 -23 -30c-10 -8.66699 -21.833 -15.667 -35.5 -21s-29.5 -10 -47.5 -14l-122 -25c-12 -2.66699 -21.833 -5.16699 -29.5 -7.5s-14.167 -5.83301 -19.5 -10.5c-6 -4.66699 -10.5 -11 -13.5 -19
s-4.5 -18.333 -4.5 -31h310v-73h-401z" />
    <glyph glyph-name="threequarters" unicode="&#xbe;" 
d="M348 404c-36.667 0 -67.6562 2.49805 -92.9893 7.49805s-46 12.833 -62 23.5c-16 10 -27.833 22.833 -35.5 38.5s-12.167 34.167 -13.5 55.5l90 6c1.33301 -12 3.66602 -21.667 6.99902 -29s9 -13.333 17 -18s19.167 -8 33.5 -10s33.166 -3 56.499 -3
c22.667 0 41.167 0.833008 55.5 2.5s25.833 4.5 34.5 8.5c8 3.33301 13.667 7.5 17 12.5s5 11.167 5 18.5v16c0 7.33301 -1.66699 13.5 -5 18.5s-9 9.5 -17 13.5c-8.66699 3.33301 -20 5.83301 -34 7.5s-32 2.5 -54 2.5h-52v72h52c18.667 0 34.167 0.666992 46.5 2
s22.166 3.66602 29.499 6.99902c8 3.33301 13.667 7.83301 17 13.5s5 12.834 5 21.501v20c0 5.33301 -2.33301 10 -7 14s-11.667 7.33301 -21 10c-8.66699 2 -19.334 3.5 -32.001 4.5s-27.334 1.5 -44.001 1.5s-30.834 -0.833008 -42.501 -2.5s-21.5 -4.5 -29.5 -8.5
c-7.33301 -4 -13 -9 -17 -15s-6.66699 -13.667 -8 -23l-91 6c1.33301 20.667 6 38.167 14 52.5s19.667 26.166 35 35.499c15.333 8.66699 34.5 15.167 57.5 19.5s50.167 6.5 81.5 6.5c29.333 0 55.666 -1.5 78.999 -4.5s43.666 -8.16699 60.999 -15.5
s30.666 -17.166 39.999 -29.499s14 -27.5 14 -45.5v-16c0 -11.333 -2.16699 -21.666 -6.5 -30.999s-10.833 -17.333 -19.5 -24c-8 -6.66699 -17.833 -12 -29.5 -16s-24.5 -6.66699 -38.5 -8v-18c16 -1.33301 30.5 -4 43.5 -8s24.167 -9.33301 33.5 -16
c10 -6 17.5 -13.5 22.5 -22.5s7.5 -18.5 7.5 -28.5v-14c0 -19.333 -4 -36 -12 -50s-20.333 -25.333 -37 -34c-16.667 -9.33301 -37.834 -16.166 -63.501 -20.499s-55.834 -6.5 -90.501 -6.5zM0.0107422 249.998v100l318 -20v-60zM396.011 269.998v60l304 20v-100z
M582.011 -114.002h-93v-96h-91v96h-254v70l226 260h119v-260h93v-70zM223.011 -44.002h175v198z" />
    <glyph glyph-name="questiondown" unicode="&#xbf;" 
d="M395 810c33.333 0 57.666 -6.83301 72.999 -20.5s23 -34.834 23 -63.501v-28c0 -29.333 -7.66699 -51 -23 -65s-39.666 -21 -72.999 -21s-57.833 7 -73.5 21s-23.5 35.667 -23.5 65v28c0 28.667 8 49.834 24 63.501s40.333 20.5 73 20.5zM430 487l20 -81.001
c-116 -18.667 -193.333 -39.667 -232 -63s-58 -55 -58 -95v-30c0 -39.333 11.833 -72.166 35.5 -98.499s75.167 -39.5 154.5 -39.5c84.667 0 138 12.667 160 38s35.333 69.666 40 132.999l100 -10c-4.66699 -93.333 -28.334 -158.5 -71.001 -195.5
s-118.667 -55.5 -228 -55.5s-185.166 20.833 -227.499 62.5s-63.5 92.834 -63.5 153.501v46c0 73.333 30 125.833 90 157.5s153.333 57.5 280 77.5z" />
    <glyph glyph-name="Agrave" unicode="&#xc0;" 
d="M459 320l-110 367l-111 -367h221zM555 0l-69 230h-275l-69 -230h-102l258 800h105l258 -800h-106zM352 900l-195 200h150l136 -200h-91z" />
    <glyph glyph-name="Aacute" unicode="&#xc1;" 
d="M459 320l-110 367l-111 -367h221zM555 0l-69 230h-275l-69 -230h-102l258 800h105l258 -800h-106zM237 900l136 200h150l-195 -200h-91z" />
    <glyph glyph-name="Acircumflex" unicode="&#xc2;" 
d="M459 320l-110 367l-111 -367h221zM555 0l-69 230h-275l-69 -230h-102l258 800h105l258 -800h-106zM178 904l-38 64l174 149h72l176 -149l-38 -64l-174 116z" />
    <glyph glyph-name="Atilde" unicode="&#xc3;" 
d="M459 320l-110 367l-111 -367h221zM555 0l-69 230h-275l-69 -230h-102l258 800h105l258 -800h-106zM430 910c-22.667 0 -41.8311 6 -57.498 18s-29.5 25.333 -41.5 40l-33.5 39c-10.333 12 -21.5 18 -33.5 18c-12.667 0 -23.667 -6.16699 -33 -18.5
s-13.666 -37.5 -12.999 -75.5v-11h-77v15c0 50 11.333 91.667 34 125s55 50 97 50c25.333 0 46.166 -6 62.499 -18s30.166 -25 41.499 -39l31 -40c9.33301 -12 19.666 -18 30.999 -18c12.667 0 23.5 6.16699 32.5 18.5s13.5 37.5 13.5 75.5v11h77v-15
c0 -50.667 -11.333 -92.5 -34 -125.5s-55 -49.5 -97 -49.5z" />
    <glyph glyph-name="Adieresis" unicode="&#xc4;" 
d="M459 320l-110 367l-111 -367h221zM555 0l-69 230h-275l-69 -230h-102l258 800h105l258 -800h-106zM236 910c-19.333 0 -35 4 -47 12s-18 23 -18 45v7c0 22.667 6 38.167 18 46.5s27.667 12.5 47 12.5s35 -4.16699 47 -12.5s18 -23.833 18 -46.5v-7
c0 -22 -6.16699 -37 -18.5 -45s-27.833 -12 -46.5 -12zM466 910c-19.333 0 -35 4 -47 12s-18 23 -18 45v7c0 22.667 6 38.167 18 46.5s27.667 12.5 47 12.5s35 -4.16699 47 -12.5s18 -23.833 18 -46.5v-7c0 -22 -6.16699 -37 -18.5 -45s-27.833 -12 -46.5 -12z" />
    <glyph glyph-name="Aring" unicode="&#xc5;" 
d="M459 320l-110 367l-111 -367h221zM555 0l-69 230h-275l-69 -230h-102l258 800h105l258 -800h-106zM351 885c-48 0 -86.667 11.833 -116 35.5s-44 60.167 -44 109.5v32c0 50 14.667 87.167 44 111.5s68 36.5 116 36.5s86.667 -12.167 116 -36.5s44 -61.5 44 -111.5v-32
c0 -49.333 -14.667 -85.833 -44 -109.5s-68 -35.5 -116 -35.5zM351 956c26.667 0 47 5.66699 61 17s21 30.333 21 57v32c0 26.667 -7 46.167 -21 58.5s-34.333 18.5 -61 18.5c-27.333 0 -47.833 -6.16699 -61.5 -18.5s-20.5 -31.833 -20.5 -58.5v-32
c0 -26.667 6.83301 -45.667 20.5 -57s34.167 -17 61.5 -17z" />
    <glyph glyph-name="AE" unicode="&#xc6;" 
d="M296 720l-120 -410h184v410h-64zM360 230h-207l-67 -230h-86l243 800h447v-80h-240v-250h230v-80h-230v-310h240v-80h-330v230z" />
    <glyph glyph-name="Ccedilla" unicode="&#xc7;" 
d="M360 -10c-93.333 0 -163.333 23.832 -210 71.499s-70 119.5 -70 215.5v242c0 97.333 23.333 170.166 70 218.499s117 72.5 211 72.5c92 0 160.167 -21.5 204.5 -64.5s69.166 -111.833 74.499 -206.5l-100 -10c-6.66699 72 -22.834 121.833 -48.501 149.5
s-69.5 41.5 -131.5 41.5c-66 0 -112.5 -15.167 -139.5 -45.5s-40.5 -82.166 -40.5 -155.499v-242c0 -72 13.5 -122.833 40.5 -152.5s73.5 -44.5 139.5 -44.5c62 0 105.833 13.5 131.5 40.5s41.834 75.833 48.501 146.5l100 -10
c-5.33301 -93.333 -30.166 -161.166 -74.499 -203.499s-112.833 -63.5 -205.5 -63.5zM330 -0.000976562l20 42c29.333 -5.33301 57.333 -17.833 84 -37.5s40 -51.5 40 -95.5c0 -43.333 -15 -75 -45 -95s-63.667 -30 -101 -30c-44 0 -79.833 8.16699 -107.5 24.5
s-42.834 43.5 -45.501 81.5l88 10c1.33301 -12.667 6.5 -21.5 15.5 -26.5s23.833 -7.5 44.5 -7.5c20 0 35.167 4.16699 45.5 12.5s15.5 23.833 15.5 46.5s-4.16699 39.5 -12.5 50.5s-22.166 19.167 -41.499 24.5z" />
    <glyph glyph-name="Egrave" unicode="&#xc8;" 
d="M100 0v800h520v-90h-420v-230h370v-90h-370v-300h420v-90h-520zM361 900l-195 200h150l136 -200h-91z" />
    <glyph glyph-name="Eacute" unicode="&#xc9;" 
d="M100 0v800h520v-90h-420v-230h370v-90h-370v-300h420v-90h-520zM266 900l136 200h150l-195 -200h-91z" />
    <glyph glyph-name="Ecircumflex" unicode="&#xca;" 
d="M100 0v800h520v-90h-420v-230h370v-90h-370v-300h420v-90h-520zM197 904l-38 64l174 149h72l176 -149l-38 -64l-174 116z" />
    <glyph glyph-name="Edieresis" unicode="&#xcb;" 
d="M100 0v800h520v-90h-420v-230h370v-90h-370v-300h420v-90h-520zM255 910c-19.333 0 -35 4 -47 12s-18 23 -18 45v7c0 22.667 6 38.167 18 46.5s27.667 12.5 47 12.5s35 -4.16699 47 -12.5s18 -23.833 18 -46.5v-7c0 -22 -6.16699 -37 -18.5 -45s-27.833 -12 -46.5 -12z
M485 910c-19.333 0 -35 4 -47 12s-18 23 -18 45v7c0 22.667 6 38.167 18 46.5s27.667 12.5 47 12.5s35 -4.16699 47 -12.5s18 -23.833 18 -46.5v-7c0 -22 -6.16699 -37 -18.5 -45s-27.833 -12 -46.5 -12z" />
    <glyph glyph-name="Igrave" unicode="&#xcc;" 
d="M100 0v90h200v620h-200v90h500v-90h-200v-620h200v-90h-500zM351 900l-195 200h150l136 -200h-91z" />
    <glyph glyph-name="Iacute" unicode="&#xcd;" 
d="M100 0v90h200v620h-200v90h500v-90h-200v-620h200v-90h-500zM236 900l136 200h150l-195 -200h-91z" />
    <glyph glyph-name="Icircumflex" unicode="&#xce;" 
d="M100 0v90h200v620h-200v90h500v-90h-200v-620h200v-90h-500zM177 904l-38 64l174 149h72l176 -149l-38 -64l-174 116z" />
    <glyph glyph-name="Idieresis" unicode="&#xcf;" 
d="M100 0v90h200v620h-200v90h500v-90h-200v-620h200v-90h-500zM235 910c-19.333 0 -35 4 -47 12s-18 23 -18 45v7c0 22.667 6 38.167 18 46.5s27.667 12.5 47 12.5s35 -4.16699 47 -12.5s18 -23.833 18 -46.5v-7c0 -22 -6.16699 -37 -18.5 -45s-27.833 -12 -46.5 -12z
M465 910c-19.333 0 -35 4 -47 12s-18 23 -18 45v7c0 22.667 6 38.167 18 46.5s27.667 12.5 47 12.5s35 -4.16699 47 -12.5s18 -23.833 18 -46.5v-7c0 -22 -6.16699 -37 -18.5 -45s-27.833 -12 -46.5 -12z" />
    <glyph glyph-name="Eth" unicode="&#xd0;" 
d="M100 0l-0.000976562 395h-100v90h100v315h221c93.333 0 166.5 -26.5 219.5 -79.5s79.5 -123.5 79.5 -211.5v-222c0 -87.333 -26.667 -157 -80 -209s-126.666 -78 -219.999 -78h-220zM199.999 90h120c67.333 0 117.5 18.167 150.5 54.5s49.5 83.833 49.5 142.5v222
c0 58 -16.5 106 -49.5 144s-83.167 57 -150.5 57h-120v-225h150v-90h-150v-305z" />
    <glyph glyph-name="Ntilde" unicode="&#xd1;" 
d="M457 0l-267 674v-674h-90v800h137l273 -689v689h90v-800h-143zM449 910c-22.667 0 -41.8311 6 -57.498 18s-29.5 25.333 -41.5 40l-33.5 39c-10.333 12 -21.5 18 -33.5 18c-12.667 0 -23.667 -6.16699 -33 -18.5s-13.666 -37.5 -12.999 -75.5v-11h-77v15
c0 50 11.333 91.667 34 125s55 50 97 50c25.333 0 46.166 -6 62.499 -18s30.166 -25 41.499 -39l31 -40c9.33301 -12 19.666 -18 30.999 -18c12.667 0 23.5 6.16699 32.5 18.5s13.5 37.5 13.5 75.5v11h77v-15c0 -50.667 -11.333 -92.5 -34 -125.5s-55 -49.5 -97 -49.5z" />
    <glyph glyph-name="Ograve" unicode="&#xd2;" 
d="M350 -10c-88 0 -155 24.5 -201 73.5s-69 120.167 -69 213.5v242c0 94.667 23.167 166.834 69.5 216.501s113.5 74.5 201.5 74.5c87.333 0 154 -24.833 200 -74.5s69 -121.834 69 -216.501v-242c0 -93.333 -23 -164.5 -69 -213.5s-113 -73.5 -201 -73.5zM350 80
c61.333 0 105 15 131 45s39 80.667 39 152v242c0 72.667 -13 124.334 -39 155.001s-69.667 46 -131 46s-105 -15.333 -131 -46s-39 -82.334 -39 -155.001v-242c0 -71.333 13 -122 39 -152s69.667 -45 131 -45zM351 900l-195 200h150l136 -200h-91z" />
    <glyph glyph-name="Oacute" unicode="&#xd3;" 
d="M350 -10c-88 0 -155 24.5 -201 73.5s-69 120.167 -69 213.5v242c0 94.667 23.167 166.834 69.5 216.501s113.5 74.5 201.5 74.5c87.333 0 154 -24.833 200 -74.5s69 -121.834 69 -216.501v-242c0 -93.333 -23 -164.5 -69 -213.5s-113 -73.5 -201 -73.5zM350 80
c61.333 0 105 15 131 45s39 80.667 39 152v242c0 72.667 -13 124.334 -39 155.001s-69.667 46 -131 46s-105 -15.333 -131 -46s-39 -82.334 -39 -155.001v-242c0 -71.333 13 -122 39 -152s69.667 -45 131 -45zM276 900l136 200h150l-195 -200h-91z" />
    <glyph glyph-name="Ocircumflex" unicode="&#xd4;" 
d="M350 -10c-88 0 -155 24.5 -201 73.5s-69 120.167 -69 213.5v242c0 94.667 23.167 166.834 69.5 216.501s113.5 74.5 201.5 74.5c87.333 0 154 -24.833 200 -74.5s69 -121.834 69 -216.501v-242c0 -93.333 -23 -164.5 -69 -213.5s-113 -73.5 -201 -73.5zM350 80
c61.333 0 105 15 131 45s39 80.667 39 152v242c0 72.667 -13 124.334 -39 155.001s-69.667 46 -131 46s-105 -15.333 -131 -46s-39 -82.334 -39 -155.001v-242c0 -71.333 13 -122 39 -152s69.667 -45 131 -45zM177 904l-38 64l174 149h72l176 -149l-38 -64l-174 116z" />
    <glyph glyph-name="Otilde" unicode="&#xd5;" 
d="M350 -10c-88 0 -155 24.5 -201 73.5s-69 120.167 -69 213.5v242c0 94.667 23.167 166.834 69.5 216.501s113.5 74.5 201.5 74.5c87.333 0 154 -24.833 200 -74.5s69 -121.834 69 -216.501v-242c0 -93.333 -23 -164.5 -69 -213.5s-113 -73.5 -201 -73.5zM350 80
c61.333 0 105 15 131 45s39 80.667 39 152v242c0 72.667 -13 124.334 -39 155.001s-69.667 46 -131 46s-105 -15.333 -131 -46s-39 -82.334 -39 -155.001v-242c0 -71.333 13 -122 39 -152s69.667 -45 131 -45zM429 910c-22.667 0 -41.8311 6 -57.498 18
s-29.5 25.333 -41.5 40l-33.5 39c-10.333 12 -21.5 18 -33.5 18c-12.667 0 -23.667 -6.16699 -33 -18.5s-13.666 -37.5 -12.999 -75.5v-11h-77v15c0 50 11.333 91.667 34 125s55 50 97 50c25.333 0 46.166 -6 62.499 -18s30.166 -25 41.499 -39l31 -40
c9.33301 -12 19.666 -18 30.999 -18c12.667 0 23.5 6.16699 32.5 18.5s13.5 37.5 13.5 75.5v11h77v-15c0 -50.667 -11.333 -92.5 -34 -125.5s-55 -49.5 -97 -49.5z" />
    <glyph glyph-name="Odieresis" unicode="&#xd6;" 
d="M350 -10c-88 0 -155 24.5 -201 73.5s-69 120.167 -69 213.5v242c0 94.667 23.167 166.834 69.5 216.501s113.5 74.5 201.5 74.5c87.333 0 154 -24.833 200 -74.5s69 -121.834 69 -216.501v-242c0 -93.333 -23 -164.5 -69 -213.5s-113 -73.5 -201 -73.5zM350 80
c61.333 0 105 15 131 45s39 80.667 39 152v242c0 72.667 -13 124.334 -39 155.001s-69.667 46 -131 46s-105 -15.333 -131 -46s-39 -82.334 -39 -155.001v-242c0 -71.333 13 -122 39 -152s69.667 -45 131 -45zM235 910c-19.333 0 -35 4 -47 12s-18 23 -18 45v7
c0 22.667 6 38.167 18 46.5s27.667 12.5 47 12.5s35 -4.16699 47 -12.5s18 -23.833 18 -46.5v-7c0 -22 -6.16699 -37 -18.5 -45s-27.833 -12 -46.5 -12zM465 910c-19.333 0 -35 4 -47 12s-18 23 -18 45v7c0 22.667 6 38.167 18 46.5s27.667 12.5 47 12.5
s35 -4.16699 47 -12.5s18 -23.833 18 -46.5v-7c0 -22 -6.16699 -37 -18.5 -45s-27.833 -12 -46.5 -12z" />
    <glyph glyph-name="multiply" unicode="&#xd7;" 
d="M134 46l-63 63l216 241l-216 241l63 63l216 -241l216 236l63 -63l-216 -236l216 -236l-63 -63l-216 236z" />
    <glyph glyph-name="Oslash" unicode="&#xd8;" 
d="M201 152l223.001 558.999c-10.667 2.66699 -22 4.83398 -34 6.50098s-25.333 2.5 -40 2.5c-62 0 -105.833 -15.167 -131.5 -45.5s-38.5 -82.166 -38.5 -155.499v-242c0 -26.667 1.66699 -50.334 5 -71.001s8.66602 -38.667 15.999 -54zM350.001 79.999
c62 0 105.832 15.001 131.499 45.001s38.5 80.667 38.5 152v242c0 34 -2.66699 63.333 -8 88s-13.666 45 -24.999 61l-228 -573c12 -4.66699 25.5 -8.33398 40.5 -11.001s31.833 -4 50.5 -4zM350 -10c-22 0 -42.668 1.49902 -62.001 4.49902s-37.333 7.83301 -54 14.5
l-44 -109h-100l63 159c-24 24 -42.167 54.333 -54.5 91s-18.5 79 -18.5 127v242c0 94.667 23.167 166.834 69.5 216.501s113.5 74.5 201.5 74.5c18 0 35.167 -1 51.5 -3s31.833 -5.33301 46.5 -10l41 103h100l-59 -146c29.333 -24 51.5 -55.667 66.5 -95s22.5 -86 22.5 -140
v-242c0 -93.333 -23.167 -164.5 -69.5 -213.5s-113.166 -73.5 -200.499 -73.5z" />
    <glyph glyph-name="Ugrave" unicode="&#xd9;" 
d="M350 -10c-83.333 0 -145.833 23.833 -187.5 71.5s-62.5 119.5 -62.5 215.5v523h100v-523c0 -71.333 11.5 -122 34.5 -152s61.5 -45 115.5 -45s92.5 15 115.5 45s34.5 80.667 34.5 152v523h100v-523c0 -96 -20.833 -167.833 -62.5 -215.5s-104.167 -71.5 -187.5 -71.5z
M351 900l-195 200h150l136 -200h-91z" />
    <glyph glyph-name="Uacute" unicode="&#xda;" 
d="M350 -10c-83.333 0 -145.833 23.833 -187.5 71.5s-62.5 119.5 -62.5 215.5v523h100v-523c0 -71.333 11.5 -122 34.5 -152s61.5 -45 115.5 -45s92.5 15 115.5 45s34.5 80.667 34.5 152v523h100v-523c0 -96 -20.833 -167.833 -62.5 -215.5s-104.167 -71.5 -187.5 -71.5z
M236 900l136 200h150l-195 -200h-91z" />
    <glyph glyph-name="Ucircumflex" unicode="&#xdb;" 
d="M350 -10c-83.333 0 -145.833 23.833 -187.5 71.5s-62.5 119.5 -62.5 215.5v523h100v-523c0 -71.333 11.5 -122 34.5 -152s61.5 -45 115.5 -45s92.5 15 115.5 45s34.5 80.667 34.5 152v523h100v-523c0 -96 -20.833 -167.833 -62.5 -215.5s-104.167 -71.5 -187.5 -71.5z
M177 904l-38 64l174 149h72l176 -149l-38 -64l-174 116z" />
    <glyph glyph-name="Udieresis" unicode="&#xdc;" 
d="M350 -10c-83.333 0 -145.833 23.833 -187.5 71.5s-62.5 119.5 -62.5 215.5v523h100v-523c0 -71.333 11.5 -122 34.5 -152s61.5 -45 115.5 -45s92.5 15 115.5 45s34.5 80.667 34.5 152v523h100v-523c0 -96 -20.833 -167.833 -62.5 -215.5s-104.167 -71.5 -187.5 -71.5z
M235 910c-19.333 0 -35 4 -47 12s-18 23 -18 45v7c0 22.667 6 38.167 18 46.5s27.667 12.5 47 12.5s35 -4.16699 47 -12.5s18 -23.833 18 -46.5v-7c0 -22 -6.16699 -37 -18.5 -45s-27.833 -12 -46.5 -12zM465 910c-19.333 0 -35 4 -47 12s-18 23 -18 45v7
c0 22.667 6 38.167 18 46.5s27.667 12.5 47 12.5s35 -4.16699 47 -12.5s18 -23.833 18 -46.5v-7c0 -22 -6.16699 -37 -18.5 -45s-27.833 -12 -46.5 -12z" />
    <glyph glyph-name="Yacute" unicode="&#xdd;" 
d="M400 0h-100v300l-286 500h112l230 -410l219 410h110l-285 -500v-300zM236 900l136 200h150l-195 -200h-91z" />
    <glyph glyph-name="Thorn" unicode="&#xde;" 
d="M100 0l-0.000976562 800h100v-130h181c82.667 0 144.834 -17.833 186.501 -53.5s62.5 -88.167 62.5 -157.5v-92c0 -71.333 -21 -125.333 -63 -162s-104.333 -55 -187 -55h-180v-150h-100zM199.999 238l180 -0.000976562c54 0 92.5 9.83301 115.5 29.5
s34.5 52.834 34.5 99.501v92c0 44 -11.5 75.167 -34.5 93.5s-61.5 27.5 -115.5 27.5h-180v-342z" />
    <glyph glyph-name="germandbls" unicode="&#xdf;" 
d="M457 -6c-42 0 -82.666 7.49902 -121.999 22.499s-72.333 36.5 -99 64.5l55 79c22.667 -20.667 49.167 -38.5 79.5 -53.5s62.166 -22.5 95.499 -22.5c29.333 0 55.833 5.83301 79.5 17.5s35.5 32.5 35.5 62.5c0 31.333 -10.5 53 -31.5 65s-53.5 22 -97.5 30
c-70 12.667 -121.833 33 -155.5 61s-50.5 64.667 -50.5 110c0 52.667 21 95.167 63 127.5s93 48.833 153 49.5c-6 38 -23.5 65 -52.5 81s-63.833 24 -104.5 24c-39.333 0 -75 -11.333 -107 -34s-48 -61 -48 -115v-563h-100v576c0 78.667 25.833 137 77.5 175
s111.167 57 178.5 57c77.333 0 139.5 -21.5 186.5 -64.5s70.5 -98.167 70.5 -165.5v-46c-65.333 0 -118 -6.16699 -158 -18.5s-60 -36.5 -60 -72.5c0 -28.667 13.333 -48.667 40 -60s64.667 -21.333 114 -30c62 -10.667 107.833 -30.667 137.5 -60
s44.5 -68.666 44.5 -117.999c0 -63.333 -22.833 -109 -68.5 -137s-97.5 -42 -155.5 -42z" />
    <glyph glyph-name="agrave" unicode="&#xe0;" 
d="M278 76c34.667 0 66.6689 6.16699 96.002 18.5s54.666 33.833 75.999 64.5v96h-180c-28.667 0 -52.5 -6.5 -71.5 -19.5s-28.5 -35.833 -28.5 -68.5c0 -28.667 8.16699 -51 24.5 -67s44.166 -24 83.499 -24zM265.002 -10c-50.667 0 -95.8359 13.5 -135.503 40.5
s-59.5 70.5 -59.5 130.5c0 52.667 17.167 94 51.5 124s74.5 45 120.5 45h208v86c0 32 -10.667 57.333 -32 76s-53.666 28 -96.999 28c-44 0 -76.833 -6.5 -98.5 -19.5s-38.834 -41.833 -51.501 -86.5l-88 24c11.333 56.667 36.833 99.5 76.5 128.5s92.834 43.5 159.501 43.5
c66 0 121 -14.833 165 -44.5s66 -75.5 66 -137.5v-268c0 -36 10 -58.5 30 -67.5s50 -10.167 90 -3.5v-92c-41.333 -6 -80.166 -3.16699 -116.499 8.5s-56.166 43.167 -59.499 94.5h-20c-18.667 -30.667 -46.667 -56.667 -84 -78s-79 -32 -125 -32zM331 700l-195 200h150
l136 -200h-91z" />
    <glyph glyph-name="aacute" unicode="&#xe1;" 
d="M278 76c34.667 0 66.6689 6.16699 96.002 18.5s54.666 33.833 75.999 64.5v96h-180c-28.667 0 -52.5 -6.5 -71.5 -19.5s-28.5 -35.833 -28.5 -68.5c0 -28.667 8.16699 -51 24.5 -67s44.166 -24 83.499 -24zM265.002 -10c-50.667 0 -95.8359 13.5 -135.503 40.5
s-59.5 70.5 -59.5 130.5c0 52.667 17.167 94 51.5 124s74.5 45 120.5 45h208v86c0 32 -10.667 57.333 -32 76s-53.666 28 -96.999 28c-44 0 -76.833 -6.5 -98.5 -19.5s-38.834 -41.833 -51.501 -86.5l-88 24c11.333 56.667 36.833 99.5 76.5 128.5s92.834 43.5 159.501 43.5
c66 0 121 -14.833 165 -44.5s66 -75.5 66 -137.5v-268c0 -36 10 -58.5 30 -67.5s50 -10.167 90 -3.5v-92c-41.333 -6 -80.166 -3.16699 -116.499 8.5s-56.166 43.167 -59.499 94.5h-20c-18.667 -30.667 -46.667 -56.667 -84 -78s-79 -32 -125 -32zM216 700l136 200h150
l-195 -200h-91z" />
    <glyph glyph-name="acircumflex" unicode="&#xe2;" 
d="M278 76c34.667 0 66.6689 6.16699 96.002 18.5s54.666 33.833 75.999 64.5v96h-180c-28.667 0 -52.5 -6.5 -71.5 -19.5s-28.5 -35.833 -28.5 -68.5c0 -28.667 8.16699 -51 24.5 -67s44.166 -24 83.499 -24zM265.002 -10c-50.667 0 -95.8359 13.5 -135.503 40.5
s-59.5 70.5 -59.5 130.5c0 52.667 17.167 94 51.5 124s74.5 45 120.5 45h208v86c0 32 -10.667 57.333 -32 76s-53.666 28 -96.999 28c-44 0 -76.833 -6.5 -98.5 -19.5s-38.834 -41.833 -51.501 -86.5l-88 24c11.333 56.667 36.833 99.5 76.5 128.5s92.834 43.5 159.501 43.5
c66 0 121 -14.833 165 -44.5s66 -75.5 66 -137.5v-268c0 -36 10 -58.5 30 -67.5s50 -10.167 90 -3.5v-92c-41.333 -6 -80.166 -3.16699 -116.499 8.5s-56.166 43.167 -59.499 94.5h-20c-18.667 -30.667 -46.667 -56.667 -84 -78s-79 -32 -125 -32zM167 704l-38 64l174 149
h72l176 -149l-38 -64l-174 116z" />
    <glyph glyph-name="atilde" unicode="&#xe3;" 
d="M278 76c34.667 0 66.6689 6.16699 96.002 18.5s54.666 33.833 75.999 64.5v96h-180c-28.667 0 -52.5 -6.5 -71.5 -19.5s-28.5 -35.833 -28.5 -68.5c0 -28.667 8.16699 -51 24.5 -67s44.166 -24 83.499 -24zM265.002 -10c-50.667 0 -95.8359 13.5 -135.503 40.5
s-59.5 70.5 -59.5 130.5c0 52.667 17.167 94 51.5 124s74.5 45 120.5 45h208v86c0 32 -10.667 57.333 -32 76s-53.666 28 -96.999 28c-44 0 -76.833 -6.5 -98.5 -19.5s-38.834 -41.833 -51.501 -86.5l-88 24c11.333 56.667 36.833 99.5 76.5 128.5s92.834 43.5 159.501 43.5
c66 0 121 -14.833 165 -44.5s66 -75.5 66 -137.5v-268c0 -36 10 -58.5 30 -67.5s50 -10.167 90 -3.5v-92c-41.333 -6 -80.166 -3.16699 -116.499 8.5s-56.166 43.167 -59.499 94.5h-20c-18.667 -30.667 -46.667 -56.667 -84 -78s-79 -32 -125 -32zM409 710
c-22.667 0 -41.8311 6 -57.498 18s-29.5 25.333 -41.5 40l-33.5 39c-10.333 12 -21.5 18 -33.5 18c-12.667 0 -23.667 -6.16699 -33 -18.5s-13.666 -37.5 -12.999 -75.5v-11h-77v15c0 50 11.333 91.667 34 125s55 50 97 50c25.333 0 46.166 -6 62.499 -18
s30.166 -25 41.499 -39l31 -40c9.33301 -12 19.666 -18 30.999 -18c12.667 0 23.5 6.16699 32.5 18.5s13.5 37.5 13.5 75.5v11h77v-15c0 -50.667 -11.333 -92.5 -34 -125.5s-55 -49.5 -97 -49.5z" />
    <glyph glyph-name="adieresis" unicode="&#xe4;" 
d="M278 76c34.667 0 66.6689 6.16699 96.002 18.5s54.666 33.833 75.999 64.5v96h-180c-28.667 0 -52.5 -6.5 -71.5 -19.5s-28.5 -35.833 -28.5 -68.5c0 -28.667 8.16699 -51 24.5 -67s44.166 -24 83.499 -24zM265.002 -10c-50.667 0 -95.8359 13.5 -135.503 40.5
s-59.5 70.5 -59.5 130.5c0 52.667 17.167 94 51.5 124s74.5 45 120.5 45h208v86c0 32 -10.667 57.333 -32 76s-53.666 28 -96.999 28c-44 0 -76.833 -6.5 -98.5 -19.5s-38.834 -41.833 -51.501 -86.5l-88 24c11.333 56.667 36.833 99.5 76.5 128.5s92.834 43.5 159.501 43.5
c66 0 121 -14.833 165 -44.5s66 -75.5 66 -137.5v-268c0 -36 10 -58.5 30 -67.5s50 -10.167 90 -3.5v-92c-41.333 -6 -80.166 -3.16699 -116.499 8.5s-56.166 43.167 -59.499 94.5h-20c-18.667 -30.667 -46.667 -56.667 -84 -78s-79 -32 -125 -32zM215 710
c-19.333 0 -35 4 -47 12s-18 23 -18 45v7c0 22.667 6 38.167 18 46.5s27.667 12.5 47 12.5s35 -4.16699 47 -12.5s18 -23.833 18 -46.5v-7c0 -22 -6.16699 -37 -18.5 -45s-27.833 -12 -46.5 -12zM445 710c-19.333 0 -35 4 -47 12s-18 23 -18 45v7c0 22.667 6 38.167 18 46.5
s27.667 12.5 47 12.5s35 -4.16699 47 -12.5s18 -23.833 18 -46.5v-7c0 -22 -6.16699 -37 -18.5 -45s-27.833 -12 -46.5 -12z" />
    <glyph glyph-name="aring" unicode="&#xe5;" 
d="M278 76c34.667 0 66.6689 6.16699 96.002 18.5s54.666 33.833 75.999 64.5v96h-180c-28.667 0 -52.5 -6.5 -71.5 -19.5s-28.5 -35.833 -28.5 -68.5c0 -28.667 8.16699 -51 24.5 -67s44.166 -24 83.499 -24zM265.002 -10c-50.667 0 -95.8359 13.5 -135.503 40.5
s-59.5 70.5 -59.5 130.5c0 52.667 17.167 94 51.5 124s74.5 45 120.5 45h208v86c0 32 -10.667 57.333 -32 76s-53.666 28 -96.999 28c-44 0 -76.833 -6.5 -98.5 -19.5s-38.834 -41.833 -51.501 -86.5l-88 24c11.333 56.667 36.833 99.5 76.5 128.5s92.834 43.5 159.501 43.5
c66 0 121 -14.833 165 -44.5s66 -75.5 66 -137.5v-268c0 -36 10 -58.5 30 -67.5s50 -10.167 90 -3.5v-92c-41.333 -6 -80.166 -3.16699 -116.499 8.5s-56.166 43.167 -59.499 94.5h-20c-18.667 -30.667 -46.667 -56.667 -84 -78s-79 -32 -125 -32zM330 685
c-48 0 -86.667 11.833 -116 35.5s-44 60.167 -44 109.5v32c0 50 14.667 87.167 44 111.5s68 36.5 116 36.5s86.667 -12.167 116 -36.5s44 -61.5 44 -111.5v-32c0 -49.333 -14.667 -85.833 -44 -109.5s-68 -35.5 -116 -35.5zM330 756c26.667 0 47 5.66699 61 17
s21 30.333 21 57v32c0 26.667 -7 46.167 -21 58.5s-34.333 18.5 -61 18.5c-27.333 0 -47.833 -6.16699 -61.5 -18.5s-20.5 -31.833 -20.5 -58.5v-32c0 -26.667 6.83301 -45.667 20.5 -57s34.167 -17 61.5 -17z" />
    <glyph glyph-name="ae" unicode="&#xe6;" 
d="M671 144c-6.66699 -52.667 -23.499 -91.5029 -50.499 -116.503s-68.5 -37.5 -124.5 -37.5c-37.333 0 -69.333 7.33301 -96 22s-46.667 37.334 -60 68.001h-16c-15.333 -26 -34.333 -47.5 -57 -64.5s-52.334 -25.5 -89.001 -25.5c-34.667 0 -68 13.5 -100 40.5
s-48 70.5 -48 130.5c0 53.333 15.667 94.833 47 124.5s68 44.5 110 44.5h123v86c0 34.667 -8 62.334 -24 83.001s-39.333 31 -70 31c-28 0 -48 -6 -60 -18s-23.667 -38 -35 -78l-78 24c9.33301 48 28 85.333 56 112s69.667 40 125 40c27.333 0 52.166 -5.5 74.499 -16.5
s40.5 -27.833 54.5 -50.5c14.667 22.667 33.334 39.5 56.001 50.5s48.334 16.5 77.001 16.5c56 0 100.667 -16.5 134 -49.5s50 -84.167 50 -153.5v-127h-280v-98c0 -41.333 7.66699 -71.166 23 -89.499s39.333 -27.5 72 -27.5s55.667 6 69 18s22.666 35 27.999 69z
M390.001 413.997v-69h190v60c0 45.333 -7.83301 78.333 -23.5 99s-39.5 31 -71.5 31c-30.667 0 -54.167 -9.83301 -70.5 -29.5s-24.5 -50.167 -24.5 -91.5zM310.001 138.997l-0.00292969 126h-95c-27.333 0 -50 -7.16699 -68 -21.5s-27 -39.833 -27 -76.5
c0 -32 5.83301 -56.833 17.5 -74.5s31.834 -26.5 60.501 -26.5c22.667 0 42.834 6.5 60.501 19.5s34.834 30.833 51.501 53.5z" />
    <glyph glyph-name="ccedilla" unicode="&#xe7;" 
d="M364 -10c-87.333 0 -153.166 19.166 -197.499 57.499s-66.5 94.833 -66.5 169.5v162c0 76 22.167 133.5 66.5 172.5s109.833 58.5 196.5 58.5c77.333 0 136.833 -17.5 178.5 -52.5s64.834 -86.167 69.501 -153.5l-98 -6c-2.66699 41.333 -16.334 72 -41.001 92
s-61.334 30 -110.001 30c-54.667 0 -95.334 -11.5 -122.001 -34.5s-40 -58.5 -40 -106.5v-162c0 -46 13.5 -80.333 40.5 -103s68.167 -34 123.5 -34c48 0 84.333 8.5 109 25.5s38 42.5 40 76.5l98 -6c-4.66699 -61.333 -27.667 -107.666 -69 -138.999
s-100.666 -47 -177.999 -47zM316 -0.000976562l20 42c29.333 -5.33301 57.333 -17.833 84 -37.5s40 -51.5 40 -95.5c0 -43.333 -15 -75 -45 -95s-63.667 -30 -101 -30c-44 0 -79.833 8.16699 -107.5 24.5s-42.834 43.5 -45.501 81.5l88 10
c1.33301 -12.667 6.5 -21.5 15.5 -26.5s23.833 -7.5 44.5 -7.5c20 0 35.167 4.16699 45.5 12.5s15.5 23.833 15.5 46.5s-4.16699 39.5 -12.5 50.5s-22.166 19.167 -41.499 24.5z" />
    <glyph glyph-name="egrave" unicode="&#xe8;" 
d="M602 132c-18 -50 -45.332 -86.165 -81.999 -108.498s-93 -33.5 -169 -33.5c-79.333 0 -141 19.167 -185 57.5s-66 95.166 -66 170.499v161c0 77.333 23.167 135.166 69.5 173.499s106.833 57.5 181.5 57.5c75.333 0 135.666 -19.5 180.999 -58.5s68 -98.833 68 -179.5
v-92h-400v-63c0 -50 12.5 -86.167 37.5 -108.5s62.5 -33.5 112.5 -33.5c48 0 83 6.66699 105 20s38.667 35 50 65zM200.001 379.002v-24h300v15c0 54 -12.5 93.333 -37.5 118s-62.5 37 -112.5 37s-87.5 -11.833 -112.5 -35.5s-37.5 -60.5 -37.5 -110.5zM352.001 700.002
l-195 200h150l136 -200h-91z" />
    <glyph glyph-name="eacute" unicode="&#xe9;" 
d="M602 132c-18 -50 -45.332 -86.165 -81.999 -108.498s-93 -33.5 -169 -33.5c-79.333 0 -141 19.167 -185 57.5s-66 95.166 -66 170.499v161c0 77.333 23.167 135.166 69.5 173.499s106.833 57.5 181.5 57.5c75.333 0 135.666 -19.5 180.999 -58.5s68 -98.833 68 -179.5
v-92h-400v-63c0 -50 12.5 -86.167 37.5 -108.5s62.5 -33.5 112.5 -33.5c48 0 83 6.66699 105 20s38.667 35 50 65zM200.001 379.002v-24h300v15c0 54 -12.5 93.333 -37.5 118s-62.5 37 -112.5 37s-87.5 -11.833 -112.5 -35.5s-37.5 -60.5 -37.5 -110.5zM237.001 700.002
l136 200h150l-195 -200h-91z" />
    <glyph glyph-name="ecircumflex" unicode="&#xea;" 
d="M602 132c-18 -50 -45.332 -86.165 -81.999 -108.498s-93 -33.5 -169 -33.5c-79.333 0 -141 19.167 -185 57.5s-66 95.166 -66 170.499v161c0 77.333 23.167 135.166 69.5 173.499s106.833 57.5 181.5 57.5c75.333 0 135.666 -19.5 180.999 -58.5s68 -98.833 68 -179.5
v-92h-400v-63c0 -50 12.5 -86.167 37.5 -108.5s62.5 -33.5 112.5 -33.5c48 0 83 6.66699 105 20s38.667 35 50 65zM200.001 379.002v-24h300v15c0 54 -12.5 93.333 -37.5 118s-62.5 37 -112.5 37s-87.5 -11.833 -112.5 -35.5s-37.5 -60.5 -37.5 -110.5zM178.001 704.002
l-38 64l174 149h72l176 -149l-38 -64l-174 116z" />
    <glyph glyph-name="edieresis" unicode="&#xeb;" 
d="M602 132c-18 -50 -45.332 -86.165 -81.999 -108.498s-93 -33.5 -169 -33.5c-79.333 0 -141 19.167 -185 57.5s-66 95.166 -66 170.499v161c0 77.333 23.167 135.166 69.5 173.499s106.833 57.5 181.5 57.5c75.333 0 135.666 -19.5 180.999 -58.5s68 -98.833 68 -179.5
v-92h-400v-63c0 -50 12.5 -86.167 37.5 -108.5s62.5 -33.5 112.5 -33.5c48 0 83 6.66699 105 20s38.667 35 50 65zM200.001 379.002v-24h300v15c0 54 -12.5 93.333 -37.5 118s-62.5 37 -112.5 37s-87.5 -11.833 -112.5 -35.5s-37.5 -60.5 -37.5 -110.5zM236.001 710.002
c-19.333 0 -35 4 -47 12s-18 23 -18 45v7c0 22.667 6 38.167 18 46.5s27.667 12.5 47 12.5s35 -4.16699 47 -12.5s18 -23.833 18 -46.5v-7c0 -22 -6.16699 -37 -18.5 -45s-27.833 -12 -46.5 -12zM466.001 710.002c-19.333 0 -35 4 -47 12s-18 23 -18 45v7
c0 22.667 6 38.167 18 46.5s27.667 12.5 47 12.5s35 -4.16699 47 -12.5s18 -23.833 18 -46.5v-7c0 -22 -6.16699 -37 -18.5 -45s-27.833 -12 -46.5 -12z" />
    <glyph glyph-name="igrave" unicode="&#xec;" 
d="M100 0v90h200v420h-200v90h300v-510h200v-90h-500zM351 700l-195 200h150l136 -200h-91z" />
    <glyph glyph-name="iacute" unicode="&#xed;" 
d="M100 0v90h200v420h-200v90h300v-510h200v-90h-500zM236 700l136 200h150l-195 -200h-91z" />
    <glyph glyph-name="icircumflex" unicode="&#xee;" 
d="M100 0v90h200v420h-200v90h300v-510h200v-90h-500zM177 704l-38 64l174 149h72l176 -149l-38 -64l-174 116z" />
    <glyph glyph-name="idieresis" unicode="&#xef;" 
d="M100 0v90h200v420h-200v90h300v-510h200v-90h-500zM235 710c-19.333 0 -35 4 -47 12s-18 23 -18 45v7c0 22.667 6 38.167 18 46.5s27.667 12.5 47 12.5s35 -4.16699 47 -12.5s18 -23.833 18 -46.5v-7c0 -22 -6.16699 -37 -18.5 -45s-27.833 -12 -46.5 -12zM465 710
c-19.333 0 -35 4 -47 12s-18 23 -18 45v7c0 22.667 6 38.167 18 46.5s27.667 12.5 47 12.5s35 -4.16699 47 -12.5s18 -23.833 18 -46.5v-7c0 -22 -6.16699 -37 -18.5 -45s-27.833 -12 -46.5 -12z" />
    <glyph glyph-name="eth" unicode="&#xf0;" 
d="M350 -10c-74.667 0 -134.999 18.998 -180.999 56.998s-69 95.667 -69 173v72c0 64 21.167 114.667 63.5 152s97.166 56 164.499 56c42 0 76.333 -7.33301 103 -22s45.334 -32 56.001 -52h22c-2.66699 42.667 -9.33398 80.667 -20.001 114s-26 62.333 -46 87l-193 -87v80
l134 60c-22 14.667 -47.667 28 -77 40s-62 22.667 -98 32l26 69c50 -13.333 94 -28.666 132 -45.999s70.667 -36.666 98 -57.999l185 83v-80l-129 -58c28.667 -36 49 -77.5 61 -124.5s18 -100.5 18 -160.5v-151c0 -82 -23 -141.833 -69 -179.5s-106.333 -56.5 -181 -56.5z
M351.001 79.998c54 0 92.333 11.5 115 34.5s34 57.5 34 103.5v63c0 42.667 -11.333 74.667 -34 96s-61 32 -115 32s-92.333 -10.667 -115 -32s-34 -53.333 -34 -96v-63c0 -46 11.333 -80.5 34 -103.5s61 -34.5 115 -34.5z" />
    <glyph glyph-name="ntilde" unicode="&#xf1;" 
d="M100 0v600h100v-100h30c14.667 34 37.667 60.833 69 80.5s67 29.5 107 29.5c60 0 107.333 -18.333 142 -55s52 -86.667 52 -150v-405h-100v385c0 42 -10.167 74.167 -30.5 96.5s-49.5 33.5 -87.5 33.5c-30 0 -60.5 -9 -91.5 -27s-61.167 -44 -90.5 -78v-410h-100z
M449 710c-22.667 0 -41.8311 6 -57.498 18s-29.5 25.333 -41.5 40l-33.5 39c-10.333 12 -21.5 18 -33.5 18c-12.667 0 -23.667 -6.16699 -33 -18.5s-13.666 -37.5 -12.999 -75.5v-11h-77v15c0 50 11.333 91.667 34 125s55 50 97 50c25.333 0 46.166 -6 62.499 -18
s30.166 -25 41.499 -39l31 -40c9.33301 -12 19.666 -18 30.999 -18c12.667 0 23.5 6.16699 32.5 18.5s13.5 37.5 13.5 75.5v11h77v-15c0 -50.667 -11.333 -92.5 -34 -125.5s-55 -49.5 -97 -49.5z" />
    <glyph glyph-name="ograve" unicode="&#xf2;" 
d="M350 -10c-80.667 0 -142.5 19.5 -185.5 58.5s-64.5 95.167 -64.5 168.5v162c0 74 21.667 131 65 171s105.333 60 186 60c80 0 141.5 -20 184.5 -60s64.5 -97 64.5 -171v-162c0 -73.333 -21.5 -129.5 -64.5 -168.5s-104.833 -58.5 -185.5 -58.5zM350 80
c50.667 0 88.334 11.333 113.001 34s37 57 37 103v162c0 48 -12.333 83.5 -37 106.5s-62.334 34.5 -113.001 34.5s-88.334 -11.5 -113.001 -34.5s-37 -58.5 -37 -106.5v-162c0 -46 12.333 -80.333 37 -103s62.334 -34 113.001 -34zM351 700l-195 200h150l136 -200h-91z" />
    <glyph glyph-name="oacute" unicode="&#xf3;" 
d="M350 -10c-80.667 0 -142.5 19.5 -185.5 58.5s-64.5 95.167 -64.5 168.5v162c0 74 21.667 131 65 171s105.333 60 186 60c80 0 141.5 -20 184.5 -60s64.5 -97 64.5 -171v-162c0 -73.333 -21.5 -129.5 -64.5 -168.5s-104.833 -58.5 -185.5 -58.5zM350 80
c50.667 0 88.334 11.333 113.001 34s37 57 37 103v162c0 48 -12.333 83.5 -37 106.5s-62.334 34.5 -113.001 34.5s-88.334 -11.5 -113.001 -34.5s-37 -58.5 -37 -106.5v-162c0 -46 12.333 -80.333 37 -103s62.334 -34 113.001 -34zM236 700l136 200h150l-195 -200h-91z" />
    <glyph glyph-name="ocircumflex" unicode="&#xf4;" 
d="M350 -10c-80.667 0 -142.5 19.5 -185.5 58.5s-64.5 95.167 -64.5 168.5v162c0 74 21.667 131 65 171s105.333 60 186 60c80 0 141.5 -20 184.5 -60s64.5 -97 64.5 -171v-162c0 -73.333 -21.5 -129.5 -64.5 -168.5s-104.833 -58.5 -185.5 -58.5zM350 80
c50.667 0 88.334 11.333 113.001 34s37 57 37 103v162c0 48 -12.333 83.5 -37 106.5s-62.334 34.5 -113.001 34.5s-88.334 -11.5 -113.001 -34.5s-37 -58.5 -37 -106.5v-162c0 -46 12.333 -80.333 37 -103s62.334 -34 113.001 -34zM177 704l-38 64l174 149h72l176 -149
l-38 -64l-174 116z" />
    <glyph glyph-name="otilde" unicode="&#xf5;" 
d="M350 -10c-80.667 0 -142.5 19.5 -185.5 58.5s-64.5 95.167 -64.5 168.5v162c0 74 21.667 131 65 171s105.333 60 186 60c80 0 141.5 -20 184.5 -60s64.5 -97 64.5 -171v-162c0 -73.333 -21.5 -129.5 -64.5 -168.5s-104.833 -58.5 -185.5 -58.5zM350 80
c50.667 0 88.334 11.333 113.001 34s37 57 37 103v162c0 48 -12.333 83.5 -37 106.5s-62.334 34.5 -113.001 34.5s-88.334 -11.5 -113.001 -34.5s-37 -58.5 -37 -106.5v-162c0 -46 12.333 -80.333 37 -103s62.334 -34 113.001 -34zM429 710c-22.667 0 -41.8311 6 -57.498 18
s-29.5 25.333 -41.5 40l-33.5 39c-10.333 12 -21.5 18 -33.5 18c-12.667 0 -23.667 -6.16699 -33 -18.5s-13.666 -37.5 -12.999 -75.5v-11h-77v15c0 50 11.333 91.667 34 125s55 50 97 50c25.333 0 46.166 -6 62.499 -18s30.166 -25 41.499 -39l31 -40
c9.33301 -12 19.666 -18 30.999 -18c12.667 0 23.5 6.16699 32.5 18.5s13.5 37.5 13.5 75.5v11h77v-15c0 -50.667 -11.333 -92.5 -34 -125.5s-55 -49.5 -97 -49.5z" />
    <glyph glyph-name="odieresis" unicode="&#xf6;" 
d="M350 -10c-80.667 0 -142.5 19.5 -185.5 58.5s-64.5 95.167 -64.5 168.5v162c0 74 21.667 131 65 171s105.333 60 186 60c80 0 141.5 -20 184.5 -60s64.5 -97 64.5 -171v-162c0 -73.333 -21.5 -129.5 -64.5 -168.5s-104.833 -58.5 -185.5 -58.5zM350 80
c50.667 0 88.334 11.333 113.001 34s37 57 37 103v162c0 48 -12.333 83.5 -37 106.5s-62.334 34.5 -113.001 34.5s-88.334 -11.5 -113.001 -34.5s-37 -58.5 -37 -106.5v-162c0 -46 12.333 -80.333 37 -103s62.334 -34 113.001 -34zM235 710c-19.333 0 -35 4 -47 12
s-18 23 -18 45v7c0 22.667 6 38.167 18 46.5s27.667 12.5 47 12.5s35 -4.16699 47 -12.5s18 -23.833 18 -46.5v-7c0 -22 -6.16699 -37 -18.5 -45s-27.833 -12 -46.5 -12zM465 710c-19.333 0 -35 4 -47 12s-18 23 -18 45v7c0 22.667 6 38.167 18 46.5s27.667 12.5 47 12.5
s35 -4.16699 47 -12.5s18 -23.833 18 -46.5v-7c0 -22 -6.16699 -37 -18.5 -45s-27.833 -12 -46.5 -12z" />
    <glyph glyph-name="divide" unicode="&#xf7;" 
d="M350 526c-25.333 0 -46 5.16699 -62 15.5s-24 26.5 -24 48.5v17c0 22.667 8 39.334 24 50.001s36.667 16 62 16s45.833 -5.33301 61.5 -16s23.5 -27.334 23.5 -50.001v-17c0 -22 -8 -38.167 -24 -48.5s-36.333 -15.5 -61 -15.5zM70 300v100h560v-100h-560zM350 26
c-25.333 0 -46 5.16699 -62 15.5s-24 26.5 -24 48.5v17c0 22.667 8 39.334 24 50.001s36.667 16 62 16s45.833 -5.33301 61.5 -16s23.5 -27.334 23.5 -50.001v-17c0 -22 -8 -38.167 -24 -48.5s-36.333 -15.5 -61 -15.5z" />
    <glyph glyph-name="oslash" unicode="&#xf8;" 
d="M200 217c0 -19.333 2 -36.666 6 -51.999s10 -28.333 18 -39l192 386c-9.33301 2.66699 -19.5 4.66699 -30.5 6s-22.833 2 -35.5 2c-52 0 -90 -11.333 -114 -34s-36 -58.334 -36 -107.001v-162zM350 80c52 0 90.001 10.999 114.001 32.999s36 56.667 36 104v162
c0 20 -2 37.833 -6 53.5s-10 28.834 -18 39.501l-193 -384c9.33301 -2.66699 19.666 -4.66699 30.999 -6s23.333 -2 36 -2zM350.001 -10.001c-18 0 -35.332 1 -51.999 3s-32.334 5.33301 -47.001 10l-51 -103h-100l72 143c-22.667 18.667 -40.334 42.5 -53.001 71.5
s-19 63.167 -19 102.5v162c0 78 23.167 136 69.5 174s106.833 57 181.5 57c18 0 35.167 -1 51.5 -3s31.833 -5.33301 46.5 -10l51 103h100l-72 -143c22.667 -18.667 40.334 -43 53.001 -73s19 -65 19 -105v-162c0 -77.333 -23 -134.5 -69 -171.5s-106.333 -55.5 -181 -55.5z
" />
    <glyph glyph-name="ugrave" unicode="&#xf9;" 
d="M294 -10c-58 0 -104.834 18.833 -140.501 56.5s-53.5 87.167 -53.5 148.5v405h100v-385c0 -44 9.66699 -76.667 29 -98s49 -32 89 -32c31.333 0 61.833 8.5 91.5 25.5s59.834 43.5 90.501 79.5v410h100v-600h-100v100h-30c-14 -32.667 -37.167 -59.167 -69.5 -79.5
s-67.833 -30.5 -106.5 -30.5zM320.999 700l-195 200h150l136 -200h-91z" />
    <glyph glyph-name="uacute" unicode="&#xfa;" 
d="M294 -10c-58 0 -104.834 18.833 -140.501 56.5s-53.5 87.167 -53.5 148.5v405h100v-385c0 -44 9.66699 -76.667 29 -98s49 -32 89 -32c31.333 0 61.833 8.5 91.5 25.5s59.834 43.5 90.501 79.5v410h100v-600h-100v100h-30c-14 -32.667 -37.167 -59.167 -69.5 -79.5
s-67.833 -30.5 -106.5 -30.5zM275.999 700l136 200h150l-195 -200h-91z" />
    <glyph glyph-name="ucircumflex" unicode="&#xfb;" 
d="M294 -10c-58 0 -104.834 18.833 -140.501 56.5s-53.5 87.167 -53.5 148.5v405h100v-385c0 -44 9.66699 -76.667 29 -98s49 -32 89 -32c31.333 0 61.833 8.5 91.5 25.5s59.834 43.5 90.501 79.5v410h100v-600h-100v100h-30c-14 -32.667 -37.167 -59.167 -69.5 -79.5
s-67.833 -30.5 -106.5 -30.5zM176.999 704l-38 64l174 149h72l176 -149l-38 -64l-174 116z" />
    <glyph glyph-name="udieresis" unicode="&#xfc;" 
d="M294 -10c-58 0 -104.834 18.833 -140.501 56.5s-53.5 87.167 -53.5 148.5v405h100v-385c0 -44 9.66699 -76.667 29 -98s49 -32 89 -32c31.333 0 61.833 8.5 91.5 25.5s59.834 43.5 90.501 79.5v410h100v-600h-100v100h-30c-14 -32.667 -37.167 -59.167 -69.5 -79.5
s-67.833 -30.5 -106.5 -30.5zM234.999 710c-19.333 0 -35 4 -47 12s-18 23 -18 45v7c0 22.667 6 38.167 18 46.5s27.667 12.5 47 12.5s35 -4.16699 47 -12.5s18 -23.833 18 -46.5v-7c0 -22 -6.16699 -37 -18.5 -45s-27.833 -12 -46.5 -12zM464.999 710
c-19.333 0 -35 4 -47 12s-18 23 -18 45v7c0 22.667 6 38.167 18 46.5s27.667 12.5 47 12.5s35 -4.16699 47 -12.5s18 -23.833 18 -46.5v-7c0 -22 -6.16699 -37 -18.5 -45s-27.833 -12 -46.5 -12z" />
    <glyph glyph-name="yacute" unicode="&#xfd;" 
d="M172 -206c-16 0 -31.6689 1.00098 -47.002 3.00098s-31 4.66699 -47 8l17 89c17.333 -4 33.5 -7 48.5 -9s28.833 -3 41.5 -3c30.667 0 57.834 8.66699 81.501 26s41.834 45 54.501 83l3 9h-37l-213 600h109l169 -516l168 516h105l-220 -620
c-22.667 -64.667 -53.5 -111.834 -92.5 -141.501s-85.833 -44.5 -140.5 -44.5zM235.998 700.001l136 200h150l-195 -200h-91z" />
    <glyph glyph-name="thorn" unicode="&#xfe;" 
d="M341 78c54.667 0 94.8311 11.5 120.498 34.5s38.5 59.167 38.5 108.5v162c0 46 -9.66699 79.5 -29 100.5s-49.666 31.5 -90.999 31.5c-32.667 0 -63.667 -8.5 -93 -25.5s-58.333 -43.5 -87 -79.5v-294c22 -12.667 44.333 -22.167 67 -28.5s47.334 -9.5 74.001 -9.5z
M341.997 -10c-23.333 0 -47.6699 2.5 -73.0029 7.5s-48.333 11.833 -69 20.5v-218h-100v1000h100v-300h30c16.667 34 40.834 60.833 72.501 80.5s65.834 29.5 102.501 29.5c60 0 107.5 -20.5 142.5 -61.5s52.5 -96.5 52.5 -166.5v-163c0 -70 -23.167 -125.667 -69.5 -167
s-109.166 -62 -188.499 -62z" />
    <glyph glyph-name="ydieresis" unicode="&#xff;" 
d="M172 -206c-16 0 -31.6689 1.00098 -47.002 3.00098s-31 4.66699 -47 8l17 89c17.333 -4 33.5 -7 48.5 -9s28.833 -3 41.5 -3c30.667 0 57.834 8.66699 81.501 26s41.834 45 54.501 83l3 9h-37l-213 600h109l169 -516l168 516h105l-220 -620
c-22.667 -64.667 -53.5 -111.834 -92.5 -141.501s-85.833 -44.5 -140.5 -44.5zM234.998 710.001c-19.333 0 -35 4 -47 12s-18 23 -18 45v7c0 22.667 6 38.167 18 46.5s27.667 12.5 47 12.5s35 -4.16699 47 -12.5s18 -23.833 18 -46.5v-7c0 -22 -6.16699 -37 -18.5 -45
s-27.833 -12 -46.5 -12zM464.998 710.001c-19.333 0 -35 4 -47 12s-18 23 -18 45v7c0 22.667 6 38.167 18 46.5s27.667 12.5 47 12.5s35 -4.16699 47 -12.5s18 -23.833 18 -46.5v-7c0 -22 -6.16699 -37 -18.5 -45s-27.833 -12 -46.5 -12z" />
    <glyph glyph-name="Amacron" unicode="&#x100;" 
d="M459 320l-110 367l-111 -367h221zM555 0l-69 230h-275l-69 -230h-102l258 800h105l258 -800h-106zM151 955v90h400v-90h-400z" />
    <glyph glyph-name="amacron" unicode="&#x101;" 
d="M278 76c34.667 0 66.6689 6.16699 96.002 18.5s54.666 33.833 75.999 64.5v96h-180c-28.667 0 -52.5 -6.5 -71.5 -19.5s-28.5 -35.833 -28.5 -68.5c0 -28.667 8.16699 -51 24.5 -67s44.166 -24 83.499 -24zM265.002 -10c-50.667 0 -95.8359 13.5 -135.503 40.5
s-59.5 70.5 -59.5 130.5c0 52.667 17.167 94 51.5 124s74.5 45 120.5 45h208v86c0 32 -10.667 57.333 -32 76s-53.666 28 -96.999 28c-44 0 -76.833 -6.5 -98.5 -19.5s-38.834 -41.833 -51.501 -86.5l-88 24c11.333 56.667 36.833 99.5 76.5 128.5s92.834 43.5 159.501 43.5
c66 0 121 -14.833 165 -44.5s66 -75.5 66 -137.5v-268c0 -36 10 -58.5 30 -67.5s50 -10.167 90 -3.5v-92c-41.333 -6 -80.166 -3.16699 -116.499 8.5s-56.166 43.167 -59.499 94.5h-20c-18.667 -30.667 -46.667 -56.667 -84 -78s-79 -32 -125 -32zM130 755v90h400v-90h-400z
" />
    <glyph glyph-name="Abreve" unicode="&#x102;" 
d="M459 320l-110 367l-111 -367h221zM555 0l-69 230h-275l-69 -230h-102l258 800h105l258 -800h-106zM351 893c-64.667 0 -119.332 15.667 -163.999 47s-67.334 85.666 -68.001 162.999h100c0.666992 -48 11.834 -81.833 33.501 -101.5s54.5 -29.5 98.5 -29.5
s76.833 9.83301 98.5 29.5s32.834 53.5 33.501 101.5h100c-0.666992 -77.333 -23.334 -131.666 -68.001 -162.999s-99.334 -47 -164.001 -47z" />
    <glyph glyph-name="abreve" unicode="&#x103;" 
d="M278 76c34.667 0 66.6689 6.16699 96.002 18.5s54.666 33.833 75.999 64.5v96h-180c-28.667 0 -52.5 -6.5 -71.5 -19.5s-28.5 -35.833 -28.5 -68.5c0 -28.667 8.16699 -51 24.5 -67s44.166 -24 83.499 -24zM265.002 -10c-50.667 0 -95.8359 13.5 -135.503 40.5
s-59.5 70.5 -59.5 130.5c0 52.667 17.167 94 51.5 124s74.5 45 120.5 45h208v86c0 32 -10.667 57.333 -32 76s-53.666 28 -96.999 28c-44 0 -76.833 -6.5 -98.5 -19.5s-38.834 -41.833 -51.501 -86.5l-88 24c11.333 56.667 36.833 99.5 76.5 128.5s92.834 43.5 159.501 43.5
c66 0 121 -14.833 165 -44.5s66 -75.5 66 -137.5v-268c0 -36 10 -58.5 30 -67.5s50 -10.167 90 -3.5v-92c-41.333 -6 -80.166 -3.16699 -116.499 8.5s-56.166 43.167 -59.499 94.5h-20c-18.667 -30.667 -46.667 -56.667 -84 -78s-79 -32 -125 -32zM330 693
c-64.667 0 -119.332 15.667 -163.999 47s-67.334 85.666 -68.001 162.999h100c0.666992 -48 11.834 -81.833 33.501 -101.5s54.5 -29.5 98.5 -29.5s76.833 9.83301 98.5 29.5s32.834 53.5 33.501 101.5h100c-0.666992 -77.333 -23.334 -131.666 -68.001 -162.999
s-99.334 -47 -164.001 -47z" />
    <glyph glyph-name="Aogonek" unicode="&#x104;" 
d="M459 320l-110 367l-111 -367h221zM555 0l-69 230h-275l-69 -230h-102l258 800h105l258 -800h-106zM622 -215c-42 0 -77.501 10.501 -106.501 31.501s-43.5 50.167 -43.5 87.5c0 32.667 12.667 61.667 38 87s53.333 44 84 56l27 -24
c-22.667 -14 -38.167 -29.333 -46.5 -46s-12.5 -31.667 -12.5 -45c0 -18.667 6.16699 -32.834 18.5 -42.501s29.833 -14.5 52.5 -14.5c12 0 27.167 1 45.5 3s32.833 4.33301 43.5 7v-90c-12.667 -2.66699 -28.667 -5 -48 -7s-36.666 -3 -51.999 -3z" />
    <glyph glyph-name="aogonek" unicode="&#x105;" 
d="M278 76c34.667 0 66.6689 6.16699 96.002 18.5s54.666 33.833 75.999 64.5v96h-180c-28.667 0 -52.5 -6.5 -71.5 -19.5s-28.5 -35.833 -28.5 -68.5c0 -28.667 8.16699 -51 24.5 -67s44.166 -24 83.499 -24zM265.002 -10c-50.667 0 -95.8359 13.5 -135.503 40.5
s-59.5 70.5 -59.5 130.5c0 52.667 17.167 94 51.5 124s74.5 45 120.5 45h208v86c0 32 -10.667 57.333 -32 76s-53.666 28 -96.999 28c-44 0 -76.833 -6.5 -98.5 -19.5s-38.834 -41.833 -51.501 -86.5l-88 24c11.333 56.667 36.833 99.5 76.5 128.5s92.834 43.5 159.501 43.5
c66 0 121 -14.833 165 -44.5s66 -75.5 66 -137.5v-268c0 -36 10 -58.5 30 -67.5s50 -10.167 90 -3.5v-92c-41.333 -6 -80.166 -3.16699 -116.499 8.5s-56.166 43.167 -59.499 94.5h-20c-18.667 -30.667 -46.667 -56.667 -84 -78s-79 -32 -125 -32zM600 -215
c-42 0 -77.501 10.501 -106.501 31.501s-43.5 50.167 -43.5 87.5c0 32.667 12.667 61.667 38 87s53.333 44 84 56l27 -24c-22.667 -14 -38.167 -29.333 -46.5 -46s-12.5 -31.667 -12.5 -45c0 -18.667 6.16699 -32.834 18.5 -42.501s29.833 -14.5 52.5 -14.5
c12 0 27.167 1 45.5 3s32.833 4.33301 43.5 7v-90c-12.667 -2.66699 -28.667 -5 -48 -7s-36.666 -3 -51.999 -3z" />
    <glyph glyph-name="Cacute" unicode="&#x106;" 
d="M360 -10c-93.333 0 -163.333 23.832 -210 71.499s-70 119.5 -70 215.5v242c0 97.333 23.333 170.166 70 218.499s117 72.5 211 72.5c92 0 160.167 -21.5 204.5 -64.5s69.166 -111.833 74.499 -206.5l-100 -10c-6.66699 72 -22.834 121.833 -48.501 149.5
s-69.5 41.5 -131.5 41.5c-66 0 -112.5 -15.167 -139.5 -45.5s-40.5 -82.166 -40.5 -155.499v-242c0 -72 13.5 -122.833 40.5 -152.5s73.5 -44.5 139.5 -44.5c62 0 105.833 13.5 131.5 40.5s41.834 75.833 48.501 146.5l100 -10
c-5.33301 -93.333 -30.166 -161.166 -74.499 -203.499s-112.833 -63.5 -205.5 -63.5zM286 899.999l136 200h150l-195 -200h-91z" />
    <glyph glyph-name="cacute" unicode="&#x107;" 
d="M364 -10c-87.333 0 -153.166 19.166 -197.499 57.499s-66.5 94.833 -66.5 169.5v162c0 76 22.167 133.5 66.5 172.5s109.833 58.5 196.5 58.5c77.333 0 136.833 -17.5 178.5 -52.5s64.834 -86.167 69.501 -153.5l-98 -6c-2.66699 41.333 -16.334 72 -41.001 92
s-61.334 30 -110.001 30c-54.667 0 -95.334 -11.5 -122.001 -34.5s-40 -58.5 -40 -106.5v-162c0 -46 13.5 -80.333 40.5 -103s68.167 -34 123.5 -34c48 0 84.333 8.5 109 25.5s38 42.5 40 76.5l98 -6c-4.66699 -61.333 -27.667 -107.666 -69 -138.999
s-100.666 -47 -177.999 -47zM242 699.999l136 200h150l-195 -200h-91z" />
    <glyph glyph-name="Ccircumflex" unicode="&#x108;" 
d="M360 -10c-93.333 0 -163.333 23.832 -210 71.499s-70 119.5 -70 215.5v242c0 97.333 23.333 170.166 70 218.499s117 72.5 211 72.5c92 0 160.167 -21.5 204.5 -64.5s69.166 -111.833 74.499 -206.5l-100 -10c-6.66699 72 -22.834 121.833 -48.501 149.5
s-69.5 41.5 -131.5 41.5c-66 0 -112.5 -15.167 -139.5 -45.5s-40.5 -82.166 -40.5 -155.499v-242c0 -72 13.5 -122.833 40.5 -152.5s73.5 -44.5 139.5 -44.5c62 0 105.833 13.5 131.5 40.5s41.834 75.833 48.501 146.5l100 -10
c-5.33301 -93.333 -30.166 -161.166 -74.499 -203.499s-112.833 -63.5 -205.5 -63.5zM187 903.999l-38 64l174 149h72l176 -149l-38 -64l-174 116z" />
    <glyph glyph-name="ccircumflex" unicode="&#x109;" 
d="M364 -10c-87.333 0 -153.166 19.166 -197.499 57.499s-66.5 94.833 -66.5 169.5v162c0 76 22.167 133.5 66.5 172.5s109.833 58.5 196.5 58.5c77.333 0 136.833 -17.5 178.5 -52.5s64.834 -86.167 69.501 -153.5l-98 -6c-2.66699 41.333 -16.334 72 -41.001 92
s-61.334 30 -110.001 30c-54.667 0 -95.334 -11.5 -122.001 -34.5s-40 -58.5 -40 -106.5v-162c0 -46 13.5 -80.333 40.5 -103s68.167 -34 123.5 -34c48 0 84.333 8.5 109 25.5s38 42.5 40 76.5l98 -6c-4.66699 -61.333 -27.667 -107.666 -69 -138.999
s-100.666 -47 -177.999 -47zM193 703.999l-38 64l174 149h72l176 -149l-38 -64l-174 116z" />
    <glyph glyph-name="Cdotaccent" unicode="&#x10a;" 
d="M360 -10c-93.333 0 -163.333 23.832 -210 71.499s-70 119.5 -70 215.5v242c0 97.333 23.333 170.166 70 218.499s117 72.5 211 72.5c92 0 160.167 -21.5 204.5 -64.5s69.166 -111.833 74.499 -206.5l-100 -10c-6.66699 72 -22.834 121.833 -48.501 149.5
s-69.5 41.5 -131.5 41.5c-66 0 -112.5 -15.167 -139.5 -45.5s-40.5 -82.166 -40.5 -155.499v-242c0 -72 13.5 -122.833 40.5 -152.5s73.5 -44.5 139.5 -44.5c62 0 105.833 13.5 131.5 40.5s41.834 75.833 48.501 146.5l100 -10
c-5.33301 -93.333 -30.166 -161.166 -74.499 -203.499s-112.833 -63.5 -205.5 -63.5zM360 909.999c-25.333 0 -45.833 4 -61.5 12s-23.5 23 -23.5 45v7c0 22.667 7.83301 38.167 23.5 46.5s36.167 12.5 61.5 12.5s45.833 -4.16699 61.5 -12.5s23.5 -23.833 23.5 -46.5v-7
c0 -22 -8 -37 -24 -45s-36.333 -12 -61 -12z" />
    <glyph glyph-name="cdotaccent" unicode="&#x10b;" 
d="M364 -10c-87.333 0 -153.166 19.166 -197.499 57.499s-66.5 94.833 -66.5 169.5v162c0 76 22.167 133.5 66.5 172.5s109.833 58.5 196.5 58.5c77.333 0 136.833 -17.5 178.5 -52.5s64.834 -86.167 69.501 -153.5l-98 -6c-2.66699 41.333 -16.334 72 -41.001 92
s-61.334 30 -110.001 30c-54.667 0 -95.334 -11.5 -122.001 -34.5s-40 -58.5 -40 -106.5v-162c0 -46 13.5 -80.333 40.5 -103s68.167 -34 123.5 -34c48 0 84.333 8.5 109 25.5s38 42.5 40 76.5l98 -6c-4.66699 -61.333 -27.667 -107.666 -69 -138.999
s-100.666 -47 -177.999 -47zM356 709.999c-25.333 0 -45.833 4 -61.5 12s-23.5 23 -23.5 45v7c0 22.667 7.83301 38.167 23.5 46.5s36.167 12.5 61.5 12.5s45.833 -4.16699 61.5 -12.5s23.5 -23.833 23.5 -46.5v-7c0 -22 -8 -37 -24 -45s-36.333 -12 -61 -12z" />
    <glyph glyph-name="Ccaron" unicode="&#x10c;" 
d="M360 -10c-93.333 0 -163.333 23.832 -210 71.499s-70 119.5 -70 215.5v242c0 97.333 23.333 170.166 70 218.499s117 72.5 211 72.5c92 0 160.167 -21.5 204.5 -64.5s69.166 -111.833 74.499 -206.5l-100 -10c-6.66699 72 -22.834 121.833 -48.501 149.5
s-69.5 41.5 -131.5 41.5c-66 0 -112.5 -15.167 -139.5 -45.5s-40.5 -82.166 -40.5 -155.499v-242c0 -72 13.5 -122.833 40.5 -152.5s73.5 -44.5 139.5 -44.5c62 0 105.833 13.5 131.5 40.5s41.834 75.833 48.501 146.5l100 -10
c-5.33301 -93.333 -30.166 -161.166 -74.499 -203.499s-112.833 -63.5 -205.5 -63.5zM325 903.999l-176 149l38 64l174 -116l172 116l38 -64l-174 -149h-72z" />
    <glyph glyph-name="ccaron" unicode="&#x10d;" 
d="M364 -10c-87.333 0 -153.166 19.166 -197.499 57.499s-66.5 94.833 -66.5 169.5v162c0 76 22.167 133.5 66.5 172.5s109.833 58.5 196.5 58.5c77.333 0 136.833 -17.5 178.5 -52.5s64.834 -86.167 69.501 -153.5l-98 -6c-2.66699 41.333 -16.334 72 -41.001 92
s-61.334 30 -110.001 30c-54.667 0 -95.334 -11.5 -122.001 -34.5s-40 -58.5 -40 -106.5v-162c0 -46 13.5 -80.333 40.5 -103s68.167 -34 123.5 -34c48 0 84.333 8.5 109 25.5s38 42.5 40 76.5l98 -6c-4.66699 -61.333 -27.667 -107.666 -69 -138.999
s-100.666 -47 -177.999 -47zM321 703.999l-176 149l38 64l174 -116l172 116l38 -64l-174 -149h-72z" />
    <glyph glyph-name="Dcaron" unicode="&#x10e;" 
d="M100 0l-0.000976562 800h221c93.333 0 166.5 -26.5 219.5 -79.5s79.5 -123.5 79.5 -211.5v-222c0 -87.333 -26.667 -157 -80 -209s-126.666 -78 -219.999 -78h-220zM199.999 90h120c67.333 0 117.5 18.167 150.5 54.5s49.5 83.833 49.5 142.5v222
c0 58 -16.5 106 -49.5 144s-83.167 57 -150.5 57h-120v-620zM314.999 904l-176 149l38 64l174 -116l172 116l38 -64l-174 -149h-72z" />
    <glyph glyph-name="dcaron" unicode="&#x10f;" 
d="M320 85c32.667 0 63.667 8.66797 93 26.001s58.333 43.666 87 78.999v294c-20.667 12.667 -42.667 22.167 -66 28.5s-48.333 9.5 -75 9.5c-54 0 -94 -11.833 -120 -35.5s-39 -59.5 -39 -107.5v-161c0 -44.667 10 -78 30 -100s50 -33 90 -33zM470 100.001
c-17.333 -34.667 -41.332 -61.667 -71.999 -81s-65 -29 -103 -29c-62 0 -110 20 -144 60s-51 96 -51 168v163c0 72.667 22.667 129 68 169s108.666 60 189.999 60c23.333 0 47.333 -2.5 72 -7.5s48 -11.833 70 -20.5v218h100v-800h-100v100h-30zM696.001 705.001l81 295h147
l-156 -295h-72z" />
    <glyph glyph-name="Dcroat" unicode="&#x110;" 
d="M100 0l-0.000976562 395h-100v90h100v315h221c93.333 0 166.5 -26.5 219.5 -79.5s79.5 -123.5 79.5 -211.5v-222c0 -87.333 -26.667 -157 -80 -209s-126.666 -78 -219.999 -78h-220zM199.999 90h120c67.333 0 117.5 18.167 150.5 54.5s49.5 83.833 49.5 142.5v222
c0 58 -16.5 106 -49.5 144s-83.167 57 -150.5 57h-120v-225h150v-90h-150v-305z" />
    <glyph glyph-name="dcroat" unicode="&#x111;" 
d="M320 85c32.667 0 63.668 8.5 93.001 25.5s58.333 43.5 87 79.5v244c-20.667 12.667 -42.334 22.167 -65.001 28.5s-48 9.5 -76 9.5c-54 0 -93.667 -11.5 -119 -34.5s-38 -59.167 -38 -108.5v-101c0 -49.333 9.5 -85.5 28.5 -108.5s48.833 -34.5 89.5 -34.5zM470.001 100
c-16.667 -34 -40.8311 -60.833 -72.498 -80.5s-65.834 -29.5 -102.501 -29.5c-60 0 -107.5 20.5 -142.5 61.5s-52.5 96.5 -52.5 166.5v113c0 70 23.167 125.667 69.5 167s109.166 62 188.499 62c22.667 0 46.5 -2.66699 71.5 -8s48.5 -12.333 70.5 -21v99h-200v80h200v90
h100v-90h100v-80h-100v-630h-100v100h-30z" />
    <glyph glyph-name="Emacron" unicode="&#x112;" 
d="M100 0v800h520v-90h-420v-230h370v-90h-370v-300h420v-90h-520zM170 955v90h400v-90h-400z" />
    <glyph glyph-name="emacron" unicode="&#x113;" 
d="M602 132c-18 -50 -45.332 -86.165 -81.999 -108.498s-93 -33.5 -169 -33.5c-79.333 0 -141 19.167 -185 57.5s-66 95.166 -66 170.499v161c0 77.333 23.167 135.166 69.5 173.499s106.833 57.5 181.5 57.5c75.333 0 135.666 -19.5 180.999 -58.5s68 -98.833 68 -179.5
v-92h-400v-63c0 -50 12.5 -86.167 37.5 -108.5s62.5 -33.5 112.5 -33.5c48 0 83 6.66699 105 20s38.667 35 50 65zM200.001 379.002v-24h300v15c0 54 -12.5 93.333 -37.5 118s-62.5 37 -112.5 37s-87.5 -11.833 -112.5 -35.5s-37.5 -60.5 -37.5 -110.5zM151.001 755.002v90
h400v-90h-400z" />
    <glyph glyph-name="Ebreve" unicode="&#x114;" 
d="M100 0v800h520v-90h-420v-230h370v-90h-370v-300h420v-90h-520zM370 893c-64.667 0 -119.332 15.667 -163.999 47s-67.334 85.666 -68.001 162.999h100c0.666992 -48 11.834 -81.833 33.501 -101.5s54.5 -29.5 98.5 -29.5s76.833 9.83301 98.5 29.5
s32.834 53.5 33.501 101.5h100c-0.666992 -77.333 -23.334 -131.666 -68.001 -162.999s-99.334 -47 -164.001 -47z" />
    <glyph glyph-name="ebreve" unicode="&#x115;" 
d="M602 132c-18 -50 -45.332 -86.165 -81.999 -108.498s-93 -33.5 -169 -33.5c-79.333 0 -141 19.167 -185 57.5s-66 95.166 -66 170.499v161c0 77.333 23.167 135.166 69.5 173.499s106.833 57.5 181.5 57.5c75.333 0 135.666 -19.5 180.999 -58.5s68 -98.833 68 -179.5
v-92h-400v-63c0 -50 12.5 -86.167 37.5 -108.5s62.5 -33.5 112.5 -33.5c48 0 83 6.66699 105 20s38.667 35 50 65zM200.001 379.002v-24h300v15c0 54 -12.5 93.333 -37.5 118s-62.5 37 -112.5 37s-87.5 -11.833 -112.5 -35.5s-37.5 -60.5 -37.5 -110.5zM351.001 693.002
c-64.667 0 -119.332 15.667 -163.999 47s-67.334 85.666 -68.001 162.999h100c0.666992 -48 11.834 -81.833 33.501 -101.5s54.5 -29.5 98.5 -29.5s76.833 9.83301 98.5 29.5s32.834 53.5 33.501 101.5h100c-0.666992 -77.333 -23.334 -131.666 -68.001 -162.999
s-99.334 -47 -164.001 -47z" />
    <glyph glyph-name="Edotaccent" unicode="&#x116;" 
d="M100 0v800h520v-90h-420v-230h370v-90h-370v-300h420v-90h-520zM370 910c-25.333 0 -45.833 4 -61.5 12s-23.5 23 -23.5 45v7c0 22.667 7.83301 38.167 23.5 46.5s36.167 12.5 61.5 12.5s45.833 -4.16699 61.5 -12.5s23.5 -23.833 23.5 -46.5v-7c0 -22 -8 -37 -24 -45
s-36.333 -12 -61 -12z" />
    <glyph glyph-name="edotaccent" unicode="&#x117;" 
d="M602 132c-18 -50 -45.332 -86.165 -81.999 -108.498s-93 -33.5 -169 -33.5c-79.333 0 -141 19.167 -185 57.5s-66 95.166 -66 170.499v161c0 77.333 23.167 135.166 69.5 173.499s106.833 57.5 181.5 57.5c75.333 0 135.666 -19.5 180.999 -58.5s68 -98.833 68 -179.5
v-92h-400v-63c0 -50 12.5 -86.167 37.5 -108.5s62.5 -33.5 112.5 -33.5c48 0 83 6.66699 105 20s38.667 35 50 65zM200.001 379.002v-24h300v15c0 54 -12.5 93.333 -37.5 118s-62.5 37 -112.5 37s-87.5 -11.833 -112.5 -35.5s-37.5 -60.5 -37.5 -110.5zM351.001 710.002
c-25.333 0 -45.833 4 -61.5 12s-23.5 23 -23.5 45v7c0 22.667 7.83301 38.167 23.5 46.5s36.167 12.5 61.5 12.5s45.833 -4.16699 61.5 -12.5s23.5 -23.833 23.5 -46.5v-7c0 -22 -8 -37 -24 -45s-36.333 -12 -61 -12z" />
    <glyph glyph-name="Eogonek" unicode="&#x118;" 
d="M100 0v800h520v-90h-420v-230h370v-90h-370v-300h420v-90h-520zM520 -215c-42 0 -77.501 10.501 -106.501 31.501s-43.5 50.167 -43.5 87.5c0 32.667 12.667 61.667 38 87s53.333 44 84 56l27 -24c-22.667 -14 -38.167 -29.333 -46.5 -46s-12.5 -31.667 -12.5 -45
c0 -18.667 6.16699 -32.834 18.5 -42.501s29.833 -14.5 52.5 -14.5c12 0 27.167 1 45.5 3s32.833 4.33301 43.5 7v-90c-12.667 -2.66699 -28.667 -5 -48 -7s-36.666 -3 -51.999 -3z" />
    <glyph glyph-name="eogonek" unicode="&#x119;" 
d="M602 132c-18 -50 -45.332 -86.165 -81.999 -108.498s-93 -33.5 -169 -33.5c-79.333 0 -141 19.167 -185 57.5s-66 95.166 -66 170.499v161c0 77.333 23.167 135.166 69.5 173.499s106.833 57.5 181.5 57.5c75.333 0 135.666 -19.5 180.999 -58.5s68 -98.833 68 -179.5
v-92h-400v-63c0 -50 12.5 -86.167 37.5 -108.5s62.5 -33.5 112.5 -33.5c48 0 83 6.66699 105 20s38.667 35 50 65zM200.001 379.002v-24h300v15c0 54 -12.5 93.333 -37.5 118s-62.5 37 -112.5 37s-87.5 -11.833 -112.5 -35.5s-37.5 -60.5 -37.5 -110.5zM491.001 -214.998
c-42 0 -77.501 10.501 -106.501 31.501s-43.5 50.167 -43.5 87.5c0 32.667 12.667 61.667 38 87s53.333 44 84 56l27 -24c-22.667 -14 -38.167 -29.333 -46.5 -46s-12.5 -31.667 -12.5 -45c0 -18.667 6.16699 -32.834 18.5 -42.501s29.833 -14.5 52.5 -14.5
c12 0 27.167 1 45.5 3s32.833 4.33301 43.5 7v-90c-12.667 -2.66699 -28.667 -5 -48 -7s-36.666 -3 -51.999 -3z" />
    <glyph glyph-name="Ecaron" unicode="&#x11a;" 
d="M100 0v800h520v-90h-420v-230h370v-90h-370v-300h420v-90h-520zM345 904l-176 149l38 64l174 -116l172 116l38 -64l-174 -149h-72z" />
    <glyph glyph-name="ecaron" unicode="&#x11b;" 
d="M602 132c-18 -50 -45.332 -86.165 -81.999 -108.498s-93 -33.5 -169 -33.5c-79.333 0 -141 19.167 -185 57.5s-66 95.166 -66 170.499v161c0 77.333 23.167 135.166 69.5 173.499s106.833 57.5 181.5 57.5c75.333 0 135.666 -19.5 180.999 -58.5s68 -98.833 68 -179.5
v-92h-400v-63c0 -50 12.5 -86.167 37.5 -108.5s62.5 -33.5 112.5 -33.5c48 0 83 6.66699 105 20s38.667 35 50 65zM200.001 379.002v-24h300v15c0 54 -12.5 93.333 -37.5 118s-62.5 37 -112.5 37s-87.5 -11.833 -112.5 -35.5s-37.5 -60.5 -37.5 -110.5zM316.001 704.002
l-176 149l38 64l174 -116l172 116l38 -64l-174 -149h-72z" />
    <glyph glyph-name="Gcircumflex" unicode="&#x11c;" 
d="M370 -10c-93.333 0 -164.998 24.834 -214.998 74.501s-75 120.5 -75 212.5v242c0 93.333 24.333 165.166 73 215.499s118 75.5 208 75.5c82 0 144.5 -20.667 187.5 -62s66.833 -104.333 71.5 -189l-100 -10c-5.33301 62 -20.333 106 -45 132s-63 39 -115 39
c-64.667 0 -110.834 -15.5 -138.501 -46.5s-41.5 -82.5 -41.5 -154.5v-242c0 -71.333 14.667 -122 44 -152s78 -45 146 -45c61.333 0 105 17.167 131 51.5s39 92.166 39 173.499h-190v90h290v-108c0 -95.333 -23.333 -168.666 -70 -219.999s-113.334 -77 -200.001 -77z
M197.002 904.001l-38 64l174 149h72l176 -149l-38 -64l-174 116z" />
    <glyph glyph-name="gcircumflex" unicode="&#x11d;" 
d="M650 -48c0 -54 -19.834 -94.5 -59.501 -121.5s-88.167 -40.5 -145.5 -40.5h-188c-60 0 -109.5 12 -148.5 36s-58.5 61 -58.5 111c0 32 8.5 57.5 25.5 76.5s41.833 29.833 74.5 32.5v21c-23.333 4 -42.5 13.667 -57.5 29s-22.5 39 -22.5 71c0 28.667 9 54.5 27 77.5
s48.333 36.167 91 39.5v19c-32.667 10.667 -54.667 26.834 -66 48.501s-17 42.5 -17 62.5v27c0 46 19.667 84 59 114s94.666 45 165.999 45h295v-90l-155 23v-18c26.667 -7.33301 46.834 -21.333 60.501 -42s20.5 -41.334 20.5 -62.001v-26
c0 -46 -17.667 -83.167 -53 -111.5s-92.666 -42.5 -171.999 -42.5h-121c-18 0 -31.667 -4.5 -41 -13.5s-14 -24.167 -14 -45.5c0 -20.667 6.5 -36.167 19.5 -46.5s32.5 -15.5 58.5 -15.5h227c56 0 102.5 -12.333 139.5 -37s55.5 -65 55.5 -121zM329.999 307
c40.667 0 71.667 7.33301 93 22s32 37.667 32 69v32c0 31.333 -10.667 54.166 -32 68.499s-52.333 21.5 -93 21.5s-71.667 -7.16699 -93 -21.5s-32 -37.166 -32 -68.499v-32c0 -31.333 10.667 -54.333 32 -69s52.333 -22 93 -22zM254.999 -130h203
c30 0 54.333 5.66699 73 17s28 31 28 59c0 26.667 -8.5 45.667 -25.5 57s-38.833 17 -65.5 17h-318v-68c0 -27.333 9 -47.833 27 -61.5s44 -20.5 78 -20.5zM166.999 704l-38 64l174 149h72l176 -149l-38 -64l-174 116z" />
    <glyph glyph-name="Gbreve" unicode="&#x11e;" 
d="M370 -10c-93.333 0 -164.998 24.834 -214.998 74.501s-75 120.5 -75 212.5v242c0 93.333 24.333 165.166 73 215.499s118 75.5 208 75.5c82 0 144.5 -20.667 187.5 -62s66.833 -104.333 71.5 -189l-100 -10c-5.33301 62 -20.333 106 -45 132s-63 39 -115 39
c-64.667 0 -110.834 -15.5 -138.501 -46.5s-41.5 -82.5 -41.5 -154.5v-242c0 -71.333 14.667 -122 44 -152s78 -45 146 -45c61.333 0 105 17.167 131 51.5s39 92.166 39 173.499h-190v90h290v-108c0 -95.333 -23.333 -168.666 -70 -219.999s-113.334 -77 -200.001 -77z
M370.002 893.001c-64.667 0 -119.332 15.667 -163.999 47s-67.334 85.666 -68.001 162.999h100c0.666992 -48 11.834 -81.833 33.501 -101.5s54.5 -29.5 98.5 -29.5s76.833 9.83301 98.5 29.5s32.834 53.5 33.501 101.5h100
c-0.666992 -77.333 -23.334 -131.666 -68.001 -162.999s-99.334 -47 -164.001 -47z" />
    <glyph glyph-name="gbreve" unicode="&#x11f;" 
d="M650 -48c0 -54 -19.834 -94.5 -59.501 -121.5s-88.167 -40.5 -145.5 -40.5h-188c-60 0 -109.5 12 -148.5 36s-58.5 61 -58.5 111c0 32 8.5 57.5 25.5 76.5s41.833 29.833 74.5 32.5v21c-23.333 4 -42.5 13.667 -57.5 29s-22.5 39 -22.5 71c0 28.667 9 54.5 27 77.5
s48.333 36.167 91 39.5v19c-32.667 10.667 -54.667 26.834 -66 48.501s-17 42.5 -17 62.5v27c0 46 19.667 84 59 114s94.666 45 165.999 45h295v-90l-155 23v-18c26.667 -7.33301 46.834 -21.333 60.501 -42s20.5 -41.334 20.5 -62.001v-26
c0 -46 -17.667 -83.167 -53 -111.5s-92.666 -42.5 -171.999 -42.5h-121c-18 0 -31.667 -4.5 -41 -13.5s-14 -24.167 -14 -45.5c0 -20.667 6.5 -36.167 19.5 -46.5s32.5 -15.5 58.5 -15.5h227c56 0 102.5 -12.333 139.5 -37s55.5 -65 55.5 -121zM329.999 307
c40.667 0 71.667 7.33301 93 22s32 37.667 32 69v32c0 31.333 -10.667 54.166 -32 68.499s-52.333 21.5 -93 21.5s-71.667 -7.16699 -93 -21.5s-32 -37.166 -32 -68.499v-32c0 -31.333 10.667 -54.333 32 -69s52.333 -22 93 -22zM254.999 -130h203
c30 0 54.333 5.66699 73 17s28 31 28 59c0 26.667 -8.5 45.667 -25.5 57s-38.833 17 -65.5 17h-318v-68c0 -27.333 9 -47.833 27 -61.5s44 -20.5 78 -20.5zM349.999 693c-64.667 0 -119.332 15.667 -163.999 47s-67.334 85.666 -68.001 162.999h100
c0.666992 -48 11.834 -81.833 33.501 -101.5s54.5 -29.5 98.5 -29.5s76.833 9.83301 98.5 29.5s32.834 53.5 33.501 101.5h100c-0.666992 -77.333 -23.334 -131.666 -68.001 -162.999s-99.334 -47 -164.001 -47z" />
    <glyph glyph-name="Gdotaccent" unicode="&#x120;" 
d="M370 -10c-93.333 0 -164.998 24.834 -214.998 74.501s-75 120.5 -75 212.5v242c0 93.333 24.333 165.166 73 215.499s118 75.5 208 75.5c82 0 144.5 -20.667 187.5 -62s66.833 -104.333 71.5 -189l-100 -10c-5.33301 62 -20.333 106 -45 132s-63 39 -115 39
c-64.667 0 -110.834 -15.5 -138.501 -46.5s-41.5 -82.5 -41.5 -154.5v-242c0 -71.333 14.667 -122 44 -152s78 -45 146 -45c61.333 0 105 17.167 131 51.5s39 92.166 39 173.499h-190v90h290v-108c0 -95.333 -23.333 -168.666 -70 -219.999s-113.334 -77 -200.001 -77z
M360.002 910.001c-25.333 0 -45.833 4 -61.5 12s-23.5 23 -23.5 45v7c0 22.667 7.83301 38.167 23.5 46.5s36.167 12.5 61.5 12.5s45.833 -4.16699 61.5 -12.5s23.5 -23.833 23.5 -46.5v-7c0 -22 -8 -37 -24 -45s-36.333 -12 -61 -12z" />
    <glyph glyph-name="gdotaccent" unicode="&#x121;" 
d="M650 -48c0 -54 -19.834 -94.5 -59.501 -121.5s-88.167 -40.5 -145.5 -40.5h-188c-60 0 -109.5 12 -148.5 36s-58.5 61 -58.5 111c0 32 8.5 57.5 25.5 76.5s41.833 29.833 74.5 32.5v21c-23.333 4 -42.5 13.667 -57.5 29s-22.5 39 -22.5 71c0 28.667 9 54.5 27 77.5
s48.333 36.167 91 39.5v19c-32.667 10.667 -54.667 26.834 -66 48.501s-17 42.5 -17 62.5v27c0 46 19.667 84 59 114s94.666 45 165.999 45h295v-90l-155 23v-18c26.667 -7.33301 46.834 -21.333 60.501 -42s20.5 -41.334 20.5 -62.001v-26
c0 -46 -17.667 -83.167 -53 -111.5s-92.666 -42.5 -171.999 -42.5h-121c-18 0 -31.667 -4.5 -41 -13.5s-14 -24.167 -14 -45.5c0 -20.667 6.5 -36.167 19.5 -46.5s32.5 -15.5 58.5 -15.5h227c56 0 102.5 -12.333 139.5 -37s55.5 -65 55.5 -121zM329.999 307
c40.667 0 71.667 7.33301 93 22s32 37.667 32 69v32c0 31.333 -10.667 54.166 -32 68.499s-52.333 21.5 -93 21.5s-71.667 -7.16699 -93 -21.5s-32 -37.166 -32 -68.499v-32c0 -31.333 10.667 -54.333 32 -69s52.333 -22 93 -22zM254.999 -130h203
c30 0 54.333 5.66699 73 17s28 31 28 59c0 26.667 -8.5 45.667 -25.5 57s-38.833 17 -65.5 17h-318v-68c0 -27.333 9 -47.833 27 -61.5s44 -20.5 78 -20.5zM349.999 710c-25.333 0 -45.833 4 -61.5 12s-23.5 23 -23.5 45v7c0 22.667 7.83301 38.167 23.5 46.5
s36.167 12.5 61.5 12.5s45.833 -4.16699 61.5 -12.5s23.5 -23.833 23.5 -46.5v-7c0 -22 -8 -37 -24 -45s-36.333 -12 -61 -12z" />
    <glyph glyph-name="Gcommaaccent" unicode="&#x122;" 
d="M370 -10c-93.333 0 -164.998 24.834 -214.998 74.501s-75 120.5 -75 212.5v242c0 93.333 24.333 165.166 73 215.499s118 75.5 208 75.5c82 0 144.5 -20.667 187.5 -62s66.833 -104.333 71.5 -189l-100 -10c-5.33301 62 -20.333 106 -45 132s-63 39 -115 39
c-64.667 0 -110.834 -15.5 -138.501 -46.5s-41.5 -82.5 -41.5 -154.5v-242c0 -71.333 14.667 -122 44 -152s78 -45 146 -45c61.333 0 105 17.167 131 51.5s39 92.166 39 173.499h-190v90h290v-108c0 -95.333 -23.333 -168.666 -70 -219.999s-113.334 -77 -200.001 -77z
M226.002 -299.999l96 200h150l-155 -200h-91z" />
    <glyph glyph-name="gcommaaccent" unicode="&#x123;" 
d="M650 -48c0 -54 -19.834 -94.5 -59.501 -121.5s-88.167 -40.5 -145.5 -40.5h-188c-60 0 -109.5 12 -148.5 36s-58.5 61 -58.5 111c0 32 8.5 57.5 25.5 76.5s41.833 29.833 74.5 32.5v21c-23.333 4 -42.5 13.667 -57.5 29s-22.5 39 -22.5 71c0 28.667 9 54.5 27 77.5
s48.333 36.167 91 39.5v19c-32.667 10.667 -54.667 26.834 -66 48.501s-17 42.5 -17 62.5v27c0 46 19.667 84 59 114s94.666 45 165.999 45h295v-90l-155 23v-18c26.667 -7.33301 46.834 -21.333 60.501 -42s20.5 -41.334 20.5 -62.001v-26
c0 -46 -17.667 -83.167 -53 -111.5s-92.666 -42.5 -171.999 -42.5h-121c-18 0 -31.667 -4.5 -41 -13.5s-14 -24.167 -14 -45.5c0 -20.667 6.5 -36.167 19.5 -46.5s32.5 -15.5 58.5 -15.5h227c56 0 102.5 -12.333 139.5 -37s55.5 -65 55.5 -121zM329.999 307
c40.667 0 71.667 7.33301 93 22s32 37.667 32 69v32c0 31.333 -10.667 54.166 -32 68.499s-52.333 21.5 -93 21.5s-71.667 -7.16699 -93 -21.5s-32 -37.166 -32 -68.499v-32c0 -31.333 10.667 -54.333 32 -69s52.333 -22 93 -22zM254.999 -130h203
c30 0 54.333 5.66699 73 17s28 31 28 59c0 26.667 -8.5 45.667 -25.5 57s-38.833 17 -65.5 17h-318v-68c0 -27.333 9 -47.833 27 -61.5s44 -20.5 78 -20.5zM255.999 700l155 200h91l-96 -200h-150z" />
    <glyph glyph-name="Hcircumflex" unicode="&#x124;" 
d="M100 0v800h100v-320h300v320h100v-800h-100v390h-300v-390h-100zM177 904l-38 64l174 149h72l176 -149l-38 -64l-174 116z" />
    <glyph glyph-name="hcircumflex" unicode="&#x125;" 
d="M100 0v800.001h100v-300h30c14.667 34 37.667 60.833 69 80.5s67 29.5 107 29.5c60 0 107.333 -18.333 142 -55s52 -86.334 52 -149.001v-406h-100v385c0 42 -10.167 74.167 -30.5 96.5s-49.5 33.5 -87.5 33.5c-30 0 -60.5 -9 -91.5 -27s-61.167 -44 -90.5 -78v-410h-100
zM-23 904.001l-38 64l174 149h72l176 -149l-38 -64l-174 116z" />
    <glyph glyph-name="Hbar" unicode="&#x126;" 
d="M200 430h300v130h-300v-130zM200 340v-340h-100v560h-100v90h100v150h100v-150h300v150h100v-150h100v-90h-100v-560h-100v340h-300z" />
    <glyph glyph-name="hbar" unicode="&#x127;" 
d="M200 360l0.000976562 -360h-100v630h-100v80h100v90h100v-90h200v-80h-200v-180h30c14.667 34 38.5 60.833 71.5 80.5s70.5 29.5 112.5 29.5c57.333 0 102.666 -16.333 135.999 -49s50 -77 50 -133v-378h-100v354c0 37.333 -9.66699 65.166 -29 83.499s-49 27.5 -89 27.5
c-30.667 0 -61 -8.66699 -91 -26s-60.333 -43.666 -91 -78.999z" />
    <glyph glyph-name="Itilde" unicode="&#x128;" 
d="M100 0v90h200v620h-200v90h500v-90h-200v-620h200v-90h-500zM429 910c-22.667 0 -41.8311 6 -57.498 18s-29.5 25.333 -41.5 40l-33.5 39c-10.333 12 -21.5 18 -33.5 18c-12.667 0 -23.667 -6.16699 -33 -18.5s-13.666 -37.5 -12.999 -75.5v-11h-77v15
c0 50 11.333 91.667 34 125s55 50 97 50c25.333 0 46.166 -6 62.499 -18s30.166 -25 41.499 -39l31 -40c9.33301 -12 19.666 -18 30.999 -18c12.667 0 23.5 6.16699 32.5 18.5s13.5 37.5 13.5 75.5v11h77v-15c0 -50.667 -11.333 -92.5 -34 -125.5s-55 -49.5 -97 -49.5z" />
    <glyph glyph-name="itilde" unicode="&#x129;" 
d="M100 0v90h200v420h-200v90h300v-510h200v-90h-500zM429 710c-22.667 0 -41.8311 6 -57.498 18s-29.5 25.333 -41.5 40l-33.5 39c-10.333 12 -21.5 18 -33.5 18c-12.667 0 -23.667 -6.16699 -33 -18.5s-13.666 -37.5 -12.999 -75.5v-11h-77v15c0 50 11.333 91.667 34 125
s55 50 97 50c25.333 0 46.166 -6 62.499 -18s30.166 -25 41.499 -39l31 -40c9.33301 -12 19.666 -18 30.999 -18c12.667 0 23.5 6.16699 32.5 18.5s13.5 37.5 13.5 75.5v11h77v-15c0 -50.667 -11.333 -92.5 -34 -125.5s-55 -49.5 -97 -49.5z" />
    <glyph glyph-name="Imacron" unicode="&#x12a;" 
d="M100 0v90h200v620h-200v90h500v-90h-200v-620h200v-90h-500zM150 955v90h400v-90h-400z" />
    <glyph glyph-name="imacron" unicode="&#x12b;" 
d="M100 0v90h200v420h-200v90h300v-510h200v-90h-500zM150 755v90h400v-90h-400z" />
    <glyph glyph-name="Ibreve" unicode="&#x12c;" 
d="M100 0v90h200v620h-200v90h500v-90h-200v-620h200v-90h-500zM350 893c-64.667 0 -119.332 15.667 -163.999 47s-67.334 85.666 -68.001 162.999h100c0.666992 -48 11.834 -81.833 33.501 -101.5s54.5 -29.5 98.5 -29.5s76.833 9.83301 98.5 29.5
s32.834 53.5 33.501 101.5h100c-0.666992 -77.333 -23.334 -131.666 -68.001 -162.999s-99.334 -47 -164.001 -47z" />
    <glyph glyph-name="ibreve" unicode="&#x12d;" 
d="M100 0v90h200v420h-200v90h300v-510h200v-90h-500zM350 693c-64.667 0 -119.332 15.667 -163.999 47s-67.334 85.666 -68.001 162.999h100c0.666992 -48 11.834 -81.833 33.501 -101.5s54.5 -29.5 98.5 -29.5s76.833 9.83301 98.5 29.5s32.834 53.5 33.501 101.5h100
c-0.666992 -77.333 -23.334 -131.666 -68.001 -162.999s-99.334 -47 -164.001 -47z" />
    <glyph glyph-name="Iogonek" unicode="&#x12e;" 
d="M100 0v90h200v620h-200v90h500v-90h-200v-620h200v-90h-500zM425 -215c-42 0 -77.501 10.501 -106.501 31.501s-43.5 50.167 -43.5 87.5c0 32.667 12.667 61.667 38 87s53.333 44 84 56l27 -24c-22.667 -14 -38.167 -29.333 -46.5 -46s-12.5 -31.667 -12.5 -45
c0 -18.667 6.16699 -32.834 18.5 -42.501s29.833 -14.5 52.5 -14.5c12 0 27.167 1 45.5 3s32.833 4.33301 43.5 7v-90c-12.667 -2.66699 -28.667 -5 -48 -7s-36.666 -3 -51.999 -3z" />
    <glyph glyph-name="iogonek" unicode="&#x12f;" 
d="M100 0v90h200v420h-200v90h300v-510h200v-90h-500zM350 710c-25.333 0 -45.833 4 -61.5 12s-23.5 23 -23.5 45v7c0 22.667 7.83301 38.167 23.5 46.5s36.167 12.5 61.5 12.5s45.833 -4.16699 61.5 -12.5s23.5 -23.833 23.5 -46.5v-7c0 -22 -8 -37 -24 -45
s-36.333 -12 -61 -12zM445 -215c-42 0 -77.501 10.501 -106.501 31.501s-43.5 50.167 -43.5 87.5c0 32.667 12.667 61.667 38 87s53.333 44 84 56l27 -24c-22.667 -14 -38.167 -29.333 -46.5 -46s-12.5 -31.667 -12.5 -45c0 -18.667 6.16699 -32.834 18.5 -42.501
s29.833 -14.5 52.5 -14.5c12 0 27.167 1 45.5 3s32.833 4.33301 43.5 7v-90c-12.667 -2.66699 -28.667 -5 -48 -7s-36.666 -3 -51.999 -3z" />
    <glyph glyph-name="Idotaccent" unicode="&#x130;" 
d="M100 0v90h200v620h-200v90h500v-90h-200v-620h200v-90h-500zM350 910c-25.333 0 -45.833 4 -61.5 12s-23.5 23 -23.5 45v7c0 22.667 7.83301 38.167 23.5 46.5s36.167 12.5 61.5 12.5s45.833 -4.16699 61.5 -12.5s23.5 -23.833 23.5 -46.5v-7c0 -22 -8 -37 -24 -45
s-36.333 -12 -61 -12z" />
    <glyph glyph-name="dotlessi" unicode="&#x131;" 
d="M100 0v90h200v420h-200v90h300v-510h200v-90h-500z" />
    <glyph glyph-name="IJ" unicode="&#x132;" 
d="M160 0h-100v800h100v-800zM440 -10c-58 0 -104.503 19 -139.503 57s-54.833 108 -59.5 210l100 11c4.66699 -74.667 13.334 -124.667 26.001 -150s37.334 -38 74.001 -38c39.333 0 65.833 15.5 79.5 46.5s20.5 68.5 20.5 112.5v471h-190v90h290v-560
c0 -77.333 -16.167 -138.333 -48.5 -183s-83.166 -67 -152.499 -67z" />
    <glyph glyph-name="ij" unicode="&#x133;" 
d="M170 710c-25.333 0 -45.833 4 -61.5 12s-23.5 23 -23.5 45v7c0 22.667 7.83301 38.167 23.5 46.5s36.167 12.5 61.5 12.5s45.833 -4.16699 61.5 -12.5s23.5 -23.833 23.5 -46.5v-7c0 -22 -8 -37 -24 -45s-36.333 -12 -61 -12zM547 710c-25.333 0 -45.833 4 -61.5 12
s-23.5 23 -23.5 45v7c0 22.667 7.83301 38.167 23.5 46.5s36.167 12.5 61.5 12.5s45.833 -4.16699 61.5 -12.5s23.5 -23.833 23.5 -46.5v-7c0 -22 -8 -37 -24 -45s-36.333 -12 -61 -12zM220 0h-100v600h100v-600zM378 -208c-22.667 0 -44.834 1.66699 -66.501 5
s-45.167 9 -70.5 17l20 96c21.333 -8 41 -13.667 59 -17s36.333 -5 55 -5c37.333 0 67.5 9.16699 90.5 27.5s34.5 48.833 34.5 91.5v503h-130v90h230v-606c0 -68.667 -21.167 -119.5 -63.5 -152.5s-95.166 -49.5 -158.499 -49.5z" />
    <glyph glyph-name="Jcircumflex" unicode="&#x134;" 
d="M329 -10c-87.333 0 -152.832 21.667 -196.499 65s-67.834 110.666 -72.501 201.999l100 11c4.66699 -74.667 18.667 -124.667 42 -150s66 -38 128 -38c57.333 0 100 14.833 128 44.5s42 74.5 42 134.5v451h-200v90h300v-540c0 -87.333 -23.167 -154.166 -69.5 -200.499
s-113.5 -69.5 -201.5 -69.5zM267.001 904l-38 64l174 149h72l176 -149l-38 -64l-174 116z" />
    <glyph glyph-name="jcircumflex" unicode="&#x135;" 
d="M258 -208c-25.333 0 -50.668 1.5 -76.001 4.5s-52.333 8.83301 -81 17.5l20 96c24.667 -8.66699 47.834 -14.5 69.501 -17.5s43.167 -4.5 64.5 -4.5c43.333 0 78.333 9.16699 105 27.5s40 48.833 40 91.5v503h-280v90h380v-606c0 -68.667 -23.167 -119.5 -69.5 -152.5
s-103.833 -49.5 -172.5 -49.5zM242.998 704l-38 64l174 149h72l176 -149l-38 -64l-174 116z" />
    <glyph glyph-name="Kcommaaccent" unicode="&#x136;" 
d="M200 380v-380h-100v800h100v-330h34l309 330h116l-343 -368l340 -432h-120l-299 380h-37zM216 -300l96 200h150l-155 -200h-91z" />
    <glyph glyph-name="kcommaaccent" unicode="&#x137;" 
d="M250 273v-273h-100v800h100v-443h51l192 243h122l-235 -279l232 -321h-114l-197 273h-51zM209 -300l96 200h150l-155 -200h-91z" />
    <glyph glyph-name="kgreenlandic" unicode="&#x138;" 
d="M250 273v-273h-100v600h100v-243h51l192 243h122l-235 -279l232 -321h-114l-197 273h-51z" />
    <glyph glyph-name="Lacute" unicode="&#x139;" 
d="M150 0v800h100v-710h350v-90h-450zM186 900l136 200h150l-195 -200h-91z" />
    <glyph glyph-name="lacute" unicode="&#x13a;" 
d="M100 0v90h200v620h-200v90h300v-710h200v-90h-500zM251 900l136 200h150l-195 -200h-91z" />
    <glyph glyph-name="Lcommaaccent" unicode="&#x13b;" 
d="M150 0v800h100v-710h350v-90h-450zM231 -300l96 200h150l-155 -200h-91z" />
    <glyph glyph-name="lcommaaccent" unicode="&#x13c;" 
d="M100 0v90h200v620h-200v90h300v-710h200v-90h-500zM191 -300l96 200h150l-155 -200h-91z" />
    <glyph glyph-name="Lcaron" unicode="&#x13d;" 
d="M150 0v800h100v-710h350v-90h-450zM386 505l81 295h147l-156 -295h-72z" />
    <glyph glyph-name="lcaron" unicode="&#x13e;" 
d="M100 0v90h200v620h-200v90h300v-710h200v-90h-500zM496 705l81 295h147l-156 -295h-72z" />
    <glyph glyph-name="Ldot" unicode="&#x13f;" 
d="M150 0v800h100v-710h350v-90h-450zM590 410c-25.333 0 -45.833 4 -61.5 12s-23.5 23 -23.5 45v7c0 22.667 7.83301 38.167 23.5 46.5s36.167 12.5 61.5 12.5s45.833 -4.16699 61.5 -12.5s23.5 -23.833 23.5 -46.5v-7c0 -22 -8 -37 -24 -45s-36.333 -12 -61 -12z" />
    <glyph glyph-name="ldot" unicode="&#x140;" 
d="M100 0v90h200v620h-200v90h300v-710h200v-90h-500zM670 310c-25.333 0 -45.833 4 -61.5 12s-23.5 23 -23.5 45v7c0 22.667 7.83301 38.167 23.5 46.5s36.167 12.5 61.5 12.5s45.833 -4.16699 61.5 -12.5s23.5 -23.833 23.5 -46.5v-7c0 -22 -8 -37 -24 -45
s-36.333 -12 -61 -12z" />
    <glyph glyph-name="Lslash" unicode="&#x141;" 
d="M150 0v361l-100 -31v80l100 31v359h100v-328l250 78v-80l-250 -78v-302h350v-90h-450z" />
    <glyph glyph-name="lslash" unicode="&#x142;" 
d="M100 0v90h200v261l-150 -41v80l150 41v279h-200v90h300v-342l150 42v-80l-150 -42v-288h200v-90h-500z" />
    <glyph glyph-name="Nacute" unicode="&#x143;" 
d="M457 0l-267 674v-674h-90v800h137l273 -689v689h90v-800h-143zM256 900l136 200h150l-195 -200h-91z" />
    <glyph glyph-name="nacute" unicode="&#x144;" 
d="M100 0v600h100v-100h30c14.667 34 37.667 60.833 69 80.5s67 29.5 107 29.5c60 0 107.333 -18.333 142 -55s52 -86.667 52 -150v-405h-100v385c0 42 -10.167 74.167 -30.5 96.5s-49.5 33.5 -87.5 33.5c-30 0 -60.5 -9 -91.5 -27s-61.167 -44 -90.5 -78v-410h-100z
M256 700l136 200h150l-195 -200h-91z" />
    <glyph glyph-name="Ncommaaccent" unicode="&#x145;" 
d="M457 0l-267 674v-674h-90v800h137l273 -689v689h90v-800h-143zM196 -300l96 200h150l-155 -200h-91z" />
    <glyph glyph-name="ncommaaccent" unicode="&#x146;" 
d="M100 0v600h100v-100h30c14.667 34 37.667 60.833 69 80.5s67 29.5 107 29.5c60 0 107.333 -18.333 142 -55s52 -86.667 52 -150v-405h-100v385c0 42 -10.167 74.167 -30.5 96.5s-49.5 33.5 -87.5 33.5c-30 0 -60.5 -9 -91.5 -27s-61.167 -44 -90.5 -78v-410h-100z
M216 -300l96 200h150l-155 -200h-91z" />
    <glyph glyph-name="Ncaron" unicode="&#x147;" 
d="M457 0l-267 674v-674h-90v800h137l273 -689v689h90v-800h-143zM335 904l-176 149l38 64l174 -116l172 116l38 -64l-174 -149h-72z" />
    <glyph glyph-name="ncaron" unicode="&#x148;" 
d="M100 0v600h100v-100h30c14.667 34 37.667 60.833 69 80.5s67 29.5 107 29.5c60 0 107.333 -18.333 142 -55s52 -86.667 52 -150v-405h-100v385c0 42 -10.167 74.167 -30.5 96.5s-49.5 33.5 -87.5 33.5c-30 0 -60.5 -9 -91.5 -27s-61.167 -44 -90.5 -78v-410h-100z
M335 704l-176 149l38 64l174 -116l172 116l38 -64l-174 -149h-72z" />
    <glyph glyph-name="napostrophe" unicode="&#x149;" 
d="M100 0v600h100v-100h30c14.667 34 37.667 60.833 69 80.5s67 29.5 107 29.5c60 0 107.333 -18.333 142 -55s52 -86.667 52 -150v-405h-100v385c0 42 -10.167 74.167 -30.5 96.5s-49.5 33.5 -87.5 33.5c-30 0 -60.5 -9 -91.5 -27s-61.167 -44 -90.5 -78v-410h-100z
M-14 700l136 200h150l-195 -200h-91z" />
    <glyph glyph-name="Eng" unicode="&#x14a;" 
d="M368 -208c-24 0 -48.833 3.16504 -74.5 9.49805s-53.167 13.833 -82.5 22.5l20 96c26.667 -10 50.667 -17.833 72 -23.5s42 -8.5 62 -8.5c40 0 72.5 13 97.5 39s37.5 69.333 37.5 130v517c0 50.667 -11.5 86.834 -34.5 108.501s-50.833 32.5 -83.5 32.5
c-38.667 0 -70.5 -11.333 -95.5 -34s-53.833 -53 -86.5 -91v-590h-100v800h100v-120h30c17.333 40 42.333 71.667 75 95s69 35 109 35c58 0 103.5 -18.833 136.5 -56.5s49.5 -89.5 49.5 -155.5v-554c0 -85.333 -22.167 -148.666 -66.5 -189.999s-99.5 -62 -165.5 -62z" />
    <glyph glyph-name="eng" unicode="&#x14b;" 
d="M398 -208c-19.333 0 -39.666 2 -60.999 6s-43.333 9.33301 -66 16l20 96c18.667 -6.66699 36.834 -12 54.501 -16s34.167 -6 49.5 -6c31.333 0 56.666 9.16699 75.999 27.5s29 48.833 29 91.5v397c0 37.333 -9.66699 65.166 -29 83.499s-49 27.5 -89 27.5
c-30.667 0 -61 -8.66699 -91 -26s-60.333 -43.666 -91 -78.999v-410h-100v600h100v-100h30c14.667 34 38.5 60.833 71.5 80.5s70.5 29.5 112.5 29.5c57.333 0 102.666 -16.333 135.999 -49s50 -77 50 -133v-434c0 -68.667 -19.167 -119.5 -57.5 -152.5
s-86.5 -49.5 -144.5 -49.5z" />
    <glyph glyph-name="Omacron" unicode="&#x14c;" 
d="M350 -10c-88 0 -155 24.5 -201 73.5s-69 120.167 -69 213.5v242c0 94.667 23.167 166.834 69.5 216.501s113.5 74.5 201.5 74.5c87.333 0 154 -24.833 200 -74.5s69 -121.834 69 -216.501v-242c0 -93.333 -23 -164.5 -69 -213.5s-113 -73.5 -201 -73.5zM350 80
c61.333 0 105 15 131 45s39 80.667 39 152v242c0 72.667 -13 124.334 -39 155.001s-69.667 46 -131 46s-105 -15.333 -131 -46s-39 -82.334 -39 -155.001v-242c0 -71.333 13 -122 39 -152s69.667 -45 131 -45zM150 955v90h400v-90h-400z" />
    <glyph glyph-name="omacron" unicode="&#x14d;" 
d="M350 -10c-80.667 0 -142.5 19.5 -185.5 58.5s-64.5 95.167 -64.5 168.5v162c0 74 21.667 131 65 171s105.333 60 186 60c80 0 141.5 -20 184.5 -60s64.5 -97 64.5 -171v-162c0 -73.333 -21.5 -129.5 -64.5 -168.5s-104.833 -58.5 -185.5 -58.5zM350 80
c50.667 0 88.334 11.333 113.001 34s37 57 37 103v162c0 48 -12.333 83.5 -37 106.5s-62.334 34.5 -113.001 34.5s-88.334 -11.5 -113.001 -34.5s-37 -58.5 -37 -106.5v-162c0 -46 12.333 -80.333 37 -103s62.334 -34 113.001 -34zM150 755v90h400v-90h-400z" />
    <glyph glyph-name="Obreve" unicode="&#x14e;" 
d="M350 -10c-88 0 -155 24.5 -201 73.5s-69 120.167 -69 213.5v242c0 94.667 23.167 166.834 69.5 216.501s113.5 74.5 201.5 74.5c87.333 0 154 -24.833 200 -74.5s69 -121.834 69 -216.501v-242c0 -93.333 -23 -164.5 -69 -213.5s-113 -73.5 -201 -73.5zM350 80
c61.333 0 105 15 131 45s39 80.667 39 152v242c0 72.667 -13 124.334 -39 155.001s-69.667 46 -131 46s-105 -15.333 -131 -46s-39 -82.334 -39 -155.001v-242c0 -71.333 13 -122 39 -152s69.667 -45 131 -45zM350 893c-64.667 0 -119.332 15.667 -163.999 47
s-67.334 85.666 -68.001 162.999h100c0.666992 -48 11.834 -81.833 33.501 -101.5s54.5 -29.5 98.5 -29.5s76.833 9.83301 98.5 29.5s32.834 53.5 33.501 101.5h100c-0.666992 -77.333 -23.334 -131.666 -68.001 -162.999s-99.334 -47 -164.001 -47z" />
    <glyph glyph-name="obreve" unicode="&#x14f;" 
d="M350 -10c-80.667 0 -142.5 19.5 -185.5 58.5s-64.5 95.167 -64.5 168.5v162c0 74 21.667 131 65 171s105.333 60 186 60c80 0 141.5 -20 184.5 -60s64.5 -97 64.5 -171v-162c0 -73.333 -21.5 -129.5 -64.5 -168.5s-104.833 -58.5 -185.5 -58.5zM350 80
c50.667 0 88.334 11.333 113.001 34s37 57 37 103v162c0 48 -12.333 83.5 -37 106.5s-62.334 34.5 -113.001 34.5s-88.334 -11.5 -113.001 -34.5s-37 -58.5 -37 -106.5v-162c0 -46 12.333 -80.333 37 -103s62.334 -34 113.001 -34zM350 693
c-64.667 0 -119.332 15.667 -163.999 47s-67.334 85.666 -68.001 162.999h100c0.666992 -48 11.834 -81.833 33.501 -101.5s54.5 -29.5 98.5 -29.5s76.833 9.83301 98.5 29.5s32.834 53.5 33.501 101.5h100c-0.666992 -77.333 -23.334 -131.666 -68.001 -162.999
s-99.334 -47 -164.001 -47z" />
    <glyph glyph-name="Ohungarumlaut" unicode="&#x150;" 
d="M350 -10c-88 0 -155 24.5 -201 73.5s-69 120.167 -69 213.5v242c0 94.667 23.167 166.834 69.5 216.501s113.5 74.5 201.5 74.5c87.333 0 154 -24.833 200 -74.5s69 -121.834 69 -216.501v-242c0 -93.333 -23 -164.5 -69 -213.5s-113 -73.5 -201 -73.5zM350 80
c61.333 0 105 15 131 45s39 80.667 39 152v242c0 72.667 -13 124.334 -39 155.001s-69.667 46 -131 46s-105 -15.333 -131 -46s-39 -82.334 -39 -155.001v-242c0 -71.333 13 -122 39 -152s69.667 -45 131 -45zM406 900l56 200h140l-125 -200h-71zM176 900l56 200h140
l-125 -200h-71z" />
    <glyph glyph-name="ohungarumlaut" unicode="&#x151;" 
d="M350 -10c-80.667 0 -142.5 19.5 -185.5 58.5s-64.5 95.167 -64.5 168.5v162c0 74 21.667 131 65 171s105.333 60 186 60c80 0 141.5 -20 184.5 -60s64.5 -97 64.5 -171v-162c0 -73.333 -21.5 -129.5 -64.5 -168.5s-104.833 -58.5 -185.5 -58.5zM350 80
c50.667 0 88.334 11.333 113.001 34s37 57 37 103v162c0 48 -12.333 83.5 -37 106.5s-62.334 34.5 -113.001 34.5s-88.334 -11.5 -113.001 -34.5s-37 -58.5 -37 -106.5v-162c0 -46 12.333 -80.333 37 -103s62.334 -34 113.001 -34zM406 700l56 200h140l-125 -200h-71z
M176 700l56 200h140l-125 -200h-71z" />
    <glyph glyph-name="OE" unicode="&#x152;" 
d="M270 0c-81.333 0 -145 26 -191 78s-69 121.667 -69 209v222c0 88 22.833 158.5 68.5 211.5s109.167 79.5 190.5 79.5h431v-80h-250v-240h250v-80h-250v-320h250v-80h-430zM270 80h90v640h-90c-58 0 -100.833 -19.833 -128.5 -59.5s-41.5 -90.167 -41.5 -151.5v-222
c0 -62 13.833 -112 41.5 -150s70.5 -57 128.5 -57z" />
    <glyph glyph-name="oe" unicode="&#x153;" 
d="M671 134c-6.66699 -49.333 -23.5029 -85.668 -50.5029 -109.001s-68.5 -35 -124.5 -35c-34.667 0 -64.667 6.33301 -90 19s-45 32 -59 58c-15.333 -26 -35.166 -45.333 -59.499 -58s-51.833 -19 -82.5 -19c-52 0 -94.167 18.5 -126.5 55.5s-48.5 94.167 -48.5 171.5v162
c0 78 16.333 136 49 174s75 57 127 57c30.667 0 58 -6.33301 82 -19s43.333 -32 58 -58c14.667 26 34 45.333 58 58s51.333 19 82 19c56 0 100.667 -16.5 134 -49.5s50 -84.167 50 -153.5v-127h-280v-98c0 -41.333 7.66699 -71.166 23 -89.499s39.333 -27.5 72 -27.5
s55.834 5.16699 69.501 15.5s22.834 30.833 27.501 61.5zM389.997 413.998v-69h190v60c0 45.333 -7.83301 78.333 -23.5 99s-39.5 31 -71.5 31c-31.333 0 -55 -9.83301 -71 -29.5s-24 -50.167 -24 -91.5zM214.997 69.998c32 0 55.833 11.5 71.5 34.5s23.5 60.5 23.5 112.5
v162c0 52 -7.83301 90.167 -23.5 114.5s-39.5 36.5 -71.5 36.5c-31.333 0 -55 -12.167 -71 -36.5s-24 -62.5 -24 -114.5v-162c0 -52 8 -89.5 24 -112.5s39.667 -34.5 71 -34.5z" />
    <glyph glyph-name="Racute" unicode="&#x154;" 
d="M200 398l200 -0.000976562c54 0 92.5 9.83301 115.5 29.5s34.5 52.834 34.5 99.501v62c0 44 -11.5 75.167 -34.5 93.5s-61.5 27.5 -115.5 27.5h-200v-312zM200 -0.000976562h-99.999v800h301c83.333 0 145.666 -17.5 186.999 -52.5s62 -87.833 62 -158.5v-62
c0 -64 -16.167 -114 -48.5 -150s-81.5 -57.333 -147.5 -64l205 -313h-114l-203 310h-142v-310zM311.001 899.999l136 200h150l-195 -200h-91z" />
    <glyph glyph-name="racute" unicode="&#x155;" 
d="M150 0l-0.000976562 600h100v-100h30c14 38 35.333 65.833 64 83.5s63.334 26.5 104.001 26.5c44.667 0 82 -14.833 112 -44.5s45 -71.5 45 -125.5v-90h-95v54c0 38 -8.5 66 -25.5 84s-42.833 27 -77.5 27c-31.333 0 -59.833 -7.66699 -85.5 -23s-49.5 -39.333 -71.5 -72
v-420h-100zM275.999 700l136 200h150l-195 -200h-91z" />
    <glyph glyph-name="Rcommaaccent" unicode="&#x156;" 
d="M200 398l200 -0.000976562c54 0 92.5 9.83301 115.5 29.5s34.5 52.834 34.5 99.501v62c0 44 -11.5 75.167 -34.5 93.5s-61.5 27.5 -115.5 27.5h-200v-312zM200 -0.000976562h-99.999v800h301c83.333 0 145.666 -17.5 186.999 -52.5s62 -87.833 62 -158.5v-62
c0 -64 -16.167 -114 -48.5 -150s-81.5 -57.333 -147.5 -64l205 -313h-114l-203 310h-142v-310zM201.001 -300.001l96 200h150l-155 -200h-91z" />
    <glyph glyph-name="rcommaaccent" unicode="&#x157;" 
d="M150 0l-0.000976562 600h100v-100h30c14 38 35.333 65.833 64 83.5s63.334 26.5 104.001 26.5c44.667 0 82 -14.833 112 -44.5s45 -71.5 45 -125.5v-90h-95v54c0 38 -8.5 66 -25.5 84s-42.833 27 -77.5 27c-31.333 0 -59.833 -7.66699 -85.5 -23s-49.5 -39.333 -71.5 -72
v-420h-100zM65.999 -300l96 200h150l-155 -200h-91z" />
    <glyph glyph-name="Rcaron" unicode="&#x158;" 
d="M200 398l200 -0.000976562c54 0 92.5 9.83301 115.5 29.5s34.5 52.834 34.5 99.501v62c0 44 -11.5 75.167 -34.5 93.5s-61.5 27.5 -115.5 27.5h-200v-312zM200 -0.000976562h-99.999v800h301c83.333 0 145.666 -17.5 186.999 -52.5s62 -87.833 62 -158.5v-62
c0 -64 -16.167 -114 -48.5 -150s-81.5 -57.333 -147.5 -64l205 -313h-114l-203 310h-142v-310zM320.001 903.999l-176 149l38 64l174 -116l172 116l38 -64l-174 -149h-72z" />
    <glyph glyph-name="rcaron" unicode="&#x159;" 
d="M150 0l-0.000976562 600h100v-100h30c14 38 35.333 65.833 64 83.5s63.334 26.5 104.001 26.5c44.667 0 82 -14.833 112 -44.5s45 -71.5 45 -125.5v-90h-95v54c0 38 -8.5 66 -25.5 84s-42.833 27 -77.5 27c-31.333 0 -59.833 -7.66699 -85.5 -23s-49.5 -39.333 -71.5 -72
v-420h-100zM354.999 704l-176 149l38 64l174 -116l172 116l38 -64l-174 -149h-72z" />
    <glyph glyph-name="Sacute" unicode="&#x15a;" 
d="M363 -6c-60 0 -116 9.66797 -168 29.001s-98.667 54.666 -140 105.999l72 68c28 -38 61.5 -66.333 100.5 -85s85.167 -28 138.5 -28c49.333 0 89.166 11.5 119.499 34.5s45.5 54.167 45.5 93.5c0 38 -13 67.167 -39 87.5s-77.333 41.833 -154 64.5
c-97.333 28 -163.666 58.333 -198.999 91s-53 79 -53 139c0 69.333 23.167 121.666 69.5 156.999s102.5 53 168.5 53c56 0 109.167 -9.83301 159.5 -29.5s94.833 -54.5 133.5 -104.5l-69 -69c-26.667 38 -60 66.333 -100 85s-80.667 28 -122 28
c-42 0 -75.667 -8.5 -101 -25.5s-38 -45.5 -38 -85.5c0 -35.333 13.833 -63.166 41.5 -83.499s82.167 -42.166 163.5 -65.499c92 -26.667 154.833 -55.834 188.5 -87.501s50.5 -77.5 50.5 -137.5c0 -76.667 -27.333 -135 -82 -175s-116.667 -60 -186 -60zM237 900.001
l136 200h150l-195 -200h-91z" />
    <glyph glyph-name="sacute" unicode="&#x15b;" 
d="M358 -10c-50.667 0 -99.666 7.49707 -146.999 22.4971s-91 38.167 -131 69.5l45 79c32.667 -26.667 69.167 -46.834 109.5 -60.501s81.5 -20.5 123.5 -20.5c34.667 0 67.834 5.33301 99.501 16s47.5 33.334 47.5 68.001c0 28.667 -13 49 -39 61s-73.667 22.333 -143 31
c-73.333 8.66699 -128.833 25.834 -166.5 51.501s-56.5 66.167 -56.5 121.5c0 60 22.667 105.167 68 135.5s98 45.5 158 45.5c47.333 0 92.833 -8 136.5 -24s84.167 -38.667 121.5 -68l-45 -79c-30.667 24.667 -64 44.334 -100 59.001s-73.667 22 -113 22
c-32 0 -61.167 -6 -87.5 -18s-39.5 -34 -39.5 -66c0 -27.333 12.167 -47.166 36.5 -59.499s71.166 -22.833 140.499 -31.5c76 -8.66699 133 -27.167 171 -55.5s57 -67.833 57 -118.5c0 -62.667 -25.333 -108.5 -76 -137.5s-107.334 -43.5 -170.001 -43.5zM234.001 699.997
l136 200h150l-195 -200h-91z" />
    <glyph glyph-name="Scircumflex" unicode="&#x15c;" 
d="M363 -6c-60 0 -116 9.66797 -168 29.001s-98.667 54.666 -140 105.999l72 68c28 -38 61.5 -66.333 100.5 -85s85.167 -28 138.5 -28c49.333 0 89.166 11.5 119.499 34.5s45.5 54.167 45.5 93.5c0 38 -13 67.167 -39 87.5s-77.333 41.833 -154 64.5
c-97.333 28 -163.666 58.333 -198.999 91s-53 79 -53 139c0 69.333 23.167 121.666 69.5 156.999s102.5 53 168.5 53c56 0 109.167 -9.83301 159.5 -29.5s94.833 -54.5 133.5 -104.5l-69 -69c-26.667 38 -60 66.333 -100 85s-80.667 28 -122 28
c-42 0 -75.667 -8.5 -101 -25.5s-38 -45.5 -38 -85.5c0 -35.333 13.833 -63.166 41.5 -83.499s82.167 -42.166 163.5 -65.499c92 -26.667 154.833 -55.834 188.5 -87.501s50.5 -77.5 50.5 -137.5c0 -76.667 -27.333 -135 -82 -175s-116.667 -60 -186 -60zM178 904.001
l-38 64l174 149h72l176 -149l-38 -64l-174 116z" />
    <glyph glyph-name="scircumflex" unicode="&#x15d;" 
d="M358 -10c-50.667 0 -99.666 7.49707 -146.999 22.4971s-91 38.167 -131 69.5l45 79c32.667 -26.667 69.167 -46.834 109.5 -60.501s81.5 -20.5 123.5 -20.5c34.667 0 67.834 5.33301 99.501 16s47.5 33.334 47.5 68.001c0 28.667 -13 49 -39 61s-73.667 22.333 -143 31
c-73.333 8.66699 -128.833 25.834 -166.5 51.501s-56.5 66.167 -56.5 121.5c0 60 22.667 105.167 68 135.5s98 45.5 158 45.5c47.333 0 92.833 -8 136.5 -24s84.167 -38.667 121.5 -68l-45 -79c-30.667 24.667 -64 44.334 -100 59.001s-73.667 22 -113 22
c-32 0 -61.167 -6 -87.5 -18s-39.5 -34 -39.5 -66c0 -27.333 12.167 -47.166 36.5 -59.499s71.166 -22.833 140.499 -31.5c76 -8.66699 133 -27.167 171 -55.5s57 -67.833 57 -118.5c0 -62.667 -25.333 -108.5 -76 -137.5s-107.334 -43.5 -170.001 -43.5zM175.001 703.997
l-38 64l174 149h72l176 -149l-38 -64l-174 116z" />
    <glyph glyph-name="Scedilla" unicode="&#x15e;" 
d="M363 -6c-60 0 -116 9.66797 -168 29.001s-98.667 54.666 -140 105.999l72 68c28 -38 61.5 -66.333 100.5 -85s85.167 -28 138.5 -28c49.333 0 89.166 11.5 119.499 34.5s45.5 54.167 45.5 93.5c0 38 -13 67.167 -39 87.5s-77.333 41.833 -154 64.5
c-97.333 28 -163.666 58.333 -198.999 91s-53 79 -53 139c0 69.333 23.167 121.666 69.5 156.999s102.5 53 168.5 53c56 0 109.167 -9.83301 159.5 -29.5s94.833 -54.5 133.5 -104.5l-69 -69c-26.667 38 -60 66.333 -100 85s-80.667 28 -122 28
c-42 0 -75.667 -8.5 -101 -25.5s-38 -45.5 -38 -85.5c0 -35.333 13.833 -63.166 41.5 -83.499s82.167 -42.166 163.5 -65.499c92 -26.667 154.833 -55.834 188.5 -87.501s50.5 -77.5 50.5 -137.5c0 -76.667 -27.333 -135 -82 -175s-116.667 -60 -186 -60zM321 0.000976562
l20 42c29.333 -5.33301 57.333 -17.833 84 -37.5s40 -51.5 40 -95.5c0 -43.333 -15 -75 -45 -95s-63.667 -30 -101 -30c-44 0 -79.833 8.16699 -107.5 24.5s-42.834 43.5 -45.501 81.5l88 10c1.33301 -12.667 6.5 -21.5 15.5 -26.5s23.833 -7.5 44.5 -7.5
c20 0 35.167 4.16699 45.5 12.5s15.5 23.833 15.5 46.5s-4.16699 39.5 -12.5 50.5s-22.166 19.167 -41.499 24.5z" />
    <glyph glyph-name="scedilla" unicode="&#x15f;" 
d="M358 -10c-50.667 0 -99.666 7.49707 -146.999 22.4971s-91 38.167 -131 69.5l45 79c32.667 -26.667 69.167 -46.834 109.5 -60.501s81.5 -20.5 123.5 -20.5c34.667 0 67.834 5.33301 99.501 16s47.5 33.334 47.5 68.001c0 28.667 -13 49 -39 61s-73.667 22.333 -143 31
c-73.333 8.66699 -128.833 25.834 -166.5 51.501s-56.5 66.167 -56.5 121.5c0 60 22.667 105.167 68 135.5s98 45.5 158 45.5c47.333 0 92.833 -8 136.5 -24s84.167 -38.667 121.5 -68l-45 -79c-30.667 24.667 -64 44.334 -100 59.001s-73.667 22 -113 22
c-32 0 -61.167 -6 -87.5 -18s-39.5 -34 -39.5 -66c0 -27.333 12.167 -47.166 36.5 -59.499s71.166 -22.833 140.499 -31.5c76 -8.66699 133 -27.167 171 -55.5s57 -67.833 57 -118.5c0 -62.667 -25.333 -108.5 -76 -137.5s-107.334 -43.5 -170.001 -43.5z
M318.001 -0.00292969l20 42c29.333 -5.33301 57.333 -17.833 84 -37.5s40 -51.5 40 -95.5c0 -43.333 -15 -75 -45 -95s-63.667 -30 -101 -30c-44 0 -79.833 8.16699 -107.5 24.5s-42.834 43.5 -45.501 81.5l88 10c1.33301 -12.667 6.5 -21.5 15.5 -26.5
s23.833 -7.5 44.5 -7.5c20 0 35.167 4.16699 45.5 12.5s15.5 23.833 15.5 46.5s-4.16699 39.5 -12.5 50.5s-22.166 19.167 -41.499 24.5z" />
    <glyph glyph-name="Scaron" unicode="&#x160;" 
d="M363 -6c-60 0 -116 9.66797 -168 29.001s-98.667 54.666 -140 105.999l72 68c28 -38 61.5 -66.333 100.5 -85s85.167 -28 138.5 -28c49.333 0 89.166 11.5 119.499 34.5s45.5 54.167 45.5 93.5c0 38 -13 67.167 -39 87.5s-77.333 41.833 -154 64.5
c-97.333 28 -163.666 58.333 -198.999 91s-53 79 -53 139c0 69.333 23.167 121.666 69.5 156.999s102.5 53 168.5 53c56 0 109.167 -9.83301 159.5 -29.5s94.833 -54.5 133.5 -104.5l-69 -69c-26.667 38 -60 66.333 -100 85s-80.667 28 -122 28
c-42 0 -75.667 -8.5 -101 -25.5s-38 -45.5 -38 -85.5c0 -35.333 13.833 -63.166 41.5 -83.499s82.167 -42.166 163.5 -65.499c92 -26.667 154.833 -55.834 188.5 -87.501s50.5 -77.5 50.5 -137.5c0 -76.667 -27.333 -135 -82 -175s-116.667 -60 -186 -60zM316 904.001
l-176 149l38 64l174 -116l172 116l38 -64l-174 -149h-72z" />
    <glyph glyph-name="scaron" unicode="&#x161;" 
d="M358 -10c-50.667 0 -99.666 7.49707 -146.999 22.4971s-91 38.167 -131 69.5l45 79c32.667 -26.667 69.167 -46.834 109.5 -60.501s81.5 -20.5 123.5 -20.5c34.667 0 67.834 5.33301 99.501 16s47.5 33.334 47.5 68.001c0 28.667 -13 49 -39 61s-73.667 22.333 -143 31
c-73.333 8.66699 -128.833 25.834 -166.5 51.501s-56.5 66.167 -56.5 121.5c0 60 22.667 105.167 68 135.5s98 45.5 158 45.5c47.333 0 92.833 -8 136.5 -24s84.167 -38.667 121.5 -68l-45 -79c-30.667 24.667 -64 44.334 -100 59.001s-73.667 22 -113 22
c-32 0 -61.167 -6 -87.5 -18s-39.5 -34 -39.5 -66c0 -27.333 12.167 -47.166 36.5 -59.499s71.166 -22.833 140.499 -31.5c76 -8.66699 133 -27.167 171 -55.5s57 -67.833 57 -118.5c0 -62.667 -25.333 -108.5 -76 -137.5s-107.334 -43.5 -170.001 -43.5zM313.001 703.997
l-176 149l38 64l174 -116l172 116l38 -64l-174 -149h-72z" />
    <glyph glyph-name="Tcedilla" unicode="&#x162;" 
d="M300 0v710h-250v90h600v-90h-250v-710h-100zM307 0l20 42c29.333 -5.33301 57.333 -17.833 84 -37.5s40 -51.5 40 -95.5c0 -43.333 -15 -75 -45 -95s-63.667 -30 -101 -30c-44 0 -79.833 8.16699 -107.5 24.5s-42.834 43.5 -45.501 81.5l88 10
c1.33301 -12.667 6.5 -21.5 15.5 -26.5s23.833 -7.5 44.5 -7.5c20 0 35.167 4.16699 45.5 12.5s15.5 23.833 15.5 46.5s-4.16699 39.5 -12.5 50.5s-22.166 19.167 -41.499 24.5z" />
    <glyph glyph-name="tcedilla" unicode="&#x163;" 
d="M449 -9c-66 0 -117.331 16.334 -153.998 49.001s-55 82.667 -55 150v320h-170v90h170v200h100v-200h260v-90h-260v-311c0 -38.667 9.66699 -67.334 29 -86.001s48 -28 86 -28c25.333 0 49 1.83301 71 5.5s43 8.5 63 14.5l20 -91
c-22.667 -6.66699 -46.834 -12.167 -72.501 -16.5s-54.834 -6.5 -87.501 -6.5zM385.002 0.000976562l20 42c29.333 -5.33301 57.333 -17.833 84 -37.5s40 -51.5 40 -95.5c0 -43.333 -15 -75 -45 -95s-63.667 -30 -101 -30c-44 0 -79.833 8.16699 -107.5 24.5
s-42.834 43.5 -45.501 81.5l88 10c1.33301 -12.667 6.5 -21.5 15.5 -26.5s23.833 -7.5 44.5 -7.5c20 0 35.167 4.16699 45.5 12.5s15.5 23.833 15.5 46.5s-4.16699 39.5 -12.5 50.5s-22.166 19.167 -41.499 24.5z" />
    <glyph glyph-name="Tcaron" unicode="&#x164;" 
d="M300 0v710h-250v90h600v-90h-250v-710h-100zM315 904l-176 149l38 64l174 -116l172 116l38 -64l-174 -149h-72z" />
    <glyph glyph-name="tcaron" unicode="&#x165;" 
d="M449 -9c-66 0 -117.331 16.334 -153.998 49.001s-55 82.667 -55 150v320h-170v90h170v200h100v-200h260v-90h-260v-311c0 -38.667 9.66699 -67.334 29 -86.001s48 -28 86 -28c25.333 0 49 1.83301 71 5.5s43 8.5 63 14.5l20 -91
c-22.667 -6.66699 -46.834 -12.167 -72.501 -16.5s-54.834 -6.5 -87.501 -6.5zM436.002 705.001l81 295h147l-156 -295h-72z" />
    <glyph glyph-name="Tbar" unicode="&#x166;" 
d="M300 0v310h-200v90h200v310h-250v90h600v-90h-250v-310h200v-90h-200v-310h-100z" />
    <glyph glyph-name="tbar" unicode="&#x167;" 
d="M449 -9c-66 0 -117.331 16.334 -153.998 49.001s-55 82.667 -55 150v90h-130v90h130v140h-170v90h170v200h100v-200h260v-90h-260v-140h230v-90h-230v-81c0 -38.667 9.66699 -67.334 29 -86.001s48 -28 86 -28c25.333 0 49 1.83301 71 5.5s43 8.5 63 14.5l20 -91
c-22.667 -6.66699 -46.834 -12.167 -72.501 -16.5s-54.834 -6.5 -87.501 -6.5z" />
    <glyph glyph-name="Utilde" unicode="&#x168;" 
d="M350 -10c-83.333 0 -145.833 23.833 -187.5 71.5s-62.5 119.5 -62.5 215.5v523h100v-523c0 -71.333 11.5 -122 34.5 -152s61.5 -45 115.5 -45s92.5 15 115.5 45s34.5 80.667 34.5 152v523h100v-523c0 -96 -20.833 -167.833 -62.5 -215.5s-104.167 -71.5 -187.5 -71.5z
M429 910c-22.667 0 -41.8311 6 -57.498 18s-29.5 25.333 -41.5 40l-33.5 39c-10.333 12 -21.5 18 -33.5 18c-12.667 0 -23.667 -6.16699 -33 -18.5s-13.666 -37.5 -12.999 -75.5v-11h-77v15c0 50 11.333 91.667 34 125s55 50 97 50c25.333 0 46.166 -6 62.499 -18
s30.166 -25 41.499 -39l31 -40c9.33301 -12 19.666 -18 30.999 -18c12.667 0 23.5 6.16699 32.5 18.5s13.5 37.5 13.5 75.5v11h77v-15c0 -50.667 -11.333 -92.5 -34 -125.5s-55 -49.5 -97 -49.5z" />
    <glyph glyph-name="utilde" unicode="&#x169;" 
d="M294 -10c-58 0 -104.834 18.833 -140.501 56.5s-53.5 87.167 -53.5 148.5v405h100v-385c0 -44 9.66699 -76.667 29 -98s49 -32 89 -32c31.333 0 61.833 8.5 91.5 25.5s59.834 43.5 90.501 79.5v410h100v-600h-100v100h-30c-14 -32.667 -37.167 -59.167 -69.5 -79.5
s-67.833 -30.5 -106.5 -30.5zM428.999 710c-22.667 0 -41.8311 6 -57.498 18s-29.5 25.333 -41.5 40l-33.5 39c-10.333 12 -21.5 18 -33.5 18c-12.667 0 -23.667 -6.16699 -33 -18.5s-13.666 -37.5 -12.999 -75.5v-11h-77v15c0 50 11.333 91.667 34 125s55 50 97 50
c25.333 0 46.166 -6 62.499 -18s30.166 -25 41.499 -39l31 -40c9.33301 -12 19.666 -18 30.999 -18c12.667 0 23.5 6.16699 32.5 18.5s13.5 37.5 13.5 75.5v11h77v-15c0 -50.667 -11.333 -92.5 -34 -125.5s-55 -49.5 -97 -49.5z" />
    <glyph glyph-name="Umacron" unicode="&#x16a;" 
d="M350 -10c-83.333 0 -145.833 23.833 -187.5 71.5s-62.5 119.5 -62.5 215.5v523h100v-523c0 -71.333 11.5 -122 34.5 -152s61.5 -45 115.5 -45s92.5 15 115.5 45s34.5 80.667 34.5 152v523h100v-523c0 -96 -20.833 -167.833 -62.5 -215.5s-104.167 -71.5 -187.5 -71.5z
M150 955v90h400v-90h-400z" />
    <glyph glyph-name="umacron" unicode="&#x16b;" 
d="M294 -10c-58 0 -104.834 18.833 -140.501 56.5s-53.5 87.167 -53.5 148.5v405h100v-385c0 -44 9.66699 -76.667 29 -98s49 -32 89 -32c31.333 0 61.833 8.5 91.5 25.5s59.834 43.5 90.501 79.5v410h100v-600h-100v100h-30c-14 -32.667 -37.167 -59.167 -69.5 -79.5
s-67.833 -30.5 -106.5 -30.5zM149.999 755v90h400v-90h-400z" />
    <glyph glyph-name="Ubreve" unicode="&#x16c;" 
d="M350 -10c-83.333 0 -145.833 23.833 -187.5 71.5s-62.5 119.5 -62.5 215.5v523h100v-523c0 -71.333 11.5 -122 34.5 -152s61.5 -45 115.5 -45s92.5 15 115.5 45s34.5 80.667 34.5 152v523h100v-523c0 -96 -20.833 -167.833 -62.5 -215.5s-104.167 -71.5 -187.5 -71.5z
M350 893c-64.667 0 -119.332 15.667 -163.999 47s-67.334 85.666 -68.001 162.999h100c0.666992 -48 11.834 -81.833 33.501 -101.5s54.5 -29.5 98.5 -29.5s76.833 9.83301 98.5 29.5s32.834 53.5 33.501 101.5h100c-0.666992 -77.333 -23.334 -131.666 -68.001 -162.999
s-99.334 -47 -164.001 -47z" />
    <glyph glyph-name="ubreve" unicode="&#x16d;" 
d="M294 -10c-58 0 -104.834 18.833 -140.501 56.5s-53.5 87.167 -53.5 148.5v405h100v-385c0 -44 9.66699 -76.667 29 -98s49 -32 89 -32c31.333 0 61.833 8.5 91.5 25.5s59.834 43.5 90.501 79.5v410h100v-600h-100v100h-30c-14 -32.667 -37.167 -59.167 -69.5 -79.5
s-67.833 -30.5 -106.5 -30.5zM349.999 693c-64.667 0 -119.332 15.667 -163.999 47s-67.334 85.666 -68.001 162.999h100c0.666992 -48 11.834 -81.833 33.501 -101.5s54.5 -29.5 98.5 -29.5s76.833 9.83301 98.5 29.5s32.834 53.5 33.501 101.5h100
c-0.666992 -77.333 -23.334 -131.666 -68.001 -162.999s-99.334 -47 -164.001 -47z" />
    <glyph glyph-name="Uring" unicode="&#x16e;" 
d="M350 -10c-83.333 0 -145.833 23.833 -187.5 71.5s-62.5 119.5 -62.5 215.5v523h100v-523c0 -71.333 11.5 -122 34.5 -152s61.5 -45 115.5 -45s92.5 15 115.5 45s34.5 80.667 34.5 152v523h100v-523c0 -96 -20.833 -167.833 -62.5 -215.5s-104.167 -71.5 -187.5 -71.5z
M350 885c-48 0 -86.667 11.833 -116 35.5s-44 60.167 -44 109.5v32c0 50 14.667 87.167 44 111.5s68 36.5 116 36.5s86.667 -12.167 116 -36.5s44 -61.5 44 -111.5v-32c0 -49.333 -14.667 -85.833 -44 -109.5s-68 -35.5 -116 -35.5zM350 956c26.667 0 47 5.66699 61 17
s21 30.333 21 57v32c0 26.667 -7 46.167 -21 58.5s-34.333 18.5 -61 18.5c-27.333 0 -47.833 -6.16699 -61.5 -18.5s-20.5 -31.833 -20.5 -58.5v-32c0 -26.667 6.83301 -45.667 20.5 -57s34.167 -17 61.5 -17z" />
    <glyph glyph-name="uring" unicode="&#x16f;" 
d="M294 -10c-58 0 -104.834 18.833 -140.501 56.5s-53.5 87.167 -53.5 148.5v405h100v-385c0 -44 9.66699 -76.667 29 -98s49 -32 89 -32c31.333 0 61.833 8.5 91.5 25.5s59.834 43.5 90.501 79.5v410h100v-600h-100v100h-30c-14 -32.667 -37.167 -59.167 -69.5 -79.5
s-67.833 -30.5 -106.5 -30.5zM349.999 685c-48 0 -86.667 11.833 -116 35.5s-44 60.167 -44 109.5v32c0 50 14.667 87.167 44 111.5s68 36.5 116 36.5s86.667 -12.167 116 -36.5s44 -61.5 44 -111.5v-32c0 -49.333 -14.667 -85.833 -44 -109.5s-68 -35.5 -116 -35.5z
M349.999 756c26.667 0 47 5.66699 61 17s21 30.333 21 57v32c0 26.667 -7 46.167 -21 58.5s-34.333 18.5 -61 18.5c-27.333 0 -47.833 -6.16699 -61.5 -18.5s-20.5 -31.833 -20.5 -58.5v-32c0 -26.667 6.83301 -45.667 20.5 -57s34.167 -17 61.5 -17z" />
    <glyph glyph-name="Uhungarumlaut" unicode="&#x170;" 
d="M350 -10c-83.333 0 -145.833 23.833 -187.5 71.5s-62.5 119.5 -62.5 215.5v523h100v-523c0 -71.333 11.5 -122 34.5 -152s61.5 -45 115.5 -45s92.5 15 115.5 45s34.5 80.667 34.5 152v523h100v-523c0 -96 -20.833 -167.833 -62.5 -215.5s-104.167 -71.5 -187.5 -71.5z
M416 900l56 200h140l-125 -200h-71zM186 900l56 200h140l-125 -200h-71z" />
    <glyph glyph-name="uhungarumlaut" unicode="&#x171;" 
d="M294 -10c-58 0 -104.834 18.833 -140.501 56.5s-53.5 87.167 -53.5 148.5v405h100v-385c0 -44 9.66699 -76.667 29 -98s49 -32 89 -32c31.333 0 61.833 8.5 91.5 25.5s59.834 43.5 90.501 79.5v410h100v-600h-100v100h-30c-14 -32.667 -37.167 -59.167 -69.5 -79.5
s-67.833 -30.5 -106.5 -30.5zM425.999 700l56 200h140l-125 -200h-71zM195.999 700l56 200h140l-125 -200h-71z" />
    <glyph glyph-name="Uogonek" unicode="&#x172;" 
d="M350 -10c-83.333 0 -145.833 23.833 -187.5 71.5s-62.5 119.5 -62.5 215.5v523h100v-523c0 -71.333 11.5 -122 34.5 -152s61.5 -45 115.5 -45s92.5 15 115.5 45s34.5 80.667 34.5 152v523h100v-523c0 -96 -20.833 -167.833 -62.5 -215.5s-104.167 -71.5 -187.5 -71.5z
M415 -215c-42 0 -77.501 10.501 -106.501 31.501s-43.5 50.167 -43.5 87.5c0 32.667 12.667 61.667 38 87s53.333 44 84 56l27 -24c-22.667 -14 -38.167 -29.333 -46.5 -46s-12.5 -31.667 -12.5 -45c0 -18.667 6.16699 -32.834 18.5 -42.501s29.833 -14.5 52.5 -14.5
c12 0 27.167 1 45.5 3s32.833 4.33301 43.5 7v-90c-12.667 -2.66699 -28.667 -5 -48 -7s-36.666 -3 -51.999 -3z" />
    <glyph glyph-name="uogonek" unicode="&#x173;" 
d="M294 -10c-58 0 -104.834 18.833 -140.501 56.5s-53.5 87.167 -53.5 148.5v405h100v-385c0 -44 9.66699 -76.667 29 -98s49 -32 89 -32c31.333 0 61.833 8.5 91.5 25.5s59.834 43.5 90.501 79.5v410h100v-600h-100v100h-30c-14 -32.667 -37.167 -59.167 -69.5 -79.5
s-67.833 -30.5 -106.5 -30.5zM584.999 -215c-42 0 -77.501 10.501 -106.501 31.501s-43.5 50.167 -43.5 87.5c0 32.667 12.667 61.667 38 87s53.333 44 84 56l27 -24c-22.667 -14 -38.167 -29.333 -46.5 -46s-12.5 -31.667 -12.5 -45
c0 -18.667 6.16699 -32.834 18.5 -42.501s29.833 -14.5 52.5 -14.5c12 0 27.167 1 45.5 3s32.833 4.33301 43.5 7v-90c-12.667 -2.66699 -28.667 -5 -48 -7s-36.666 -3 -51.999 -3z" />
    <glyph glyph-name="Wcircumflex" unicode="&#x174;" 
d="M468 0l-118 477l-118 -477h-100l-108 800h99l72 -653l105 453h105l105 -453l72 653h94l-108 -800h-100zM177 904l-38 64l174 149h72l176 -149l-38 -64l-174 116z" />
    <glyph glyph-name="wcircumflex" unicode="&#x175;" 
d="M438 0l-88 391l-84 -391h-114l-113 600h96l76 -527l78 427h118l85 -411l73 511h96l-113 -600h-110zM177 704l-38 64l174 149h72l176 -149l-38 -64l-174 116z" />
    <glyph glyph-name="Ycircumflex" unicode="&#x176;" 
d="M400 0h-100v300l-286 500h112l230 -410l219 410h110l-285 -500v-300zM177 904l-38 64l174 149h72l176 -149l-38 -64l-174 116z" />
    <glyph glyph-name="ycircumflex" unicode="&#x177;" 
d="M172 -206c-16 0 -31.6689 1.00098 -47.002 3.00098s-31 4.66699 -47 8l17 89c17.333 -4 33.5 -7 48.5 -9s28.833 -3 41.5 -3c30.667 0 57.834 8.66699 81.501 26s41.834 45 54.501 83l3 9h-37l-213 600h109l169 -516l168 516h105l-220 -620
c-22.667 -64.667 -53.5 -111.834 -92.5 -141.501s-85.833 -44.5 -140.5 -44.5zM176.998 704.001l-38 64l174 149h72l176 -149l-38 -64l-174 116z" />
    <glyph glyph-name="Ydieresis" unicode="&#x178;" 
d="M400 0h-100v300l-286 500h112l230 -410l219 410h110l-285 -500v-300zM235 910c-19.333 0 -35 4 -47 12s-18 23 -18 45v7c0 22.667 6 38.167 18 46.5s27.667 12.5 47 12.5s35 -4.16699 47 -12.5s18 -23.833 18 -46.5v-7c0 -22 -6.16699 -37 -18.5 -45
s-27.833 -12 -46.5 -12zM465 910c-19.333 0 -35 4 -47 12s-18 23 -18 45v7c0 22.667 6 38.167 18 46.5s27.667 12.5 47 12.5s35 -4.16699 47 -12.5s18 -23.833 18 -46.5v-7c0 -22 -6.16699 -37 -18.5 -45s-27.833 -12 -46.5 -12z" />
    <glyph glyph-name="Zacute" unicode="&#x179;" 
d="M620 0h-540v90l420 620h-420v90h540v-90l-421 -620h421v-90zM266 900l136 200h150l-195 -200h-91z" />
    <glyph glyph-name="zacute" unicode="&#x17a;" 
d="M580 0h-460v90l337 420h-337v90h460v-90l-337 -420h337v-90zM236 700l136 200h150l-195 -200h-91z" />
    <glyph glyph-name="Zdotaccent" unicode="&#x17b;" 
d="M620 0h-540v90l420 620h-420v90h540v-90l-421 -620h421v-90zM350 910c-25.333 0 -45.833 4 -61.5 12s-23.5 23 -23.5 45v7c0 22.667 7.83301 38.167 23.5 46.5s36.167 12.5 61.5 12.5s45.833 -4.16699 61.5 -12.5s23.5 -23.833 23.5 -46.5v-7c0 -22 -8 -37 -24 -45
s-36.333 -12 -61 -12z" />
    <glyph glyph-name="zdotaccent" unicode="&#x17c;" 
d="M580 0h-460v90l337 420h-337v90h460v-90l-337 -420h337v-90zM350 710c-25.333 0 -45.833 4 -61.5 12s-23.5 23 -23.5 45v7c0 22.667 7.83301 38.167 23.5 46.5s36.167 12.5 61.5 12.5s45.833 -4.16699 61.5 -12.5s23.5 -23.833 23.5 -46.5v-7c0 -22 -8 -37 -24 -45
s-36.333 -12 -61 -12z" />
    <glyph glyph-name="Zcaron" unicode="&#x17d;" 
d="M620 0h-540v90l420 620h-420v90h540v-90l-421 -620h421v-90zM315 904l-176 149l38 64l174 -116l172 116l38 -64l-174 -149h-72z" />
    <glyph glyph-name="zcaron" unicode="&#x17e;" 
d="M580 0h-460v90l337 420h-337v90h460v-90l-337 -420h337v-90zM315 704l-176 149l38 64l174 -116l172 116l38 -64l-174 -149h-72z" />
    <glyph glyph-name="longs" unicode="&#x17f;" 
d="M300 0l-0.000976562 510h-120v90h120v40c0 54 18 95.833 54 125.5s78.333 44.5 127 44.5c19.333 0 41.333 -2.66699 66 -8s45.334 -11.333 62.001 -18l-20 -84c-14 5.33301 -29.5 10 -46.5 14s-34.167 6 -51.5 6c-28 0 -50.167 -6.16699 -66.5 -18.5
s-24.5 -32.5 -24.5 -60.5v-641h-100z" />
    <glyph glyph-name="florin" unicode="&#x192;" 
d="M219 -6c-10.667 0 -22.668 0.5 -36.001 1.5s-27 2.5 -41 4.5c-13.333 2 -26.333 4.5 -39 7.5s-23.334 6.5 -32.001 10.5l20 86c9.33301 -3.33301 19 -6.33301 29 -9s19.667 -5 29 -7c8.66699 -1.33301 17.334 -2.33301 26.001 -3s16.667 -1 24 -1
c19.333 0 35.333 1.83301 48 5.5s23 9.5 31 17.5s13.667 18.667 17 32s5 30.333 5 51v220h-210v90h210v140c0 25.333 4.33301 48.5 13 69.5s21 38.833 37 53.5c16 15.333 35.167 27 57.5 35s46.833 12 73.5 12c10.667 0 22.667 -0.5 36 -1.5s27 -2.5 41 -4.5
c13.333 -2 26.333 -4.5 39 -7.5s23.334 -6.5 32.001 -10.5l-20 -86c-9.33301 3.33301 -19 6.33301 -29 9s-19.667 5 -29 7c-8.66699 1.33301 -17.334 2.33301 -26.001 3s-16.667 1 -24 1c-19.333 0 -35.333 -1.83301 -48 -5.5s-23 -9.5 -31 -17.5
c-7.33301 -8.66699 -12.833 -19.667 -16.5 -33s-5.5 -30 -5.5 -50v-114h220v-90h-220v-246c0 -26 -4.16699 -49.5 -12.5 -70.5s-20.5 -38.833 -36.5 -53.5s-35.167 -26 -57.5 -34s-47.166 -12 -74.499 -12z" />
    <glyph glyph-name="Aringacute" unicode="&#x1fa;" 
d="M459 320l-110 367l-111 -367h221zM555 0l-69 230h-275l-69 -230h-102l258 800h105l258 -800h-106zM351 885c-48 0 -86.667 11.833 -116 35.5s-44 60.167 -44 109.5v32c0 50 14.667 87.167 44 111.5s68 36.5 116 36.5s86.667 -12.167 116 -36.5s44 -61.5 44 -111.5v-32
c0 -49.333 -14.667 -85.833 -44 -109.5s-68 -35.5 -116 -35.5zM351 956c26.667 0 47 5.66699 61 17s21 30.333 21 57v32c0 26.667 -7 46.167 -21 58.5s-34.333 18.5 -61 18.5c-27.333 0 -47.833 -6.16699 -61.5 -18.5s-20.5 -31.833 -20.5 -58.5v-32
c0 -26.667 6.83301 -45.667 20.5 -57s34.167 -17 61.5 -17zM296 1200l136 200h150l-195 -200h-91z" />
    <glyph glyph-name="aringacute" unicode="&#x1fb;" 
d="M278 76c34.667 0 66.6689 6.16699 96.002 18.5s54.666 33.833 75.999 64.5v96h-180c-28.667 0 -52.5 -6.5 -71.5 -19.5s-28.5 -35.833 -28.5 -68.5c0 -28.667 8.16699 -51 24.5 -67s44.166 -24 83.499 -24zM265.002 -10c-50.667 0 -95.8359 13.5 -135.503 40.5
s-59.5 70.5 -59.5 130.5c0 52.667 17.167 94 51.5 124s74.5 45 120.5 45h208v86c0 32 -10.667 57.333 -32 76s-53.666 28 -96.999 28c-44 0 -76.833 -6.5 -98.5 -19.5s-38.834 -41.833 -51.501 -86.5l-88 24c11.333 56.667 36.833 99.5 76.5 128.5s92.834 43.5 159.501 43.5
c66 0 121 -14.833 165 -44.5s66 -75.5 66 -137.5v-268c0 -36 10 -58.5 30 -67.5s50 -10.167 90 -3.5v-92c-41.333 -6 -80.166 -3.16699 -116.499 8.5s-56.166 43.167 -59.499 94.5h-20c-18.667 -30.667 -46.667 -56.667 -84 -78s-79 -32 -125 -32zM330 685
c-48 0 -86.667 11.833 -116 35.5s-44 60.167 -44 109.5v32c0 50 14.667 87.167 44 111.5s68 36.5 116 36.5s86.667 -12.167 116 -36.5s44 -61.5 44 -111.5v-32c0 -49.333 -14.667 -85.833 -44 -109.5s-68 -35.5 -116 -35.5zM330 756c26.667 0 47 5.66699 61 17
s21 30.333 21 57v32c0 26.667 -7 46.167 -21 58.5s-34.333 18.5 -61 18.5c-27.333 0 -47.833 -6.16699 -61.5 -18.5s-20.5 -31.833 -20.5 -58.5v-32c0 -26.667 6.83301 -45.667 20.5 -57s34.167 -17 61.5 -17zM276 1000l136 200h150l-195 -200h-91z" />
    <glyph glyph-name="AEacute" unicode="&#x1fc;" 
d="M296 720l-120 -410h184v410h-64zM360 230h-207l-67 -230h-86l243 800h447v-80h-240v-250h230v-80h-230v-310h240v-80h-330v230zM366 900l136 200h150l-195 -200h-91z" />
    <glyph glyph-name="aeacute" unicode="&#x1fd;" 
d="M671 144c-6.66699 -52.667 -23.499 -91.5029 -50.499 -116.503s-68.5 -37.5 -124.5 -37.5c-37.333 0 -69.333 7.33301 -96 22s-46.667 37.334 -60 68.001h-16c-15.333 -26 -34.333 -47.5 -57 -64.5s-52.334 -25.5 -89.001 -25.5c-34.667 0 -68 13.5 -100 40.5
s-48 70.5 -48 130.5c0 53.333 15.667 94.833 47 124.5s68 44.5 110 44.5h123v86c0 34.667 -8 62.334 -24 83.001s-39.333 31 -70 31c-28 0 -48 -6 -60 -18s-23.667 -38 -35 -78l-78 24c9.33301 48 28 85.333 56 112s69.667 40 125 40c27.333 0 52.166 -5.5 74.499 -16.5
s40.5 -27.833 54.5 -50.5c14.667 22.667 33.334 39.5 56.001 50.5s48.334 16.5 77.001 16.5c56 0 100.667 -16.5 134 -49.5s50 -84.167 50 -153.5v-127h-280v-98c0 -41.333 7.66699 -71.166 23 -89.499s39.333 -27.5 72 -27.5s55.667 6 69 18s22.666 35 27.999 69z
M390.001 413.997v-69h190v60c0 45.333 -7.83301 78.333 -23.5 99s-39.5 31 -71.5 31c-30.667 0 -54.167 -9.83301 -70.5 -29.5s-24.5 -50.167 -24.5 -91.5zM310.001 138.997l-0.00292969 126h-95c-27.333 0 -50 -7.16699 -68 -21.5s-27 -39.833 -27 -76.5
c0 -32 5.83301 -56.833 17.5 -74.5s31.834 -26.5 60.501 -26.5c22.667 0 42.834 6.5 60.501 19.5s34.834 30.833 51.501 53.5zM286.998 699.997l136 200h150l-195 -200h-91z" />
    <glyph glyph-name="Oslashacute" unicode="&#x1fe;" 
d="M201 152l223.001 558.999c-10.667 2.66699 -22 4.83398 -34 6.50098s-25.333 2.5 -40 2.5c-62 0 -105.833 -15.167 -131.5 -45.5s-38.5 -82.166 -38.5 -155.499v-242c0 -26.667 1.66699 -50.334 5 -71.001s8.66602 -38.667 15.999 -54zM350.001 79.999
c62 0 105.832 15.001 131.499 45.001s38.5 80.667 38.5 152v242c0 34 -2.66699 63.333 -8 88s-13.666 45 -24.999 61l-228 -573c12 -4.66699 25.5 -8.33398 40.5 -11.001s31.833 -4 50.5 -4zM350 -10c-22 0 -42.668 1.49902 -62.001 4.49902s-37.333 7.83301 -54 14.5
l-44 -109h-100l63 159c-24 24 -42.167 54.333 -54.5 91s-18.5 79 -18.5 127v242c0 94.667 23.167 166.834 69.5 216.501s113.5 74.5 201.5 74.5c18 0 35.167 -1 51.5 -3s31.833 -5.33301 46.5 -10l41 103h100l-59 -146c29.333 -24 51.5 -55.667 66.5 -95s22.5 -86 22.5 -140
v-242c0 -93.333 -23.167 -164.5 -69.5 -213.5s-113.166 -73.5 -200.499 -73.5zM275.999 899.999l136 200h150l-195 -200h-91z" />
    <glyph glyph-name="oslashacute" unicode="&#x1ff;" 
d="M200 217c0 -19.333 2 -36.666 6 -51.999s10 -28.333 18 -39l192 386c-9.33301 2.66699 -19.5 4.66699 -30.5 6s-22.833 2 -35.5 2c-52 0 -90 -11.333 -114 -34s-36 -58.334 -36 -107.001v-162zM350 80c52 0 90.001 10.999 114.001 32.999s36 56.667 36 104v162
c0 20 -2 37.833 -6 53.5s-10 28.834 -18 39.501l-193 -384c9.33301 -2.66699 19.666 -4.66699 30.999 -6s23.333 -2 36 -2zM350.001 -10.001c-18 0 -35.332 1 -51.999 3s-32.334 5.33301 -47.001 10l-51 -103h-100l72 143c-22.667 18.667 -40.334 42.5 -53.001 71.5
s-19 63.167 -19 102.5v162c0 78 23.167 136 69.5 174s106.833 57 181.5 57c18 0 35.167 -1 51.5 -3s31.833 -5.33301 46.5 -10l51 103h100l-72 -143c22.667 -18.667 40.334 -43 53.001 -73s19 -65 19 -105v-162c0 -77.333 -23 -134.5 -69 -171.5s-106.333 -55.5 -181 -55.5z
M236.002 699.999l136 200h150l-195 -200h-91z" />
    <glyph glyph-name="Scommaaccent" unicode="&#x218;" 
d="M363 -6c-60 0 -116 9.66797 -168 29.001s-98.667 54.666 -140 105.999l72 68c28 -38 61.5 -66.333 100.5 -85s85.167 -28 138.5 -28c49.333 0 89.166 11.5 119.499 34.5s45.5 54.167 45.5 93.5c0 38 -13 67.167 -39 87.5s-77.333 41.833 -154 64.5
c-97.333 28 -163.666 58.333 -198.999 91s-53 79 -53 139c0 69.333 23.167 121.666 69.5 156.999s102.5 53 168.5 53c56 0 109.167 -9.83301 159.5 -29.5s94.833 -54.5 133.5 -104.5l-69 -69c-26.667 38 -60 66.333 -100 85s-80.667 28 -122 28
c-42 0 -75.667 -8.5 -101 -25.5s-38 -45.5 -38 -85.5c0 -35.333 13.833 -63.166 41.5 -83.499s82.167 -42.166 163.5 -65.499c92 -26.667 154.833 -55.834 188.5 -87.501s50.5 -77.5 50.5 -137.5c0 -76.667 -27.333 -135 -82 -175s-116.667 -60 -186 -60zM196 -299.999
l96 200h150l-155 -200h-91z" />
    <glyph glyph-name="scommaaccent" unicode="&#x219;" 
d="M358 -10c-50.667 0 -99.666 7.49707 -146.999 22.4971s-91 38.167 -131 69.5l45 79c32.667 -26.667 69.167 -46.834 109.5 -60.501s81.5 -20.5 123.5 -20.5c34.667 0 67.834 5.33301 99.501 16s47.5 33.334 47.5 68.001c0 28.667 -13 49 -39 61s-73.667 22.333 -143 31
c-73.333 8.66699 -128.833 25.834 -166.5 51.501s-56.5 66.167 -56.5 121.5c0 60 22.667 105.167 68 135.5s98 45.5 158 45.5c47.333 0 92.833 -8 136.5 -24s84.167 -38.667 121.5 -68l-45 -79c-30.667 24.667 -64 44.334 -100 59.001s-73.667 22 -113 22
c-32 0 -61.167 -6 -87.5 -18s-39.5 -34 -39.5 -66c0 -27.333 12.167 -47.166 36.5 -59.499s71.166 -22.833 140.499 -31.5c76 -8.66699 133 -27.167 171 -55.5s57 -67.833 57 -118.5c0 -62.667 -25.333 -108.5 -76 -137.5s-107.334 -43.5 -170.001 -43.5zM196.001 -300.003
l96 200h150l-155 -200h-91z" />
    <glyph glyph-name="Tcommaaccent" unicode="&#x21a;" 
d="M300 0v710h-250v90h600v-90h-250v-710h-100zM195 -300l96 200h150l-155 -200h-91z" />
    <glyph glyph-name="tcommaaccent" unicode="&#x21b;" 
d="M449 -9c-66 0 -117.331 16.334 -153.998 49.001s-55 82.667 -55 150v320h-170v90h170v200h100v-200h260v-90h-260v-311c0 -38.667 9.66699 -67.334 29 -86.001s48 -28 86 -28c25.333 0 49 1.83301 71 5.5s43 8.5 63 14.5l20 -91
c-22.667 -6.66699 -46.834 -12.167 -72.501 -16.5s-54.834 -6.5 -87.501 -6.5zM216.002 -299.999l96 200h150l-155 -200h-91z" />
    <glyph glyph-name="dotlessj" unicode="&#xf6be;" 
d="M258 -208c-25.333 0 -50.668 1.5 -76.001 4.5s-52.333 8.83301 -81 17.5l20 96c24.667 -8.66699 47.834 -14.5 69.501 -17.5s43.167 -4.5 64.5 -4.5c43.333 0 78.333 9.16699 105 27.5s40 48.833 40 91.5v503h-280v90h380v-606c0 -68.667 -23.167 -119.5 -69.5 -152.5
s-103.833 -49.5 -172.5 -49.5z" />
    <glyph glyph-name="dotlessj" unicode="&#x237;" 
d="M258 -208c-25.333 0 -50.668 1.5 -76.001 4.5s-52.333 8.83301 -81 17.5l20 96c24.667 -8.66699 47.834 -14.5 69.501 -17.5s43.167 -4.5 64.5 -4.5c43.333 0 78.333 9.16699 105 27.5s40 48.833 40 91.5v503h-280v90h380v-606c0 -68.667 -23.167 -119.5 -69.5 -152.5
s-103.833 -49.5 -172.5 -49.5z" />
    <glyph glyph-name="quoteleft" unicode="&#x2018;" 
d="M201 400l225 400h84l-110 -400h-199z" />
    <glyph glyph-name="quoteleft" unicode="&#x2bb;" 
d="M201 400l225 400h84l-110 -400h-199z" />
    <glyph glyph-name="circumflex" unicode="&#x2c6;" 
d="M177 704l-38 64l174 149h72l176 -149l-38 -64l-174 116z" />
    <glyph glyph-name="caron" unicode="&#x2c7;" 
d="M315 704l-176 149l38 64l174 -116l172 116l38 -64l-174 -149h-72z" />
    <glyph glyph-name="breve" unicode="&#x2d8;" 
d="M350 693c-64.667 0 -119.332 15.667 -163.999 47s-67.334 85.666 -68.001 162.999h100c0.666992 -48 11.834 -81.833 33.501 -101.5s54.5 -29.5 98.5 -29.5s76.833 9.83301 98.5 29.5s32.834 53.5 33.501 101.5h100c-0.666992 -77.333 -23.334 -131.666 -68.001 -162.999
s-99.334 -47 -164.001 -47z" />
    <glyph glyph-name="dotaccent" unicode="&#x2d9;" 
d="M350 710c-25.333 0 -45.833 4 -61.5 12s-23.5 23 -23.5 45v7c0 22.667 7.83301 38.167 23.5 46.5s36.167 12.5 61.5 12.5s45.833 -4.16699 61.5 -12.5s23.5 -23.833 23.5 -46.5v-7c0 -22 -8 -37 -24 -45s-36.333 -12 -61 -12z" />
    <glyph glyph-name="ring" unicode="&#x2da;" 
d="M350 685c-48 0 -86.667 11.833 -116 35.5s-44 60.167 -44 109.5v32c0 50 14.667 87.167 44 111.5s68 36.5 116 36.5s86.667 -12.167 116 -36.5s44 -61.5 44 -111.5v-32c0 -49.333 -14.667 -85.833 -44 -109.5s-68 -35.5 -116 -35.5zM350 756c26.667 0 47 5.66699 61 17
s21 30.333 21 57v32c0 26.667 -7 46.167 -21 58.5s-34.333 18.5 -61 18.5c-27.333 0 -47.833 -6.16699 -61.5 -18.5s-20.5 -31.833 -20.5 -58.5v-32c0 -26.667 6.83301 -45.667 20.5 -57s34.167 -17 61.5 -17z" />
    <glyph glyph-name="ogonek" unicode="&#x2db;" 
d="M405 -215c-42 0 -77.501 10.501 -106.501 31.501s-43.5 50.167 -43.5 87.5c0 32.667 12.667 61.667 38 87s53.333 44 84 56l27 -24c-22.667 -14 -38.167 -29.333 -46.5 -46s-12.5 -31.667 -12.5 -45c0 -18.667 6.16699 -32.834 18.5 -42.501s29.833 -14.5 52.5 -14.5
c12 0 27.167 1 45.5 3s32.833 4.33301 43.5 7v-90c-12.667 -2.66699 -28.667 -5 -48 -7s-36.666 -3 -51.999 -3z" />
    <glyph glyph-name="tilde" unicode="&#x2dc;" 
d="M429 710c-22.667 0 -41.8311 6 -57.498 18s-29.5 25.333 -41.5 40l-33.5 39c-10.333 12 -21.5 18 -33.5 18c-12.667 0 -23.667 -6.16699 -33 -18.5s-13.666 -37.5 -12.999 -75.5v-11h-77v15c0 50 11.333 91.667 34 125s55 50 97 50c25.333 0 46.166 -6 62.499 -18
s30.166 -25 41.499 -39l31 -40c9.33301 -12 19.666 -18 30.999 -18c12.667 0 23.5 6.16699 32.5 18.5s13.5 37.5 13.5 75.5v11h77v-15c0 -50.667 -11.333 -92.5 -34 -125.5s-55 -49.5 -97 -49.5z" />
    <glyph glyph-name="hungarumlaut" unicode="&#x2dd;" 
d="M426 700l56 200h140l-125 -200h-71zM196 700l56 200h140l-125 -200h-71z" />
    <glyph glyph-name="gravecmb" unicode="&#x300;" horiz-adv-x="0" 
d="M1 700l-195 200h150l136 -200h-91z" />
    <glyph glyph-name="acutecmb" unicode="&#x301;" horiz-adv-x="0" 
d="M-114 700l136 200h150l-195 -200h-91z" />
    <glyph glyph-name="circumflexcmb" unicode="&#x302;" horiz-adv-x="0" 
d="M-173 704l-38 64l174 149h72l176 -149l-38 -64l-174 116z" />
    <glyph glyph-name="tildecmb" unicode="&#x303;" horiz-adv-x="0" 
d="M79 710c-22.667 0 -41.8311 6 -57.498 18s-29.5 25.333 -41.5 40l-33.5 39c-10.333 12 -21.5 18 -33.5 18c-12.667 0 -23.667 -6.16699 -33 -18.5s-13.666 -37.5 -12.999 -75.5v-11h-77v15c0 50 11.333 91.667 34 125s55 50 97 50c25.333 0 46.166 -6 62.499 -18
s30.166 -25 41.499 -39l31 -40c9.33301 -12 19.666 -18 30.999 -18c12.667 0 23.5 6.16699 32.5 18.5s13.5 37.5 13.5 75.5v11h77v-15c0 -50.667 -11.333 -92.5 -34 -125.5s-55 -49.5 -97 -49.5z" />
    <glyph glyph-name="macroncmb" unicode="&#x304;" horiz-adv-x="0" 
d="M-200 755v90h400v-90h-400z" />
    <glyph glyph-name="brevecmb" unicode="&#x306;" horiz-adv-x="0" 
d="M0 693c-64.667 0 -119.332 15.667 -163.999 47s-67.334 85.666 -68.001 162.999h100c0.666992 -48 11.834 -81.833 33.501 -101.5s54.5 -29.5 98.5 -29.5s76.833 9.83301 98.5 29.5s32.834 53.5 33.501 101.5h100c-0.666992 -77.333 -23.334 -131.666 -68.001 -162.999
s-99.334 -47 -164.001 -47z" />
    <glyph glyph-name="dotaccentcmb" unicode="&#x307;" horiz-adv-x="0" 
d="M0 710c-25.333 0 -45.833 4 -61.5 12s-23.5 23 -23.5 45v7c0 22.667 7.83301 38.167 23.5 46.5s36.167 12.5 61.5 12.5s45.833 -4.16699 61.5 -12.5s23.5 -23.833 23.5 -46.5v-7c0 -22 -8 -37 -24 -45s-36.333 -12 -61 -12z" />
    <glyph glyph-name="dieresiscmb" unicode="&#x308;" horiz-adv-x="0" 
d="M-115 710c-19.333 0 -35 4 -47 12s-18 23 -18 45v7c0 22.667 6 38.167 18 46.5s27.667 12.5 47 12.5s35 -4.16699 47 -12.5s18 -23.833 18 -46.5v-7c0 -22 -6.16699 -37 -18.5 -45s-27.833 -12 -46.5 -12zM115 710c-19.333 0 -35 4 -47 12s-18 23 -18 45v7
c0 22.667 6 38.167 18 46.5s27.667 12.5 47 12.5s35 -4.16699 47 -12.5s18 -23.833 18 -46.5v-7c0 -22 -6.16699 -37 -18.5 -45s-27.833 -12 -46.5 -12z" />
    <glyph glyph-name="ringcmb" unicode="&#x30a;" horiz-adv-x="0" 
d="M0 685c-48 0 -86.667 11.833 -116 35.5s-44 60.167 -44 109.5v32c0 50 14.667 87.167 44 111.5s68 36.5 116 36.5s86.667 -12.167 116 -36.5s44 -61.5 44 -111.5v-32c0 -49.333 -14.667 -85.833 -44 -109.5s-68 -35.5 -116 -35.5zM0 756c26.667 0 47 5.66699 61 17
s21 30.333 21 57v32c0 26.667 -7 46.167 -21 58.5s-34.333 18.5 -61 18.5c-27.333 0 -47.833 -6.16699 -61.5 -18.5s-20.5 -31.833 -20.5 -58.5v-32c0 -26.667 6.83301 -45.667 20.5 -57s34.167 -17 61.5 -17z" />
    <glyph glyph-name="hungarumlautcmb" unicode="&#x30b;" horiz-adv-x="0" 
d="M76 700l56 200h140l-125 -200h-71zM-154 700l56 200h140l-125 -200h-71z" />
    <glyph glyph-name="caroncmb" unicode="&#x30c;" horiz-adv-x="0" 
d="M-35 704l-176 149l38 64l174 -116l172 116l38 -64l-174 -149h-72z" />
    <glyph glyph-name="commaturnedabovecmb" unicode="&#x312;" horiz-adv-x="0" 
d="M-134 700l155 200h91l-96 -200h-150z" />
    <glyph glyph-name="commaaccentcmb" unicode="&#x326;" horiz-adv-x="0" 
d="M-134 -300l96 200h150l-155 -200h-91z" />
    <glyph glyph-name="cedillacmb" unicode="&#x327;" horiz-adv-x="0" 
d="M-30 0l20 42c29.333 -5.33301 57.333 -17.833 84 -37.5s40 -51.5 40 -95.5c0 -43.333 -15 -75 -45 -95s-63.667 -30 -101 -30c-44 0 -79.833 8.16699 -107.5 24.5s-42.834 43.5 -45.501 81.5l88 10c1.33301 -12.667 6.5 -21.5 15.5 -26.5s23.833 -7.5 44.5 -7.5
c20 0 35.167 4.16699 45.5 12.5s15.5 23.833 15.5 46.5s-4.16699 39.5 -12.5 50.5s-22.166 19.167 -41.499 24.5z" />
    <glyph glyph-name="ogonekcmb" unicode="&#x328;" horiz-adv-x="0" 
d="M55 -215c-42 0 -77.501 10.501 -106.501 31.501s-43.5 50.167 -43.5 87.5c0 32.667 12.667 61.667 38 87s53.333 44 84 56l27 -24c-22.667 -14 -38.167 -29.333 -46.5 -46s-12.5 -31.667 -12.5 -45c0 -18.667 6.16699 -32.834 18.5 -42.501s29.833 -14.5 52.5 -14.5
c12 0 27.167 1 45.5 3s32.833 4.33301 43.5 7v-90c-12.667 -2.66699 -28.667 -5 -48 -7s-36.666 -3 -51.999 -3z" />
    <glyph glyph-name="tonos" unicode="&#x384;" 
d="M276 700l76 200h140l-135 -200h-81z" />
    <glyph glyph-name="dieresistonos" unicode="&#x385;" 
d="M286 700l46 200h120l-105 -200h-61zM175 700c-16.667 0 -30 4 -40 12s-15 23 -15 45v7c0 22.667 5 38.167 15 46.5s23.333 12.5 40 12.5s30 -4.16699 40 -12.5s15 -23.833 15 -46.5v-7c0 -22 -5.16699 -37 -15.5 -45s-23.5 -12 -39.5 -12zM525 700
c-16.667 0 -30 4 -40 12s-15 23 -15 45v7c0 22.667 5 38.167 15 46.5s23.333 12.5 40 12.5s30 -4.16699 40 -12.5s15 -23.833 15 -46.5v-7c0 -22 -5.16699 -37 -15.5 -45s-23.5 -12 -39.5 -12z" />
    <glyph glyph-name="Alphatonos" unicode="&#x386;" 
d="M459 320l-110 367l-111 -367h221zM555 0l-69 230h-275l-69 -230h-102l258 800h105l258 -800h-106zM27 700l76 200h140l-135 -200h-81z" />
    <glyph glyph-name="anoteleia" unicode="&#x387;" 
d="M351 290c-33.333 0 -60.3311 7.5 -80.998 22.5s-31 38.833 -31 71.5v28c0 32.667 10.333 56.834 31 72.501s47.667 23.5 81 23.5s60.166 -7.83301 80.499 -23.5s30.5 -39.834 30.5 -72.501v-28c0 -32.667 -10.333 -56.5 -31 -71.5s-47.334 -22.5 -80.001 -22.5z" />
    <glyph glyph-name="Epsilontonos" unicode="&#x388;" 
d="M100 0v800h520v-90h-420v-230h370v-90h-370v-300h420v-90h-520zM-113 700l76 200h140l-135 -200h-81z" />
    <glyph glyph-name="Etatonos" unicode="&#x389;" 
d="M100 0v800h100v-320h300v320h100v-800h-100v390h-300v-390h-100zM-123 700l76 200h140l-135 -200h-81z" />
    <glyph glyph-name="Iotatonos" unicode="&#x38a;" 
d="M100 0v90h200v620h-200v90h500v-90h-200v-620h200v-90h-500zM-123 700l76 200h140l-135 -200h-81z" />
    <glyph glyph-name="Omicrontonos" unicode="&#x38c;" 
d="M355 -10c-88 0 -155 24.5 -201 73.5s-69 120.167 -69 213.5v242c0 94.667 23.167 166.834 69.5 216.501s113.5 74.5 201.5 74.5c87.333 0 154 -24.833 200 -74.5s69 -121.834 69 -216.501v-242c0 -93.333 -23 -164.5 -69 -213.5s-113 -73.5 -201 -73.5zM355 80
c61.333 0 105 15 131 45s39 80.667 39 152v242c0 72.667 -13 124.334 -39 155.001s-69.667 46 -131 46s-105 -15.333 -131 -46s-39 -82.334 -39 -155.001v-242c0 -71.333 13 -122 39 -152s69.667 -45 131 -45zM-38 700l76 200h140l-135 -200h-81z" />
    <glyph glyph-name="Upsilontonos" unicode="&#x38e;" 
d="M400 0h-100v300l-286 500h112l230 -410l219 410h110l-285 -500v-300zM-153 700l76 200h140l-135 -200h-81z" />
    <glyph glyph-name="Omegatonos" unicode="&#x38f;" 
d="M300 0h-230.002v90h130v90c-46.667 14 -80 42 -100 84s-30 91 -30 147v108c0 96 23.5 168.5 70.5 217.5s116.833 73.5 209.5 73.5s162.5 -24.5 209.5 -73.5s70.5 -121.5 70.5 -217.5v-108c0 -56 -10 -105 -30 -147s-53.333 -70 -100 -84v-90h130v-90h-230v230
c51.333 8.66699 85.833 28.834 103.5 60.501s26.5 71.834 26.5 120.501v108c0 72.667 -13.667 124.334 -41 155.001s-73.666 46 -138.999 46s-111.666 -15.333 -138.999 -46s-41 -82.334 -41 -155.001v-108c0 -48.667 8.83301 -88.834 26.5 -120.501
s52.167 -51.834 103.5 -60.501v-230zM-63.002 700l76 200h140l-135 -200h-81z" />
    <glyph glyph-name="iotadieresistonos" unicode="&#x390;" 
d="M496 -5c-61.333 0 -109.335 17.667 -144.002 53s-52 84 -52 146v316h-220v90h320v-407c0 -35.333 8.16699 -62 24.5 -80s41.166 -27 74.499 -27c14.667 0 31.834 1.83301 51.501 5.5s35.834 8.16699 48.501 13.5l20 -87c-16 -6.66699 -34.667 -12.167 -56 -16.5
s-43.666 -6.5 -66.999 -6.5zM275.998 700l46 200h120l-105 -200h-61zM164.998 700c-16.667 0 -30 4 -40 12s-15 23 -15 45v7c0 22.667 5 38.167 15 46.5s23.333 12.5 40 12.5s30 -4.16699 40 -12.5s15 -23.833 15 -46.5v-7c0 -22 -5.16699 -37 -15.5 -45
s-23.5 -12 -39.5 -12zM514.998 700c-16.667 0 -30 4 -40 12s-15 23 -15 45v7c0 22.667 5 38.167 15 46.5s23.333 12.5 40 12.5s30 -4.16699 40 -12.5s15 -23.833 15 -46.5v-7c0 -22 -5.16699 -37 -15.5 -45s-23.5 -12 -39.5 -12z" />
    <glyph glyph-name="Alpha" unicode="&#x391;" 
d="M459 320l-110 367l-111 -367h221zM555 0l-69 230h-275l-69 -230h-102l258 800h105l258 -800h-106z" />
    <glyph glyph-name="Beta" unicode="&#x392;" 
d="M100 0l0.000976562 799.999h248c83.333 0 144.833 -15.333 184.5 -46s59.5 -78 59.5 -142v-45c0 -34 -9.66699 -62.5 -29 -85.5s-46 -37.5 -80 -43.5v-29c43.333 -4 77.666 -20.333 102.999 -49s38 -65.667 38 -111v-45c0 -69.333 -22 -120.666 -66 -153.999
s-111.667 -50 -203 -50h-255zM200.001 459.999l158 -0.00195312c47.333 0 81.833 8.83301 103.5 26.5s32.5 45.834 32.5 84.501v28c0 38.667 -10.833 66.834 -32.5 84.501s-56.167 26.5 -103.5 26.5h-158v-250zM200.001 89.9971h178c50.667 0 87.667 9.83301 111 29.5
s35 51.5 35 95.5v32c0 44 -11.667 75.833 -35 95.5s-60.333 29.5 -111 29.5h-178v-282z" />
    <glyph glyph-name="Gamma" unicode="&#x393;" 
d="M100 0v800h520v-90h-420v-710h-100z" />
    <glyph glyph-name="Delta" unicode="&#x394;" 
d="M40 0v90l253 710h105l262 -710v-90h-620zM558 90l-210 606l-209 -606h419z" />
    <glyph glyph-name="Epsilon" unicode="&#x395;" 
d="M100 0v800h520v-90h-420v-230h370v-90h-370v-300h420v-90h-520z" />
    <glyph glyph-name="Zeta" unicode="&#x396;" 
d="M620 0h-540v90l420 620h-420v90h540v-90l-421 -620h421v-90z" />
    <glyph glyph-name="Eta" unicode="&#x397;" 
d="M100 0v800h100v-320h300v320h100v-800h-100v390h-300v-390h-100z" />
    <glyph glyph-name="Theta" unicode="&#x398;" 
d="M350 -10c-98.667 0 -173.332 24.333 -223.999 73s-76 120 -76 214v242c0 95.333 25.5 167.666 76.5 216.999s125.833 74 224.5 74c98 0 172.333 -24.667 223 -74s76 -121.666 76 -216.999v-242c0 -94 -25.333 -165.333 -76 -214s-125.334 -73 -224.001 -73zM350.002 80
c72.667 0 124.167 15 154.5 45s45.5 80.667 45.5 152v242c0 73.333 -15.167 125.166 -45.5 155.499s-81.833 45.5 -154.5 45.5s-124.167 -15.167 -154.5 -45.5s-45.5 -82.166 -45.5 -155.499v-242c0 -71.333 15.167 -122 45.5 -152s81.833 -45 154.5 -45zM250.002 360v90
h200v-90h-200z" />
    <glyph glyph-name="Iota" unicode="&#x399;" 
d="M100 0v90h200v620h-200v90h500v-90h-200v-620h200v-90h-500z" />
    <glyph glyph-name="Kappa" unicode="&#x39a;" 
d="M200 380v-380h-100v800h100v-330h34l309 330h116l-343 -368l340 -432h-120l-299 380h-37z" />
    <glyph glyph-name="Lambda" unicode="&#x39b;" 
d="M555 0l-206 687l-207 -687h-102l258 800h105l258 -800h-106z" />
    <glyph glyph-name="Mu" unicode="&#x39c;" 
d="M302 200l-142 439v-639h-90v800h135l148 -481l147 481h130v-800h-90v640l-142 -440h-96z" />
    <glyph glyph-name="Nu" unicode="&#x39d;" 
d="M457 0l-267 674v-674h-90v800h137l273 -689v689h90v-800h-143z" />
    <glyph glyph-name="Xi" unicode="&#x39e;" 
d="M80 710v90h540v-90h-540zM105 390v90h490v-90h-490zM80 0v90h540v-90h-540z" />
    <glyph glyph-name="Omicron" unicode="&#x39f;" 
d="M350 -10c-88 0 -155 24.5 -201 73.5s-69 120.167 -69 213.5v242c0 94.667 23.167 166.834 69.5 216.501s113.5 74.5 201.5 74.5c87.333 0 154 -24.833 200 -74.5s69 -121.834 69 -216.501v-242c0 -93.333 -23 -164.5 -69 -213.5s-113 -73.5 -201 -73.5zM350 80
c61.333 0 105 15 131 45s39 80.667 39 152v242c0 72.667 -13 124.334 -39 155.001s-69.667 46 -131 46s-105 -15.333 -131 -46s-39 -82.334 -39 -155.001v-242c0 -71.333 13 -122 39 -152s69.667 -45 131 -45z" />
    <glyph glyph-name="Pi" unicode="&#x3a0;" 
d="M100 0v800h500v-800h-100v710h-300v-710h-100z" />
    <glyph glyph-name="Rho" unicode="&#x3a1;" 
d="M100 0l0.000976562 800h281c83.333 0 145.666 -17.5 186.999 -52.5s62 -87.833 62 -158.5v-98c0 -70.667 -20.833 -123.5 -62.5 -158.5s-104.167 -52.5 -187.5 -52.5h-180v-280h-100zM200.001 368h180c54 0 92.5 9.5 115.5 28.5s34.5 51.167 34.5 96.5v92
c0 45.333 -11.5 77.5 -34.5 96.5s-61.5 28.5 -115.5 28.5h-180v-342z" />
    <glyph glyph-name="Sigma" unicode="&#x3a3;" 
d="M620 0h-550v90l355 322l-355 298v90h550v-90h-418l298 -255v-78l-310 -287h430v-90z" />
    <glyph glyph-name="Tau" unicode="&#x3a4;" 
d="M300 0v710h-250v90h600v-90h-250v-710h-100z" />
    <glyph glyph-name="Upsilon" unicode="&#x3a5;" 
d="M400 0h-100v300l-286 500h112l230 -410l219 410h110l-285 -500v-300z" />
    <glyph glyph-name="Phi" unicode="&#x3a6;" 
d="M433 90h-33v-100h-100v100h-32c-75.333 0 -130.5 24.667 -165.5 74s-52.5 113.666 -52.5 192.999v82c0 80.667 17.5 146 52.5 196s90.167 75 165.5 75h32v100h100v-100h33c75.333 0 130.333 -25 165 -75s52 -115.333 52 -196v-82
c0 -79.333 -17.333 -143.666 -52 -192.999s-89.667 -74 -165 -74zM433 620h-38v-440h38c42 0 72 13.5 90 40.5s27 72.5 27 136.5v82c0 66 -9 112.667 -27 140s-48 41 -90 41zM268 180h37v440h-37c-42.667 0 -73 -13.667 -91 -41s-27 -74 -27 -140v-82
c0 -64 9 -109.5 27 -136.5s48.333 -40.5 91 -40.5z" />
    <glyph glyph-name="Chi" unicode="&#x3a7;" 
d="M564 0l-213 328l-214 -328h-117l279 408l-254 392h115l202 -312l204 312h116l-268 -391l265 -409h-115z" />
    <glyph glyph-name="Psi" unicode="&#x3a8;" 
d="M400 0h-100v193c-76 8.66699 -131.667 36.5 -167 83.5s-53 107.167 -53 180.5v343h95v-343c0 -53.333 9.66699 -93.333 29 -120s51.333 -43 96 -49v512h100v-512c44.667 6 76.667 22.333 96 49s29 66.667 29 120v343h95v-343c0 -73.333 -17.667 -133.5 -53 -180.5
s-91 -74.833 -167 -83.5v-193z" />
    <glyph glyph-name="Omega" unicode="&#x3a9;" 
d="M300 0h-230.002v90h130v90c-46.667 14 -80 42 -100 84s-30 91 -30 147v108c0 96 23.5 168.5 70.5 217.5s116.833 73.5 209.5 73.5s162.5 -24.5 209.5 -73.5s70.5 -121.5 70.5 -217.5v-108c0 -56 -10 -105 -30 -147s-53.333 -70 -100 -84v-90h130v-90h-230v230
c51.333 8.66699 85.833 28.834 103.5 60.501s26.5 71.834 26.5 120.501v108c0 72.667 -13.667 124.334 -41 155.001s-73.666 46 -138.999 46s-111.666 -15.333 -138.999 -46s-41 -82.334 -41 -155.001v-108c0 -48.667 8.83301 -88.834 26.5 -120.501
s52.167 -51.834 103.5 -60.501v-230z" />
    <glyph glyph-name="Iotadieresis" unicode="&#x3aa;" 
d="M100 0v90h200v620h-200v90h500v-90h-200v-620h200v-90h-500zM235 910c-19.333 0 -35 4 -47 12s-18 23 -18 45v7c0 22.667 6 38.167 18 46.5s27.667 12.5 47 12.5s35 -4.16699 47 -12.5s18 -23.833 18 -46.5v-7c0 -22 -6.16699 -37 -18.5 -45s-27.833 -12 -46.5 -12z
M465 910c-19.333 0 -35 4 -47 12s-18 23 -18 45v7c0 22.667 6 38.167 18 46.5s27.667 12.5 47 12.5s35 -4.16699 47 -12.5s18 -23.833 18 -46.5v-7c0 -22 -6.16699 -37 -18.5 -45s-27.833 -12 -46.5 -12z" />
    <glyph glyph-name="Upsilondieresis" unicode="&#x3ab;" 
d="M400 0h-100v300l-286 500h112l230 -410l219 410h110l-285 -500v-300zM235 910c-19.333 0 -35 4 -47 12s-18 23 -18 45v7c0 22.667 6 38.167 18 46.5s27.667 12.5 47 12.5s35 -4.16699 47 -12.5s18 -23.833 18 -46.5v-7c0 -22 -6.16699 -37 -18.5 -45
s-27.833 -12 -46.5 -12zM465 910c-19.333 0 -35 4 -47 12s-18 23 -18 45v7c0 22.667 6 38.167 18 46.5s27.667 12.5 47 12.5s35 -4.16699 47 -12.5s18 -23.833 18 -46.5v-7c0 -22 -6.16699 -37 -18.5 -45s-27.833 -12 -46.5 -12z" />
    <glyph glyph-name="alphatonos" unicode="&#x3ac;" 
d="M300 85c32.667 0 62.167 8.83105 88.5 26.498s53.5 43.834 81.5 78.501v220c-28 34.667 -55.167 60.834 -81.5 78.501s-55.833 26.5 -88.5 26.5c-36 0 -63 -11.833 -81 -35.5s-27 -59.5 -27 -107.5v-144c0 -47.333 9 -83 27 -107s45 -36 81 -36zM490 109.998
l-30 0.000976562c-18.667 -38 -43.834 -67.5 -75.501 -88.5s-68.167 -31.5 -109.5 -31.5c-56 0 -100.833 19.833 -134.5 59.5s-50.5 95.834 -50.5 168.501v164c0 72 16.833 128 50.5 168s78.5 60 134.5 60c36.667 0 69.167 -9.83301 97.5 -29.5s50.833 -46.5 67.5 -80.5h30
v100h100v-440c0 -36 8.33301 -58.333 25 -67s41.667 -10 75 -4v-92c-53.333 -6.66699 -95.666 -1.83398 -126.999 14.499s-49 49.166 -53 98.499zM326 699.999l76 200h140l-135 -200h-81z" />
    <glyph glyph-name="epsilontonos" unicode="&#x3ad;" 
d="M354 -10c-93.333 0 -162.167 14.5 -206.5 43.5s-66.5 73.5 -66.5 133.5v10c0 34 13 63.667 39 89s65 39.666 117 42.999v22c-42.667 2.66699 -76.334 13.167 -101.001 31.5s-37 43.5 -37 75.5v14c0 54 20.667 93.833 62 119.5s105.666 38.5 192.999 38.5
c79.333 0 139.166 -14.667 179.499 -44s62.833 -74.666 67.5 -135.999l-99 -8c-4.66699 36 -18.5 61.833 -41.5 77.5s-58.5 23.5 -106.5 23.5c-56 0 -95.833 -6 -119.5 -18s-35.5 -31.667 -35.5 -59v-14c0 -24.667 11.333 -42.167 34 -52.5s60.334 -15.5 113.001 -15.5h56
v-80h-56c-59.333 0 -101.666 -7.5 -126.999 -22.5s-38 -39.833 -38 -74.5v-10c0 -36 13.333 -61.667 40 -77s71 -23 133 -23c54 0 94 8.66699 120 26s41.333 46 46 86l99 -7c-4.66699 -66 -28.667 -114.5 -72 -145.5s-107.666 -46.5 -192.999 -46.5zM275.999 700l76 200h140
l-135 -200h-81z" />
    <glyph glyph-name="etatonos" unicode="&#x3ae;" 
d="M500 -200v604c0 37.333 -9.66699 65.166 -29 83.499s-49 27.5 -89 27.5c-31.333 0 -61.833 -8.66699 -91.5 -26s-59.834 -43.666 -90.501 -78.999v-410h-100v600h100v-100h30c14.667 33.333 38.5 60 71.5 80s70.5 30 112.5 30c56.667 0 101.834 -16.5 135.501 -49.5
s50.5 -77.167 50.5 -132.5v-628h-100zM276 700l76 200h140l-135 -200h-81z" />
    <glyph glyph-name="iotatonos" unicode="&#x3af;" 
d="M496 -5c-61.333 0 -109.335 17.667 -144.002 53s-52 84 -52 146v316h-220v90h320v-407c0 -35.333 8.16699 -62 24.5 -80s41.166 -27 74.499 -27c14.667 0 31.834 1.83301 51.501 5.5s35.834 8.16699 48.501 13.5l20 -87c-16 -6.66699 -34.667 -12.167 -56 -16.5
s-43.666 -6.5 -66.999 -6.5zM270.998 700l76 200h140l-135 -200h-81z" />
    <glyph glyph-name="upsilondieresistonos" unicode="&#x3b0;" 
d="M350 -10c-81.333 0 -143.331 19.5 -185.998 58.5s-64 95.167 -64 168.5v383h100v-383c0 -48.667 11.667 -83.667 35 -105s61.666 -32 114.999 -32s91.666 10.667 114.999 32s35 56.333 35 105v383h100v-383c0 -73.333 -21.333 -129.5 -64 -168.5
s-104.667 -58.5 -186 -58.5zM286.002 700l46 200h120l-105 -200h-61zM175.002 700c-16.667 0 -30 4 -40 12s-15 23 -15 45v7c0 22.667 5 38.167 15 46.5s23.333 12.5 40 12.5s30 -4.16699 40 -12.5s15 -23.833 15 -46.5v-7c0 -22 -5.16699 -37 -15.5 -45
s-23.5 -12 -39.5 -12zM525.002 700c-16.667 0 -30 4 -40 12s-15 23 -15 45v7c0 22.667 5 38.167 15 46.5s23.333 12.5 40 12.5s30 -4.16699 40 -12.5s15 -23.833 15 -46.5v-7c0 -22 -5.16699 -37 -15.5 -45s-23.5 -12 -39.5 -12z" />
    <glyph glyph-name="alpha" unicode="&#x3b1;" 
d="M300 85c32.667 0 62.167 8.83105 88.5 26.498s53.5 43.834 81.5 78.501v220c-28 34.667 -55.167 60.834 -81.5 78.501s-55.833 26.5 -88.5 26.5c-36 0 -63 -11.833 -81 -35.5s-27 -59.5 -27 -107.5v-144c0 -47.333 9 -83 27 -107s45 -36 81 -36zM490 109.998
l-30 0.000976562c-18.667 -38 -43.834 -67.5 -75.501 -88.5s-68.167 -31.5 -109.5 -31.5c-56 0 -100.833 19.833 -134.5 59.5s-50.5 95.834 -50.5 168.501v164c0 72 16.833 128 50.5 168s78.5 60 134.5 60c36.667 0 69.167 -9.83301 97.5 -29.5s50.833 -46.5 67.5 -80.5h30
v100h100v-440c0 -36 8.33301 -58.333 25 -67s41.667 -10 75 -4v-92c-53.333 -6.66699 -95.666 -1.83398 -126.999 14.499s-49 49.166 -53 98.499z" />
    <glyph glyph-name="beta" unicode="&#x3b2;" 
d="M341 78c52.667 0 92 11.833 118 35.5s39 59.5 39 107.5v42c0 40 -12.167 69.833 -36.5 89.5s-61.5 29.5 -111.5 29.5h-51v88h45c42 0 73.5 8.83301 94.5 26.5s31.5 44.5 31.5 80.5v18c0 42 -11.167 73.333 -33.5 94s-56.5 31 -102.5 31c-45.333 0 -79 -12 -101 -36
s-33 -60 -33 -108v-460c20.667 -12.667 42.667 -22.167 66 -28.5s48.333 -9.5 75 -9.5zM342 -10c-26.667 0 -51.999 2.49902 -75.999 7.49902s-46 11.833 -66 20.5v-218h-100v773c0 82.667 22.5 142.834 67.5 180.501s100.5 56.5 166.5 56.5s121.5 -17.167 166.5 -51.5
s67.5 -82.833 67.5 -145.5v-26c0 -36 -8.66699 -66.5 -26 -91.5s-45 -40.833 -83 -47.5v-29c44 -4.66699 78.167 -21.167 102.5 -49.5s37.166 -61.5 38.499 -99.5v-51c0 -82 -27.5 -140.667 -82.5 -176s-113.5 -53 -175.5 -53z" />
    <glyph glyph-name="gamma" unicode="&#x3b3;" 
d="M410 -200h-120l10 220l-226 580h110l170 -457l166 457h105l-225 -580z" />
    <glyph glyph-name="delta" unicode="&#x3b4;" 
d="M350 -10c-74.667 0 -134.999 18.5 -180.999 55.5s-69 94.167 -69 171.5v92c0 38.667 11.833 73.5 35.5 104.5s57.5 56.167 101.5 75.5c-38 17.333 -65.333 37.5 -82 60.5s-25 51.5 -25 85.5c0 56.667 18.333 98.334 55 125.001s90.667 40 162 40h185v-90h-185
c-42 0 -73.167 -4.83301 -93.5 -14.5s-30.5 -29.834 -30.5 -60.501c0 -22.667 10.167 -40.167 30.5 -52.5s73.166 -31.833 158.499 -58.5c68.667 -21.333 117.167 -47.5 145.5 -78.5s42.5 -73.167 42.5 -126.5v-102c0 -77.333 -23 -134.5 -69 -171.5
s-106.333 -55.5 -181 -55.5zM350.001 80c50 0 87.501 10.666 112.501 31.999s37.5 56.333 37.5 105v102c0 36 -13.333 63.833 -40 83.5s-78.334 39.834 -155.001 60.501c-34 -16 -60 -37.167 -78 -63.5s-27 -56.5 -27 -90.5v-92c0 -48.667 12.5 -83.667 37.5 -105
s62.5 -32 112.5 -32z" />
    <glyph glyph-name="epsilon" unicode="&#x3b5;" 
d="M354 -10c-93.333 0 -162.167 14.5 -206.5 43.5s-66.5 73.5 -66.5 133.5v10c0 34 13 63.667 39 89s65 39.666 117 42.999v22c-42.667 2.66699 -76.334 13.167 -101.001 31.5s-37 43.5 -37 75.5v14c0 54 20.667 93.833 62 119.5s105.666 38.5 192.999 38.5
c79.333 0 139.166 -14.667 179.499 -44s62.833 -74.666 67.5 -135.999l-99 -8c-4.66699 36 -18.5 61.833 -41.5 77.5s-58.5 23.5 -106.5 23.5c-56 0 -95.833 -6 -119.5 -18s-35.5 -31.667 -35.5 -59v-14c0 -24.667 11.333 -42.167 34 -52.5s60.334 -15.5 113.001 -15.5h56
v-80h-56c-59.333 0 -101.666 -7.5 -126.999 -22.5s-38 -39.833 -38 -74.5v-10c0 -36 13.333 -61.667 40 -77s71 -23 133 -23c54 0 94 8.66699 120 26s41.333 46 46 86l99 -7c-4.66699 -66 -28.667 -114.5 -72 -145.5s-107.666 -46.5 -192.999 -46.5z" />
    <glyph glyph-name="zeta" unicode="&#x3b6;" 
d="M410 -200l-109.999 -0.00195312v90h125c24.667 0 44.167 4.16699 58.5 12.5s21.5 25.833 21.5 52.5c0 26 -7.16699 43.333 -21.5 52s-33.833 13 -58.5 13h-85c-84.667 0 -146.667 23.833 -186 71.5s-59 101.5 -59 161.5c0 38.667 8 76.834 24 114.501
s37.667 71.167 65 100.5l145 155l-7 16c-68.667 -6.66699 -122.667 7.33301 -162 42s-65.333 77 -78 127l89 19c8.66699 -42.667 33.167 -73.167 73.5 -91.5s89.166 -19.166 146.499 -2.49902l202 89l42 -112l-160 -47l-207 -231c-22.667 -24.667 -40.5 -51.167 -53.5 -79.5
s-19.5 -59.833 -19.5 -94.5c0 -44.667 11.667 -80.5 35 -107.5s60 -40.5 110 -40.5h84c54 0 96.833 -12.333 128.5 -37s47.5 -64 47.5 -118c0 -50 -17.167 -88.333 -51.5 -115s-80.5 -40 -138.5 -40z" />
    <glyph glyph-name="eta" unicode="&#x3b7;" 
d="M500 -200v604c0 37.333 -9.66699 65.166 -29 83.499s-49 27.5 -89 27.5c-31.333 0 -61.833 -8.66699 -91.5 -26s-59.834 -43.666 -90.501 -78.999v-410h-100v600h100v-100h30c14.667 33.333 38.5 60 71.5 80s70.5 30 112.5 30c56.667 0 101.834 -16.5 135.501 -49.5
s50.5 -77.167 50.5 -132.5v-628h-100z" />
    <glyph glyph-name="theta" unicode="&#x3b8;" 
d="M350 -10c-74.667 0 -135.001 18.5 -181.001 55.5s-69 94.167 -69 171.5v362c0 78 23.167 136 69.5 174s106.833 57 181.5 57s134.834 -19 180.501 -57s68.5 -96 68.5 -174v-362c0 -77.333 -23 -134.5 -69 -171.5s-106.333 -55.5 -181 -55.5zM199.999 579l0.00195312 -129
h300v129c0 48 -12.333 83.5 -37 106.5s-62.334 34.5 -113.001 34.5s-88.334 -11.5 -113.001 -34.5s-37 -58.5 -37 -106.5zM350.001 80c50.667 0 88.332 11.333 112.999 34s37 57 37 103v143h-300v-143c0 -46 12.333 -80.333 37 -103s62.334 -34 113.001 -34z" />
    <glyph glyph-name="iota" unicode="&#x3b9;" 
d="M496 -5c-61.333 0 -109.335 17.667 -144.002 53s-52 84 -52 146v316h-220v90h320v-407c0 -35.333 8.16699 -62 24.5 -80s41.166 -27 74.499 -27c14.667 0 31.834 1.83301 51.501 5.5s35.834 8.16699 48.501 13.5l20 -87c-16 -6.66699 -34.667 -12.167 -56 -16.5
s-43.666 -6.5 -66.999 -6.5z" />
    <glyph glyph-name="kappa" unicode="&#x3ba;" 
d="M250 273v-273h-100v600h100v-243h51l192 243h122l-235 -279l232 -321h-114l-197 273h-51z" />
    <glyph glyph-name="lambda" unicode="&#x3bb;" 
d="M516 0l-167.999 513l-168 -513h-106l213 600h32l-7 22c-9.33301 29.333 -23.5 52.5 -42.5 69.5s-46.833 25.5 -83.5 25.5c-12.667 0 -26.5 -1 -41.5 -3s-31.5 -5 -49.5 -9l-17 90c16.667 3.33301 33.167 5.83301 49.5 7.5s32.166 2.5 47.499 2.5
c48 0 91.167 -10.833 129.5 -32.5s66.833 -58.5 85.5 -110.5l235 -662h-109z" />
    <glyph glyph-name="mu" unicode="&#x3bc;" 
d="M200 20l9.99902 -219.998h-120l10 220v580h100v-404c0 -40 11.5 -68.5 34.5 -85.5s50.833 -25.5 83.5 -25.5c30 0 56.167 6.66699 78.5 20s43.5 31.666 63.5 54.999v440h100v-440c0 -36 8.33301 -58.333 25 -67s41.667 -10 75 -4v-92
c-48.667 -7.33301 -86.167 -2.33301 -112.5 15s-40.833 46.666 -43.5 87.999h-20c-16.667 -28.667 -39.5 -54.167 -68.5 -76.5s-65.5 -33.5 -109.5 -33.5c-20.667 0 -40.167 4 -58.5 12s-34.166 20.333 -47.499 37v-19z" />
    <glyph glyph-name="nu" unicode="&#x3bd;" 
d="M402 0l-104.997 0.00292969l-223 600h105l183 -527c48 87.333 85.667 176.166 113 266.499s44.666 177.166 51.999 260.499h98c-12.667 -112.667 -39.334 -219.334 -80.001 -320.001s-88.334 -194 -143.001 -280z" />
    <glyph glyph-name="xi" unicode="&#x3be;" 
d="M620 -45c0 -50 -17.168 -88.335 -51.501 -115.002s-80.5 -40 -138.5 -40h-110v90h125c24.667 0 44.167 4.16699 58.5 12.5s21.5 25.833 21.5 52.5c0 26 -7.16699 43.333 -21.5 52s-33.833 13 -58.5 13h-105c-73.333 0 -131.666 16.833 -174.999 50.5
s-65 79.167 -65 136.5v27c0 40.667 14.667 76.5 44 107.5s73.666 48.833 132.999 53.5v23c-38 0 -67 10 -87 30s-30 45.333 -30 76c0 24.667 6.5 46.834 19.5 66.501s33.833 34.834 62.5 45.501v23c-60 2.66699 -107.167 17.167 -141.5 43.5s-57.166 61.5 -68.499 105.5
l89 19c8.66699 -32.667 36.167 -57 82.5 -73s98.833 -19.667 157.5 -11l202 79l42 -112l-215 -53l-56 -31c-26.667 -14.667 -45.667 -30.167 -57 -46.5s-17 -34.166 -17 -53.499c0 -28 7.5 -47.667 22.5 -59s33.833 -17 56.5 -17h191v-90h-189c-50 0 -86 -10.833 -108 -32.5
s-33 -47.834 -33 -78.501v-27c0 -33.333 11.167 -60.333 33.5 -81s57.833 -31 106.5 -31h104c54 0 96.833 -12.333 128.5 -37s47.5 -64 47.5 -118z" />
    <glyph glyph-name="omicron" unicode="&#x3bf;" 
d="M350 -10c-80.667 0 -142.5 19.5 -185.5 58.5s-64.5 95.167 -64.5 168.5v162c0 74 21.667 131 65 171s105.333 60 186 60c80 0 141.5 -20 184.5 -60s64.5 -97 64.5 -171v-162c0 -73.333 -21.5 -129.5 -64.5 -168.5s-104.833 -58.5 -185.5 -58.5zM350 80
c50.667 0 88.334 11.333 113.001 34s37 57 37 103v162c0 48 -12.333 83.5 -37 106.5s-62.334 34.5 -113.001 34.5s-88.334 -11.5 -113.001 -34.5s-37 -58.5 -37 -106.5v-162c0 -46 12.333 -80.333 37 -103s62.334 -34 113.001 -34z" />
    <glyph glyph-name="pi" unicode="&#x3c0;" 
d="M630 600l0.000976562 -90h-120v-350c0 -34 8.16699 -55.833 24.5 -65.5s48.166 -11.5 95.499 -5.5v-92c-74 -6.66699 -129.167 0 -165.5 20s-54.5 54.333 -54.5 103v390h-170v-510h-100v510h-100v90h590z" />
    <glyph glyph-name="rho" unicode="&#x3c1;" 
d="M380 85c40 0 69.999 11.832 89.999 35.499s30 59.5 30 107.5v151c0 47.333 -12.5 82.666 -37.5 105.999s-62.5 35 -112.5 35s-87.5 -11.667 -112.5 -35s-37.5 -58.666 -37.5 -105.999v-189c28.667 -35.333 57.834 -61.666 87.501 -78.999s60.5 -26 92.5 -26z
M99.999 -200.001v579.001c0 78 23.167 136 69.5 174s106.833 57 181.5 57s134.834 -19 180.501 -57s68.5 -96 68.5 -174v-161c0 -72.667 -17.833 -128.834 -53.5 -168.501s-82.834 -59.5 -141.501 -59.5c-39.333 0 -74 9.66699 -104 29s-53.667 46.333 -71 81h-30v-300h-100
z" />
    <glyph glyph-name="sigma1" unicode="&#x3c2;" 
d="M304 -200l-0.00195312 90h125c24.667 0 44.167 4.16699 58.5 12.5s21.5 25.833 21.5 52.5c0 26 -7.16699 43.333 -21.5 52s-33.833 13 -58.5 13h-85c-87.333 0 -149.833 20.167 -187.5 60.5s-56.5 99.166 -56.5 176.499v120c0 75.333 19.833 133 59.5 173
s104.167 60 193.5 60c78.667 0 136.834 -17.667 174.501 -53s58.834 -89.666 63.501 -162.999l-93 -6c-2.66699 46 -15.667 79.5 -39 100.5s-59 31.5 -107 31.5c-53.333 0 -92 -10.833 -116 -32.5s-36 -56.5 -36 -104.5v-136c0 -48 11.5 -82.833 34.5 -104.5
s59.5 -32.5 109.5 -32.5h85c54 0 96.667 -12.333 128 -37s47 -64 47 -118c0 -50 -17.167 -88.333 -51.5 -115s-80.5 -40 -138.5 -40h-110z" />
    <glyph glyph-name="sigma" unicode="&#x3c3;" 
d="M330 80c43.333 0 75.833 10.667 97.5 32s32.5 56.333 32.5 105v132c0 55.333 -10.833 96 -32.5 122s-54.167 39 -97.5 39s-75.833 -11.5 -97.5 -34.5s-32.5 -58.5 -32.5 -106.5v-152c0 -48.667 10.833 -83.667 32.5 -105s54.167 -32 97.5 -32zM330 -10
c-68.667 0 -124.168 18.499 -166.501 55.499s-63.5 94.167 -63.5 171.5v152c0 74.667 21.333 131.834 64 171.501s98.334 59.5 167.001 59.5h369v-100l-215 17c24 -16.667 42.5 -39.167 55.5 -67.5s19.5 -61.833 19.5 -100.5v-132c0 -77.333 -21.167 -134.5 -63.5 -171.5
s-97.833 -55.5 -166.5 -55.5z" />
    <glyph glyph-name="tau" unicode="&#x3c4;" 
d="M520 -3c-78 -7.33301 -134.167 -1.5 -168.5 17.5s-51.5 54.167 -51.5 105.5v390h-200v90h510v-90h-210v-350c0 -32.667 8.5 -54 25.5 -64s48.5 -12.333 94.5 -7v-92z" />
    <glyph glyph-name="upsilon" unicode="&#x3c5;" 
d="M350 -10c-81.333 0 -143.331 19.5 -185.998 58.5s-64 95.167 -64 168.5v383h100v-383c0 -48.667 11.667 -83.667 35 -105s61.666 -32 114.999 -32s91.666 10.667 114.999 32s35 56.333 35 105v383h100v-383c0 -73.333 -21.333 -129.5 -64 -168.5
s-104.667 -58.5 -186 -58.5z" />
    <glyph glyph-name="phi" unicode="&#x3c6;" 
d="M396 -200h-92v192c-73.333 7.33301 -132.333 33.5 -177 78.5s-67 107.167 -67 186.5v92c0 54.667 6.5 104.5 19.5 149.5s30.5 84.5 52.5 118.5l87 -32c-18 -29.333 -33.667 -64 -47 -104s-20 -84 -20 -132v-92c0 -54 12.833 -96.5 38.5 -127.5s63.5 -49.833 113.5 -56.5
v527h96c72 0 130 -23 174 -69s66 -116.667 66 -212v-62c0 -79.333 -22.333 -141.5 -67 -186.5s-103.667 -71.167 -177 -78.5v-192zM396 520v-446.999c50 6.66699 87.833 25.5 113.5 56.5s38.5 73.5 38.5 127.5v62c0 69.333 -12.833 120.166 -38.5 152.499
s-63.5 48.5 -113.5 48.5z" />
    <glyph glyph-name="chi" unicode="&#x3c7;" 
d="M491 -200l-151 312l-157 -312h-97l213 396l-196 404h99l154 -316l161 316h97l-217 -400l195 -400h-101z" />
    <glyph glyph-name="psi" unicode="&#x3c8;" 
d="M396 -200h-92v192c-84.667 6.66699 -146.5 31.834 -185.5 75.501s-58.5 100.167 -58.5 169.5v363h92v-363c0 -48 12.167 -84.667 36.5 -110s62.833 -40.333 115.5 -45v518h92v-518c52.667 4.66699 91.167 19.667 115.5 45s36.5 62 36.5 110v363h92v-363
c0 -69.333 -19.5 -125.833 -58.5 -169.5s-100.833 -68.834 -185.5 -75.501v-192z" />
    <glyph glyph-name="omega" unicode="&#x3c9;" 
d="M210 -10c-44.667 0 -80.835 20.167 -108.502 60.5s-41.5 99.166 -41.5 176.499v102c0 59.333 6.16699 115.666 18.5 168.999s26.833 93 43.5 119l87 -32c-11.333 -22 -23.666 -57 -36.999 -105s-20 -98.333 -20 -151v-102c0 -48.667 6.33301 -85.334 19 -110.001
s32.334 -37 59.001 -37c24.667 0 43.167 9 55.5 27s18.5 48 18.5 90v263h92v-263c0 -42 6.16699 -72 18.5 -90s30.833 -27 55.5 -27c26 0 45.5 12.333 58.5 37s19.5 61.334 19.5 110.001v102c0 52.667 -6.66699 103 -20 151s-25.666 83 -36.999 105l87 32
c16.667 -26 31.167 -65.667 43.5 -119s18.5 -109.666 18.5 -168.999v-102c0 -77.333 -13.833 -136.166 -41.5 -176.499s-63.834 -60.5 -108.501 -60.5c-30 0 -57.167 9.83301 -81.5 29.5s-41.833 52.5 -52.5 98.5h-12c-10.667 -46 -28.167 -78.833 -52.5 -98.5
s-51.5 -29.5 -81.5 -29.5z" />
    <glyph glyph-name="iotadieresis" unicode="&#x3ca;" 
d="M496 -5c-61.333 0 -109.335 17.667 -144.002 53s-52 84 -52 146v316h-220v90h320v-407c0 -35.333 8.16699 -62 24.5 -80s41.166 -27 74.499 -27c14.667 0 31.834 1.83301 51.501 5.5s35.834 8.16699 48.501 13.5l20 -87c-16 -6.66699 -34.667 -12.167 -56 -16.5
s-43.666 -6.5 -66.999 -6.5zM229.998 710c-19.333 0 -35 4 -47 12s-18 23 -18 45v7c0 22.667 6 38.167 18 46.5s27.667 12.5 47 12.5s35 -4.16699 47 -12.5s18 -23.833 18 -46.5v-7c0 -22 -6.16699 -37 -18.5 -45s-27.833 -12 -46.5 -12zM459.998 710
c-19.333 0 -35 4 -47 12s-18 23 -18 45v7c0 22.667 6 38.167 18 46.5s27.667 12.5 47 12.5s35 -4.16699 47 -12.5s18 -23.833 18 -46.5v-7c0 -22 -6.16699 -37 -18.5 -45s-27.833 -12 -46.5 -12z" />
    <glyph glyph-name="upsilondieresis" unicode="&#x3cb;" 
d="M350 -10c-81.333 0 -143.331 19.5 -185.998 58.5s-64 95.167 -64 168.5v383h100v-383c0 -48.667 11.667 -83.667 35 -105s61.666 -32 114.999 -32s91.666 10.667 114.999 32s35 56.333 35 105v383h100v-383c0 -73.333 -21.333 -129.5 -64 -168.5
s-104.667 -58.5 -186 -58.5zM235.002 710c-19.333 0 -35 4 -47 12s-18 23 -18 45v7c0 22.667 6 38.167 18 46.5s27.667 12.5 47 12.5s35 -4.16699 47 -12.5s18 -23.833 18 -46.5v-7c0 -22 -6.16699 -37 -18.5 -45s-27.833 -12 -46.5 -12zM465.002 710
c-19.333 0 -35 4 -47 12s-18 23 -18 45v7c0 22.667 6 38.167 18 46.5s27.667 12.5 47 12.5s35 -4.16699 47 -12.5s18 -23.833 18 -46.5v-7c0 -22 -6.16699 -37 -18.5 -45s-27.833 -12 -46.5 -12z" />
    <glyph glyph-name="omicrontonos" unicode="&#x3cc;" 
d="M350 -10c-80.667 0 -142.5 19.5 -185.5 58.5s-64.5 95.167 -64.5 168.5v162c0 74 21.667 131 65 171s105.333 60 186 60c80 0 141.5 -20 184.5 -60s64.5 -97 64.5 -171v-162c0 -73.333 -21.5 -129.5 -64.5 -168.5s-104.833 -58.5 -185.5 -58.5zM350 80
c50.667 0 88.334 11.333 113.001 34s37 57 37 103v162c0 48 -12.333 83.5 -37 106.5s-62.334 34.5 -113.001 34.5s-88.334 -11.5 -113.001 -34.5s-37 -58.5 -37 -106.5v-162c0 -46 12.333 -80.333 37 -103s62.334 -34 113.001 -34zM276 700l76 200h140l-135 -200h-81z" />
    <glyph glyph-name="upsilontonos" unicode="&#x3cd;" 
d="M350 -10c-81.333 0 -143.331 19.5 -185.998 58.5s-64 95.167 -64 168.5v383h100v-383c0 -48.667 11.667 -83.667 35 -105s61.666 -32 114.999 -32s91.666 10.667 114.999 32s35 56.333 35 105v383h100v-383c0 -73.333 -21.333 -129.5 -64 -168.5
s-104.667 -58.5 -186 -58.5zM276.002 700l76 200h140l-135 -200h-81z" />
    <glyph glyph-name="omegatonos" unicode="&#x3ce;" 
d="M210 -10c-44.667 0 -80.835 20.167 -108.502 60.5s-41.5 99.166 -41.5 176.499v102c0 59.333 6.16699 115.666 18.5 168.999s26.833 93 43.5 119l87 -32c-11.333 -22 -23.666 -57 -36.999 -105s-20 -98.333 -20 -151v-102c0 -48.667 6.33301 -85.334 19 -110.001
s32.334 -37 59.001 -37c24.667 0 43.167 9 55.5 27s18.5 48 18.5 90v263h92v-263c0 -42 6.16699 -72 18.5 -90s30.833 -27 55.5 -27c26 0 45.5 12.333 58.5 37s19.5 61.334 19.5 110.001v102c0 52.667 -6.66699 103 -20 151s-25.666 83 -36.999 105l87 32
c16.667 -26 31.167 -65.667 43.5 -119s18.5 -109.666 18.5 -168.999v-102c0 -77.333 -13.833 -136.166 -41.5 -176.499s-63.834 -60.5 -108.501 -60.5c-30 0 -57.167 9.83301 -81.5 29.5s-41.833 52.5 -52.5 98.5h-12c-10.667 -46 -28.167 -78.833 -52.5 -98.5
s-51.5 -29.5 -81.5 -29.5zM285.999 700l76 200h140l-135 -200h-81z" />
    <glyph glyph-name="IEgravecyrillic" unicode="&#x400;" 
d="M100 0v800h520v-90h-420v-230h370v-90h-370v-300h420v-90h-520zM381 900l-195 200h150l136 -200h-91z" />
    <glyph glyph-name="Iocyrillic" unicode="&#x401;" 
d="M100 0v800h520v-90h-420v-230h370v-90h-370v-300h420v-90h-520zM265 910c-19.333 0 -35 4 -47 12s-18 23 -18 45v7c0 22.667 6 38.167 18 46.5s27.667 12.5 47 12.5s35 -4.16699 47 -12.5s18 -23.833 18 -46.5v-7c0 -22 -6.16699 -37 -18.5 -45s-27.833 -12 -46.5 -12z
M495 910c-19.333 0 -35 4 -47 12s-18 23 -18 45v7c0 22.667 6 38.167 18 46.5s27.667 12.5 47 12.5s35 -4.16699 47 -12.5s18 -23.833 18 -46.5v-7c0 -22 -6.16699 -37 -18.5 -45s-27.833 -12 -46.5 -12z" />
    <glyph glyph-name="Djecyrillic" unicode="&#x402;" 
d="M180 0v710h-150v90h500v-90h-250v-190h130c78 0 135.833 -17.333 173.5 -52s56.5 -87.667 56.5 -159v-98c0 -71.333 -18.833 -124.333 -56.5 -159s-95.5 -52 -173.5 -52v88c40 0 71.667 9 95 27s35 50.667 35 98v94c0 47.333 -11.667 80 -35 98s-55 27 -95 27h-130v-432
h-100z" />
    <glyph glyph-name="Gjecyrillic" unicode="&#x403;" 
d="M100 0v800h520v-90h-420v-710h-100zM281 900l136 200h150l-195 -200h-91z" />
    <glyph glyph-name="Ecyrillic" unicode="&#x404;" 
d="M640 257c-4.66699 -88 -30.668 -154.501 -78.001 -199.501s-114.666 -67.5 -201.999 -67.5c-92.667 0 -162.5 24 -209.5 72s-70.5 119.667 -70.5 215v242c0 96 23.5 168.5 70.5 217.5s117.167 73.5 210.5 73.5c87.333 0 154.5 -22.833 201.5 -68.5
s72.833 -113.167 77.5 -202.5l-100 -10c-6 69.333 -22.667 118.5 -50 147.5s-70.666 43.5 -129.999 43.5c-65.333 0 -111.666 -15.167 -138.999 -45.5s-41 -82.166 -41 -155.499v-39h227v-90h-227v-113c0 -71.333 13.667 -122 41 -152s73.666 -45 138.999 -45
c60 0 103.667 14.333 131 43s43.666 76.667 48.999 144z" />
    <glyph glyph-name="Dzecyrillic" unicode="&#x405;" 
d="M363 -6c-60 0 -116 9.66797 -168 29.001s-98.667 54.666 -140 105.999l72 68c28 -38 61.5 -66.333 100.5 -85s85.167 -28 138.5 -28c49.333 0 89.166 11.5 119.499 34.5s45.5 54.167 45.5 93.5c0 38 -13 67.167 -39 87.5s-77.333 41.833 -154 64.5
c-97.333 28 -163.666 58.333 -198.999 91s-53 79 -53 139c0 69.333 23.167 121.666 69.5 156.999s102.5 53 168.5 53c56 0 109.167 -9.83301 159.5 -29.5s94.833 -54.5 133.5 -104.5l-69 -69c-26.667 38 -60 66.333 -100 85s-80.667 28 -122 28
c-42 0 -75.667 -8.5 -101 -25.5s-38 -45.5 -38 -85.5c0 -35.333 13.833 -63.166 41.5 -83.499s82.167 -42.166 163.5 -65.499c92 -26.667 154.833 -55.834 188.5 -87.501s50.5 -77.5 50.5 -137.5c0 -76.667 -27.333 -135 -82 -175s-116.667 -60 -186 -60z" />
    <glyph glyph-name="Icyrillic" unicode="&#x406;" 
d="M100 0v90h200v620h-200v90h500v-90h-200v-620h200v-90h-500z" />
    <glyph glyph-name="Yicyrillic" unicode="&#x407;" 
d="M100 0v90h200v620h-200v90h500v-90h-200v-620h200v-90h-500zM235 910c-19.333 0 -35 4 -47 12s-18 23 -18 45v7c0 22.667 6 38.167 18 46.5s27.667 12.5 47 12.5s35 -4.16699 47 -12.5s18 -23.833 18 -46.5v-7c0 -22 -6.16699 -37 -18.5 -45s-27.833 -12 -46.5 -12z
M465 910c-19.333 0 -35 4 -47 12s-18 23 -18 45v7c0 22.667 6 38.167 18 46.5s27.667 12.5 47 12.5s35 -4.16699 47 -12.5s18 -23.833 18 -46.5v-7c0 -22 -6.16699 -37 -18.5 -45s-27.833 -12 -46.5 -12z" />
    <glyph glyph-name="Jecyrillic" unicode="&#x408;" 
d="M329 -10c-87.333 0 -152.832 21.667 -196.499 65s-67.834 110.666 -72.501 201.999l100 11c4.66699 -74.667 18.667 -124.667 42 -150s66 -38 128 -38c57.333 0 100 14.833 128 44.5s42 74.5 42 134.5v451h-200v90h300v-540c0 -87.333 -23.167 -154.166 -69.5 -200.499
s-113.5 -69.5 -201.5 -69.5z" />
    <glyph glyph-name="Ljecyrillic" unicode="&#x409;" 
d="M175 164c-0.666992 -60.667 -13.666 -104.167 -38.999 -130.5s-55.666 -39.5 -90.999 -39.5c-10.667 -0.666992 -21.334 0 -32.001 2s-21.334 4.66699 -32.001 8l20 91c6 -2 12 -3.83301 18 -5.5s12 -2.5 18 -2.5c12.667 -0.666992 23.5 4.5 32.5 15.5
s13.833 34.167 14.5 69.5l12 628h300v-280h44c66 0 115.833 -17.833 149.5 -53.5s50.5 -88.167 50.5 -157.5v-98c0 -69.333 -16.667 -121.833 -50 -157.5s-83 -53.5 -149 -53.5h-137v710h-119zM396.001 90h44c32.667 0 58.834 9 78.501 27s29.5 50.667 29.5 98v92
c0 47.333 -9.83301 80 -29.5 98s-45.834 27 -78.501 27h-44v-342z" />
    </font>
</defs>
</svg>
